<?xml version="1.0" encoding="utf-8" standalone="no"?>
<!DOCTYPE svg PUBLIC "-//W3C//DTD SVG 1.1//EN"
  "http://www.w3.org/Graphics/SVG/1.1/DTD/svg11.dtd">
<svg xmlns:xlink="http://www.w3.org/1999/xlink" width="460.8pt" height="345.6pt" viewBox="0 0 460.8 345.6" xmlns="http://www.w3.org/2000/svg" version="1.1">
 <metadata>
  <rdf:RDF xmlns:dc="http://purl.org/dc/elements/1.1/" xmlns:cc="http://creativecommons.org/ns#" xmlns:rdf="http://www.w3.org/1999/02/22-rdf-syntax-ns#">
   <cc:Work>
    <dc:type rdf:resource="http://purl.org/dc/dcmitype/StillImage"/>
    <dc:date>2025-10-31T23:21:53.054133</dc:date>
    <dc:format>image/svg+xml</dc:format>
    <dc:creator>
     <cc:Agent>
      <dc:title>Matplotlib v3.10.3, https://matplotlib.org/</dc:title>
     </cc:Agent>
    </dc:creator>
   </cc:Work>
  </rdf:RDF>
 </metadata>
 <defs>
  <style type="text/css">*{stroke-linejoin: round; stroke-linecap: butt}</style>
 </defs>
 <g id="figure_1">
  <g id="patch_1">
   <path d="M 0 345.6 
L 460.8 345.6 
L 460.8 0 
L 0 0 
z
" style="fill: #ffffff"/>
  </g>
  <g id="axes_1">
   <g id="patch_2">
    <path d="M 57.6 307.584 
L 414.72 307.584 
L 414.72 41.472 
L 57.6 41.472 
z
" style="fill: #ffffff"/>
   </g>
   <g id="patch_3">
    <path d="M 73.832727 307.584 
L 75.541435 307.584 
L 75.541435 54.144 
L 73.832727 54.144 
z
" clip-path="url(#pc2e1bf7bd4)" style="fill: #1f77b4"/>
   </g>
   <g id="patch_4">
    <path d="M 75.541435 307.584 
L 77.250144 307.584 
L 77.250144 82.831195 
L 75.541435 82.831195 
z
" clip-path="url(#pc2e1bf7bd4)" style="fill: #1f77b4"/>
   </g>
   <g id="patch_5">
    <path d="M 77.250144 307.584 
L 78.958852 307.584 
L 78.958852 112.961496 
L 77.250144 112.961496 
z
" clip-path="url(#pc2e1bf7bd4)" style="fill: #1f77b4"/>
   </g>
   <g id="patch_6">
    <path d="M 78.958852 307.584 
L 80.66756 307.584 
L 80.66756 140.785015 
L 78.958852 140.785015 
z
" clip-path="url(#pc2e1bf7bd4)" style="fill: #1f77b4"/>
   </g>
   <g id="patch_7">
    <path d="M 80.66756 307.584 
L 82.376268 307.584 
L 82.376268 168.422678 
L 80.66756 168.422678 
z
" clip-path="url(#pc2e1bf7bd4)" style="fill: #1f77b4"/>
   </g>
   <g id="patch_8">
    <path d="M 82.376268 307.584 
L 84.084976 307.584 
L 84.084976 192.758691 
L 82.376268 192.758691 
z
" clip-path="url(#pc2e1bf7bd4)" style="fill: #1f77b4"/>
   </g>
   <g id="patch_9">
    <path d="M 84.084976 307.584 
L 85.793684 307.584 
L 85.793684 215.159629 
L 84.084976 215.159629 
z
" clip-path="url(#pc2e1bf7bd4)" style="fill: #1f77b4"/>
   </g>
   <g id="patch_10">
    <path d="M 85.793684 307.584 
L 87.502392 307.584 
L 87.502392 234.805548 
L 85.793684 234.805548 
z
" clip-path="url(#pc2e1bf7bd4)" style="fill: #1f77b4"/>
   </g>
   <g id="patch_11">
    <path d="M 87.502392 307.584 
L 89.2111 307.584 
L 89.2111 250.679712 
L 87.502392 250.679712 
z
" clip-path="url(#pc2e1bf7bd4)" style="fill: #1f77b4"/>
   </g>
   <g id="patch_12">
    <path d="M 89.2111 307.584 
L 90.919809 307.584 
L 90.919809 262.115233 
L 89.2111 262.115233 
z
" clip-path="url(#pc2e1bf7bd4)" style="fill: #1f77b4"/>
   </g>
   <g id="patch_13">
    <path d="M 90.919809 307.584 
L 92.628517 307.584 
L 92.628517 269.297964 
L 90.919809 269.297964 
z
" clip-path="url(#pc2e1bf7bd4)" style="fill: #1f77b4"/>
   </g>
   <g id="patch_14">
    <path d="M 92.628517 307.584 
L 94.337225 307.584 
L 94.337225 272.927594 
L 92.628517 272.927594 
z
" clip-path="url(#pc2e1bf7bd4)" style="fill: #1f77b4"/>
   </g>
   <g id="patch_15">
    <path d="M 94.337225 307.584 
L 96.045933 307.584 
L 96.045933 273.758473 
L 94.337225 273.758473 
z
" clip-path="url(#pc2e1bf7bd4)" style="fill: #1f77b4"/>
   </g>
   <g id="patch_16">
    <path d="M 96.045933 307.584 
L 97.754641 307.584 
L 97.754641 271.812467 
L 96.045933 271.812467 
z
" clip-path="url(#pc2e1bf7bd4)" style="fill: #1f77b4"/>
   </g>
   <g id="patch_17">
    <path d="M 97.754641 307.584 
L 99.463349 307.584 
L 99.463349 267.06771 
L 97.754641 267.06771 
z
" clip-path="url(#pc2e1bf7bd4)" style="fill: #1f77b4"/>
   </g>
   <g id="patch_18">
    <path d="M 99.463349 307.584 
L 101.172057 307.584 
L 101.172057 259.403943 
L 99.463349 259.403943 
z
" clip-path="url(#pc2e1bf7bd4)" style="fill: #1f77b4"/>
   </g>
   <g id="patch_19">
    <path d="M 101.172057 307.584 
L 102.880766 307.584 
L 102.880766 250.799971 
L 101.172057 250.799971 
z
" clip-path="url(#pc2e1bf7bd4)" style="fill: #1f77b4"/>
   </g>
   <g id="patch_20">
    <path d="M 102.880766 307.584 
L 104.589474 307.584 
L 104.589474 241.201131 
L 102.880766 241.201131 
z
" clip-path="url(#pc2e1bf7bd4)" style="fill: #1f77b4"/>
   </g>
   <g id="patch_21">
    <path d="M 104.589474 307.584 
L 106.298182 307.584 
L 106.298182 231.733481 
L 104.589474 231.733481 
z
" clip-path="url(#pc2e1bf7bd4)" style="fill: #1f77b4"/>
   </g>
   <g id="patch_22">
    <path d="M 106.298182 307.584 
L 108.00689 307.584 
L 108.00689 223.107644 
L 106.298182 223.107644 
z
" clip-path="url(#pc2e1bf7bd4)" style="fill: #1f77b4"/>
   </g>
   <g id="patch_23">
    <path d="M 108.00689 307.584 
L 109.715598 307.584 
L 109.715598 214.908179 
L 108.00689 214.908179 
z
" clip-path="url(#pc2e1bf7bd4)" style="fill: #1f77b4"/>
   </g>
   <g id="patch_24">
    <path d="M 109.715598 307.584 
L 111.424306 307.584 
L 111.424306 208.075292 
L 109.715598 208.075292 
z
" clip-path="url(#pc2e1bf7bd4)" style="fill: #1f77b4"/>
   </g>
   <g id="patch_25">
    <path d="M 111.424306 307.584 
L 113.133014 307.584 
L 113.133014 204.095818 
L 111.424306 204.095818 
z
" clip-path="url(#pc2e1bf7bd4)" style="fill: #1f77b4"/>
   </g>
   <g id="patch_26">
    <path d="M 113.133014 307.584 
L 114.841722 307.584 
L 114.841722 203.909963 
L 113.133014 203.909963 
z
" clip-path="url(#pc2e1bf7bd4)" style="fill: #1f77b4"/>
   </g>
   <g id="patch_27">
    <path d="M 114.841722 307.584 
L 116.550431 307.584 
L 116.550431 207.594256 
L 114.841722 207.594256 
z
" clip-path="url(#pc2e1bf7bd4)" style="fill: #1f77b4"/>
   </g>
   <g id="patch_28">
    <path d="M 116.550431 307.584 
L 118.259139 307.584 
L 118.259139 214.634864 
L 116.550431 214.634864 
z
" clip-path="url(#pc2e1bf7bd4)" style="fill: #1f77b4"/>
   </g>
   <g id="patch_29">
    <path d="M 118.259139 307.584 
L 119.967847 307.584 
L 119.967847 224.157176 
L 118.259139 224.157176 
z
" clip-path="url(#pc2e1bf7bd4)" style="fill: #1f77b4"/>
   </g>
   <g id="patch_30">
    <path d="M 119.967847 307.584 
L 121.676555 307.584 
L 121.676555 233.734151 
L 119.967847 233.734151 
z
" clip-path="url(#pc2e1bf7bd4)" style="fill: #1f77b4"/>
   </g>
   <g id="patch_31">
    <path d="M 121.676555 307.584 
L 123.385263 307.584 
L 123.385263 244.032679 
L 121.676555 244.032679 
z
" clip-path="url(#pc2e1bf7bd4)" style="fill: #1f77b4"/>
   </g>
   <g id="patch_32">
    <path d="M 123.385263 307.584 
L 125.093971 307.584 
L 125.093971 253.850172 
L 123.385263 253.850172 
z
" clip-path="url(#pc2e1bf7bd4)" style="fill: #1f77b4"/>
   </g>
   <g id="patch_33">
    <path d="M 125.093971 307.584 
L 126.802679 307.584 
L 126.802679 263.241293 
L 125.093971 263.241293 
z
" clip-path="url(#pc2e1bf7bd4)" style="fill: #1f77b4"/>
   </g>
   <g id="patch_34">
    <path d="M 126.802679 307.584 
L 128.511388 307.584 
L 128.511388 271.517286 
L 126.802679 271.517286 
z
" clip-path="url(#pc2e1bf7bd4)" style="fill: #1f77b4"/>
   </g>
   <g id="patch_35">
    <path d="M 128.511388 307.584 
L 130.220096 307.584 
L 130.220096 278.448567 
L 128.511388 278.448567 
z
" clip-path="url(#pc2e1bf7bd4)" style="fill: #1f77b4"/>
   </g>
   <g id="patch_36">
    <path d="M 130.220096 307.584 
L 131.928804 307.584 
L 131.928804 283.575966 
L 130.220096 283.575966 
z
" clip-path="url(#pc2e1bf7bd4)" style="fill: #1f77b4"/>
   </g>
   <g id="patch_37">
    <path d="M 131.928804 307.584 
L 133.637512 307.584 
L 133.637512 286.746426 
L 131.928804 286.746426 
z
" clip-path="url(#pc2e1bf7bd4)" style="fill: #1f77b4"/>
   </g>
   <g id="patch_38">
    <path d="M 133.637512 307.584 
L 135.34622 307.584 
L 135.34622 288.561241 
L 133.637512 288.561241 
z
" clip-path="url(#pc2e1bf7bd4)" style="fill: #1f77b4"/>
   </g>
   <g id="patch_39">
    <path d="M 135.34622 307.584 
L 137.054928 307.584 
L 137.054928 288.670567 
L 135.34622 288.670567 
z
" clip-path="url(#pc2e1bf7bd4)" style="fill: #1f77b4"/>
   </g>
   <g id="patch_40">
    <path d="M 137.054928 307.584 
L 138.763636 307.584 
L 138.763636 287.653833 
L 137.054928 287.653833 
z
" clip-path="url(#pc2e1bf7bd4)" style="fill: #1f77b4"/>
   </g>
   <g id="patch_41">
    <path d="M 138.763636 307.584 
L 140.472344 307.584 
L 140.472344 285.751558 
L 138.763636 285.751558 
z
" clip-path="url(#pc2e1bf7bd4)" style="fill: #1f77b4"/>
   </g>
   <g id="patch_42">
    <path d="M 140.472344 307.584 
L 142.181053 307.584 
L 142.181053 282.734154 
L 140.472344 282.734154 
z
" clip-path="url(#pc2e1bf7bd4)" style="fill: #1f77b4"/>
   </g>
   <g id="patch_43">
    <path d="M 142.181053 307.584 
L 143.889761 307.584 
L 143.889761 278.9624 
L 142.181053 278.9624 
z
" clip-path="url(#pc2e1bf7bd4)" style="fill: #1f77b4"/>
   </g>
   <g id="patch_44">
    <path d="M 143.889761 307.584 
L 145.598469 307.584 
L 145.598469 274.764274 
L 143.889761 274.764274 
z
" clip-path="url(#pc2e1bf7bd4)" style="fill: #1f77b4"/>
   </g>
   <g id="patch_45">
    <path d="M 145.598469 307.584 
L 147.307177 307.584 
L 147.307177 270.708272 
L 145.598469 270.708272 
z
" clip-path="url(#pc2e1bf7bd4)" style="fill: #1f77b4"/>
   </g>
   <g id="patch_46">
    <path d="M 147.307177 307.584 
L 149.015885 307.584 
L 149.015885 267.187969 
L 147.307177 267.187969 
z
" clip-path="url(#pc2e1bf7bd4)" style="fill: #1f77b4"/>
   </g>
   <g id="patch_47">
    <path d="M 149.015885 307.584 
L 150.724593 307.584 
L 150.724593 263.733261 
L 149.015885 263.733261 
z
" clip-path="url(#pc2e1bf7bd4)" style="fill: #1f77b4"/>
   </g>
   <g id="patch_48">
    <path d="M 150.724593 307.584 
L 152.433301 307.584 
L 152.433301 261.535804 
L 150.724593 261.535804 
z
" clip-path="url(#pc2e1bf7bd4)" style="fill: #1f77b4"/>
   </g>
   <g id="patch_49">
    <path d="M 152.433301 307.584 
L 154.14201 307.584 
L 154.14201 259.939641 
L 152.433301 259.939641 
z
" clip-path="url(#pc2e1bf7bd4)" style="fill: #1f77b4"/>
   </g>
   <g id="patch_50">
    <path d="M 154.14201 307.584 
L 155.850718 307.584 
L 155.850718 260.0599 
L 154.14201 260.0599 
z
" clip-path="url(#pc2e1bf7bd4)" style="fill: #1f77b4"/>
   </g>
   <g id="patch_51">
    <path d="M 155.850718 307.584 
L 157.559426 307.584 
L 157.559426 261.940311 
L 155.850718 261.940311 
z
" clip-path="url(#pc2e1bf7bd4)" style="fill: #1f77b4"/>
   </g>
   <g id="patch_52">
    <path d="M 157.559426 307.584 
L 159.268134 307.584 
L 159.268134 264.749994 
L 157.559426 264.749994 
z
" clip-path="url(#pc2e1bf7bd4)" style="fill: #1f77b4"/>
   </g>
   <g id="patch_53">
    <path d="M 159.268134 307.584 
L 160.976842 307.584 
L 160.976842 268.915323 
L 159.268134 268.915323 
z
" clip-path="url(#pc2e1bf7bd4)" style="fill: #1f77b4"/>
   </g>
   <g id="patch_54">
    <path d="M 160.976842 307.584 
L 162.68555 307.584 
L 162.68555 273.288371 
L 160.976842 273.288371 
z
" clip-path="url(#pc2e1bf7bd4)" style="fill: #1f77b4"/>
   </g>
   <g id="patch_55">
    <path d="M 162.68555 307.584 
L 164.394258 307.584 
L 164.394258 277.716082 
L 162.68555 277.716082 
z
" clip-path="url(#pc2e1bf7bd4)" style="fill: #1f77b4"/>
   </g>
   <g id="patch_56">
    <path d="M 164.394258 307.584 
L 166.102967 307.584 
L 166.102967 282.187523 
L 164.394258 282.187523 
z
" clip-path="url(#pc2e1bf7bd4)" style="fill: #1f77b4"/>
   </g>
   <g id="patch_57">
    <path d="M 166.102967 307.584 
L 167.811675 307.584 
L 167.811675 286.494976 
L 166.102967 286.494976 
z
" clip-path="url(#pc2e1bf7bd4)" style="fill: #1f77b4"/>
   </g>
   <g id="patch_58">
    <path d="M 167.811675 307.584 
L 169.520383 307.584 
L 169.520383 290.343258 
L 167.811675 290.343258 
z
" clip-path="url(#pc2e1bf7bd4)" style="fill: #1f77b4"/>
   </g>
   <g id="patch_59">
    <path d="M 169.520383 307.584 
L 171.229091 307.584 
L 171.229091 293.48092 
L 169.520383 293.48092 
z
" clip-path="url(#pc2e1bf7bd4)" style="fill: #1f77b4"/>
   </g>
   <g id="patch_60">
    <path d="M 171.229091 307.584 
L 172.937799 307.584 
L 172.937799 295.52532 
L 171.229091 295.52532 
z
" clip-path="url(#pc2e1bf7bd4)" style="fill: #1f77b4"/>
   </g>
   <g id="patch_61">
    <path d="M 172.937799 307.584 
L 174.646507 307.584 
L 174.646507 296.913763 
L 172.937799 296.913763 
z
" clip-path="url(#pc2e1bf7bd4)" style="fill: #1f77b4"/>
   </g>
   <g id="patch_62">
    <path d="M 174.646507 307.584 
L 176.355215 307.584 
L 176.355215 297.536922 
L 174.646507 297.536922 
z
" clip-path="url(#pc2e1bf7bd4)" style="fill: #1f77b4"/>
   </g>
   <g id="patch_63">
    <path d="M 176.355215 307.584 
L 178.063923 307.584 
L 178.063923 297.788372 
L 176.355215 297.788372 
z
" clip-path="url(#pc2e1bf7bd4)" style="fill: #1f77b4"/>
   </g>
   <g id="patch_64">
    <path d="M 178.063923 307.584 
L 179.772632 307.584 
L 179.772632 297.372933 
L 178.063923 297.372933 
z
" clip-path="url(#pc2e1bf7bd4)" style="fill: #1f77b4"/>
   </g>
   <g id="patch_65">
    <path d="M 179.772632 307.584 
L 181.48134 307.584 
L 181.48134 296.225008 
L 179.772632 296.225008 
z
" clip-path="url(#pc2e1bf7bd4)" style="fill: #1f77b4"/>
   </g>
   <g id="patch_66">
    <path d="M 181.48134 307.584 
L 183.190048 307.584 
L 183.190048 295.022419 
L 181.48134 295.022419 
z
" clip-path="url(#pc2e1bf7bd4)" style="fill: #1f77b4"/>
   </g>
   <g id="patch_67">
    <path d="M 183.190048 307.584 
L 184.898756 307.584 
L 184.898756 293.305998 
L 183.190048 293.305998 
z
" clip-path="url(#pc2e1bf7bd4)" style="fill: #1f77b4"/>
   </g>
   <g id="patch_68">
    <path d="M 184.898756 307.584 
L 186.607464 307.584 
L 186.607464 291.709836 
L 184.898756 291.709836 
z
" clip-path="url(#pc2e1bf7bd4)" style="fill: #1f77b4"/>
   </g>
   <g id="patch_69">
    <path d="M 186.607464 307.584 
L 188.316172 307.584 
L 188.316172 289.884088 
L 186.607464 289.884088 
z
" clip-path="url(#pc2e1bf7bd4)" style="fill: #1f77b4"/>
   </g>
   <g id="patch_70">
    <path d="M 188.316172 307.584 
L 190.02488 307.584 
L 190.02488 288.287925 
L 188.316172 288.287925 
z
" clip-path="url(#pc2e1bf7bd4)" style="fill: #1f77b4"/>
   </g>
   <g id="patch_71">
    <path d="M 190.02488 307.584 
L 191.733589 307.584 
L 191.733589 287.118135 
L 190.02488 287.118135 
z
" clip-path="url(#pc2e1bf7bd4)" style="fill: #1f77b4"/>
   </g>
   <g id="patch_72">
    <path d="M 191.733589 307.584 
L 193.442297 307.584 
L 193.442297 286.287256 
L 191.733589 286.287256 
z
" clip-path="url(#pc2e1bf7bd4)" style="fill: #1f77b4"/>
   </g>
   <g id="patch_73">
    <path d="M 193.442297 307.584 
L 195.151005 307.584 
L 195.151005 285.860884 
L 193.442297 285.860884 
z
" clip-path="url(#pc2e1bf7bd4)" style="fill: #1f77b4"/>
   </g>
   <g id="patch_74">
    <path d="M 195.151005 307.584 
L 196.859713 307.584 
L 196.859713 285.893682 
L 195.151005 285.893682 
z
" clip-path="url(#pc2e1bf7bd4)" style="fill: #1f77b4"/>
   </g>
   <g id="patch_75">
    <path d="M 196.859713 307.584 
L 198.568421 307.584 
L 198.568421 286.626167 
L 196.859713 286.626167 
z
" clip-path="url(#pc2e1bf7bd4)" style="fill: #1f77b4"/>
   </g>
   <g id="patch_76">
    <path d="M 198.568421 307.584 
L 200.277129 307.584 
L 200.277129 288.167667 
L 198.568421 288.167667 
z
" clip-path="url(#pc2e1bf7bd4)" style="fill: #1f77b4"/>
   </g>
   <g id="patch_77">
    <path d="M 200.277129 307.584 
L 201.985837 307.584 
L 201.985837 289.829425 
L 200.277129 289.829425 
z
" clip-path="url(#pc2e1bf7bd4)" style="fill: #1f77b4"/>
   </g>
   <g id="patch_78">
    <path d="M 201.985837 307.584 
L 203.694545 307.584 
L 203.694545 291.786364 
L 201.985837 291.786364 
z
" clip-path="url(#pc2e1bf7bd4)" style="fill: #1f77b4"/>
   </g>
   <g id="patch_79">
    <path d="M 203.694545 307.584 
L 205.403254 307.584 
L 205.403254 293.89636 
L 203.694545 293.89636 
z
" clip-path="url(#pc2e1bf7bd4)" style="fill: #1f77b4"/>
   </g>
   <g id="patch_80">
    <path d="M 205.403254 307.584 
L 207.111962 307.584 
L 207.111962 296.017288 
L 205.403254 296.017288 
z
" clip-path="url(#pc2e1bf7bd4)" style="fill: #1f77b4"/>
   </g>
   <g id="patch_81">
    <path d="M 207.111962 307.584 
L 208.82067 307.584 
L 208.82067 297.843035 
L 207.111962 297.843035 
z
" clip-path="url(#pc2e1bf7bd4)" style="fill: #1f77b4"/>
   </g>
   <g id="patch_82">
    <path d="M 208.82067 307.584 
L 210.529378 307.584 
L 210.529378 299.395468 
L 208.82067 299.395468 
z
" clip-path="url(#pc2e1bf7bd4)" style="fill: #1f77b4"/>
   </g>
   <g id="patch_83">
    <path d="M 210.529378 307.584 
L 212.238086 307.584 
L 212.238086 300.751112 
L 210.529378 300.751112 
z
" clip-path="url(#pc2e1bf7bd4)" style="fill: #1f77b4"/>
   </g>
   <g id="patch_84">
    <path d="M 212.238086 307.584 
L 213.946794 307.584 
L 213.946794 301.756913 
L 212.238086 301.756913 
z
" clip-path="url(#pc2e1bf7bd4)" style="fill: #1f77b4"/>
   </g>
   <g id="patch_85">
    <path d="M 213.946794 307.584 
L 215.655502 307.584 
L 215.655502 302.500332 
L 213.946794 302.500332 
z
" clip-path="url(#pc2e1bf7bd4)" style="fill: #1f77b4"/>
   </g>
   <g id="patch_86">
    <path d="M 215.655502 307.584 
L 217.364211 307.584 
L 217.364211 303.057895 
L 215.655502 303.057895 
z
" clip-path="url(#pc2e1bf7bd4)" style="fill: #1f77b4"/>
   </g>
   <g id="patch_87">
    <path d="M 217.364211 307.584 
L 219.072919 307.584 
L 219.072919 303.331211 
L 217.364211 303.331211 
z
" clip-path="url(#pc2e1bf7bd4)" style="fill: #1f77b4"/>
   </g>
   <g id="patch_88">
    <path d="M 219.072919 307.584 
L 220.781627 307.584 
L 220.781627 303.200019 
L 219.072919 303.200019 
z
" clip-path="url(#pc2e1bf7bd4)" style="fill: #1f77b4"/>
   </g>
   <g id="patch_89">
    <path d="M 220.781627 307.584 
L 222.490335 307.584 
L 222.490335 302.893906 
L 220.781627 302.893906 
z
" clip-path="url(#pc2e1bf7bd4)" style="fill: #1f77b4"/>
   </g>
   <g id="patch_90">
    <path d="M 222.490335 307.584 
L 224.199043 307.584 
L 224.199043 302.259814 
L 222.490335 302.259814 
z
" clip-path="url(#pc2e1bf7bd4)" style="fill: #1f77b4"/>
   </g>
   <g id="patch_91">
    <path d="M 224.199043 307.584 
L 225.907751 307.584 
L 225.907751 301.625722 
L 224.199043 301.625722 
z
" clip-path="url(#pc2e1bf7bd4)" style="fill: #1f77b4"/>
   </g>
   <g id="patch_92">
    <path d="M 225.907751 307.584 
L 227.616459 307.584 
L 227.616459 301.002563 
L 225.907751 301.002563 
z
" clip-path="url(#pc2e1bf7bd4)" style="fill: #1f77b4"/>
   </g>
   <g id="patch_93">
    <path d="M 227.616459 307.584 
L 229.325167 307.584 
L 229.325167 300.204481 
L 227.616459 300.204481 
z
" clip-path="url(#pc2e1bf7bd4)" style="fill: #1f77b4"/>
   </g>
   <g id="patch_94">
    <path d="M 229.325167 307.584 
L 231.033876 307.584 
L 231.033876 299.734379 
L 229.325167 299.734379 
z
" clip-path="url(#pc2e1bf7bd4)" style="fill: #1f77b4"/>
   </g>
   <g id="patch_95">
    <path d="M 231.033876 307.584 
L 232.742584 307.584 
L 232.742584 299.340804 
L 231.033876 299.340804 
z
" clip-path="url(#pc2e1bf7bd4)" style="fill: #1f77b4"/>
   </g>
   <g id="patch_96">
    <path d="M 232.742584 307.584 
L 234.451292 307.584 
L 234.451292 299.056556 
L 232.742584 299.056556 
z
" clip-path="url(#pc2e1bf7bd4)" style="fill: #1f77b4"/>
   </g>
   <g id="patch_97">
    <path d="M 234.451292 307.584 
L 236.16 307.584 
L 236.16 306.304883 
L 234.451292 306.304883 
z
" clip-path="url(#pc2e1bf7bd4)" style="fill: #1f77b4"/>
   </g>
   <g id="patch_98">
    <path d="M 236.16 307.584 
L 237.868708 307.584 
L 237.868708 300.259145 
L 236.16 300.259145 
z
" clip-path="url(#pc2e1bf7bd4)" style="fill: #1f77b4"/>
   </g>
   <g id="patch_99">
    <path d="M 237.868708 307.584 
L 239.577416 307.584 
L 239.577416 299.089354 
L 237.868708 299.089354 
z
" clip-path="url(#pc2e1bf7bd4)" style="fill: #1f77b4"/>
   </g>
   <g id="patch_100">
    <path d="M 239.577416 307.584 
L 241.286124 307.584 
L 241.286124 299.428265 
L 239.577416 299.428265 
z
" clip-path="url(#pc2e1bf7bd4)" style="fill: #1f77b4"/>
   </g>
   <g id="patch_101">
    <path d="M 241.286124 307.584 
L 242.994833 307.584 
L 242.994833 300.138886 
L 241.286124 300.138886 
z
" clip-path="url(#pc2e1bf7bd4)" style="fill: #1f77b4"/>
   </g>
   <g id="patch_102">
    <path d="M 242.994833 307.584 
L 244.703541 307.584 
L 244.703541 300.860439 
L 242.994833 300.860439 
z
" clip-path="url(#pc2e1bf7bd4)" style="fill: #1f77b4"/>
   </g>
   <g id="patch_103">
    <path d="M 244.703541 307.584 
L 246.412249 307.584 
L 246.412249 301.592924 
L 244.703541 301.592924 
z
" clip-path="url(#pc2e1bf7bd4)" style="fill: #1f77b4"/>
   </g>
   <g id="patch_104">
    <path d="M 246.412249 307.584 
L 248.120957 307.584 
L 248.120957 302.347275 
L 246.412249 302.347275 
z
" clip-path="url(#pc2e1bf7bd4)" style="fill: #1f77b4"/>
   </g>
   <g id="patch_105">
    <path d="M 248.120957 307.584 
L 249.829665 307.584 
L 249.829665 302.981367 
L 248.120957 302.981367 
z
" clip-path="url(#pc2e1bf7bd4)" style="fill: #1f77b4"/>
   </g>
   <g id="patch_106">
    <path d="M 249.829665 307.584 
L 251.538373 307.584 
L 251.538373 303.768516 
L 249.829665 303.768516 
z
" clip-path="url(#pc2e1bf7bd4)" style="fill: #1f77b4"/>
   </g>
   <g id="patch_107">
    <path d="M 251.538373 307.584 
L 253.247081 307.584 
L 253.247081 304.391675 
L 251.538373 304.391675 
z
" clip-path="url(#pc2e1bf7bd4)" style="fill: #1f77b4"/>
   </g>
   <g id="patch_108">
    <path d="M 253.247081 307.584 
L 254.955789 307.584 
L 254.955789 304.960171 
L 253.247081 304.960171 
z
" clip-path="url(#pc2e1bf7bd4)" style="fill: #1f77b4"/>
   </g>
   <g id="patch_109">
    <path d="M 254.955789 307.584 
L 256.664498 307.584 
L 256.664498 305.452139 
L 254.955789 305.452139 
z
" clip-path="url(#pc2e1bf7bd4)" style="fill: #1f77b4"/>
   </g>
   <g id="patch_110">
    <path d="M 256.664498 307.584 
L 258.373206 307.584 
L 258.373206 305.769185 
L 256.664498 305.769185 
z
" clip-path="url(#pc2e1bf7bd4)" style="fill: #1f77b4"/>
   </g>
   <g id="patch_111">
    <path d="M 258.373206 307.584 
L 260.081914 307.584 
L 260.081914 306.053433 
L 258.373206 306.053433 
z
" clip-path="url(#pc2e1bf7bd4)" style="fill: #1f77b4"/>
   </g>
   <g id="patch_112">
    <path d="M 260.081914 307.584 
L 261.790622 307.584 
L 261.790622 306.140894 
L 260.081914 306.140894 
z
" clip-path="url(#pc2e1bf7bd4)" style="fill: #1f77b4"/>
   </g>
   <g id="patch_113">
    <path d="M 261.790622 307.584 
L 263.49933 307.584 
L 263.49933 306.173692 
L 261.790622 306.173692 
z
" clip-path="url(#pc2e1bf7bd4)" style="fill: #1f77b4"/>
   </g>
   <g id="patch_114">
    <path d="M 263.49933 307.584 
L 265.208038 307.584 
L 265.208038 306.25022 
L 263.49933 306.25022 
z
" clip-path="url(#pc2e1bf7bd4)" style="fill: #1f77b4"/>
   </g>
   <g id="patch_115">
    <path d="M 265.208038 307.584 
L 266.916746 307.584 
L 266.916746 306.239288 
L 265.208038 306.239288 
z
" clip-path="url(#pc2e1bf7bd4)" style="fill: #1f77b4"/>
   </g>
   <g id="patch_116">
    <path d="M 266.916746 307.584 
L 268.625455 307.584 
L 268.625455 306.151827 
L 266.916746 306.151827 
z
" clip-path="url(#pc2e1bf7bd4)" style="fill: #1f77b4"/>
   </g>
   <g id="patch_117">
    <path d="M 268.625455 307.584 
L 270.334163 307.584 
L 270.334163 306.020635 
L 268.625455 306.020635 
z
" clip-path="url(#pc2e1bf7bd4)" style="fill: #1f77b4"/>
   </g>
   <g id="patch_118">
    <path d="M 270.334163 307.584 
L 272.042871 307.584 
L 272.042871 305.922242 
L 270.334163 305.922242 
z
" clip-path="url(#pc2e1bf7bd4)" style="fill: #1f77b4"/>
   </g>
   <g id="patch_119">
    <path d="M 272.042871 307.584 
L 273.751579 307.584 
L 273.751579 305.736387 
L 272.042871 305.736387 
z
" clip-path="url(#pc2e1bf7bd4)" style="fill: #1f77b4"/>
   </g>
   <g id="patch_120">
    <path d="M 273.751579 307.584 
L 275.460287 307.584 
L 275.460287 305.648926 
L 273.751579 305.648926 
z
" clip-path="url(#pc2e1bf7bd4)" style="fill: #1f77b4"/>
   </g>
   <g id="patch_121">
    <path d="M 275.460287 307.584 
L 277.168995 307.584 
L 277.168995 305.561465 
L 275.460287 305.561465 
z
" clip-path="url(#pc2e1bf7bd4)" style="fill: #1f77b4"/>
   </g>
   <g id="patch_122">
    <path d="M 277.168995 307.584 
L 278.877703 307.584 
L 278.877703 305.452139 
L 277.168995 305.452139 
z
" clip-path="url(#pc2e1bf7bd4)" style="fill: #1f77b4"/>
   </g>
   <g id="patch_123">
    <path d="M 278.877703 307.584 
L 280.586411 307.584 
L 280.586411 305.474004 
L 278.877703 305.474004 
z
" clip-path="url(#pc2e1bf7bd4)" style="fill: #1f77b4"/>
   </g>
   <g id="patch_124">
    <path d="M 280.586411 307.584 
L 282.29512 307.584 
L 282.29512 305.49587 
L 280.586411 305.49587 
z
" clip-path="url(#pc2e1bf7bd4)" style="fill: #1f77b4"/>
   </g>
   <g id="patch_125">
    <path d="M 282.29512 307.584 
L 284.003828 307.584 
L 284.003828 305.616128 
L 282.29512 305.616128 
z
" clip-path="url(#pc2e1bf7bd4)" style="fill: #1f77b4"/>
   </g>
   <g id="patch_126">
    <path d="M 284.003828 307.584 
L 285.712536 307.584 
L 285.712536 305.703589 
L 284.003828 305.703589 
z
" clip-path="url(#pc2e1bf7bd4)" style="fill: #1f77b4"/>
   </g>
   <g id="patch_127">
    <path d="M 285.712536 307.584 
L 287.421244 307.584 
L 287.421244 305.911309 
L 285.712536 305.911309 
z
" clip-path="url(#pc2e1bf7bd4)" style="fill: #1f77b4"/>
   </g>
   <g id="patch_128">
    <path d="M 287.421244 307.584 
L 289.129952 307.584 
L 289.129952 306.173692 
L 287.421244 306.173692 
z
" clip-path="url(#pc2e1bf7bd4)" style="fill: #1f77b4"/>
   </g>
   <g id="patch_129">
    <path d="M 289.129952 307.584 
L 290.83866 307.584 
L 290.83866 306.283018 
L 289.129952 306.283018 
z
" clip-path="url(#pc2e1bf7bd4)" style="fill: #1f77b4"/>
   </g>
   <g id="patch_130">
    <path d="M 290.83866 307.584 
L 292.547368 307.584 
L 292.547368 306.512603 
L 290.83866 306.512603 
z
" clip-path="url(#pc2e1bf7bd4)" style="fill: #1f77b4"/>
   </g>
   <g id="patch_131">
    <path d="M 292.547368 307.584 
L 294.256077 307.584 
L 294.256077 306.731256 
L 292.547368 306.731256 
z
" clip-path="url(#pc2e1bf7bd4)" style="fill: #1f77b4"/>
   </g>
   <g id="patch_132">
    <path d="M 294.256077 307.584 
L 295.964785 307.584 
L 295.964785 306.818717 
L 294.256077 306.818717 
z
" clip-path="url(#pc2e1bf7bd4)" style="fill: #1f77b4"/>
   </g>
   <g id="patch_133">
    <path d="M 295.964785 307.584 
L 297.673493 307.584 
L 297.673493 306.949908 
L 295.964785 306.949908 
z
" clip-path="url(#pc2e1bf7bd4)" style="fill: #1f77b4"/>
   </g>
   <g id="patch_134">
    <path d="M 297.673493 307.584 
L 299.382201 307.584 
L 299.382201 307.048302 
L 297.673493 307.048302 
z
" clip-path="url(#pc2e1bf7bd4)" style="fill: #1f77b4"/>
   </g>
   <g id="patch_135">
    <path d="M 299.382201 307.584 
L 301.090909 307.584 
L 301.090909 307.102965 
L 299.382201 307.102965 
z
" clip-path="url(#pc2e1bf7bd4)" style="fill: #1f77b4"/>
   </g>
   <g id="patch_136">
    <path d="M 301.090909 307.584 
L 302.799617 307.584 
L 302.799617 307.081099 
L 301.090909 307.081099 
z
" clip-path="url(#pc2e1bf7bd4)" style="fill: #1f77b4"/>
   </g>
   <g id="patch_137">
    <path d="M 302.799617 307.584 
L 304.508325 307.584 
L 304.508325 307.102965 
L 302.799617 307.102965 
z
" clip-path="url(#pc2e1bf7bd4)" style="fill: #1f77b4"/>
   </g>
   <g id="patch_138">
    <path d="M 304.508325 307.584 
L 306.217033 307.584 
L 306.217033 307.135763 
L 304.508325 307.135763 
z
" clip-path="url(#pc2e1bf7bd4)" style="fill: #1f77b4"/>
   </g>
   <g id="patch_139">
    <path d="M 306.217033 307.584 
L 307.925742 307.584 
L 307.925742 307.102965 
L 306.217033 307.102965 
z
" clip-path="url(#pc2e1bf7bd4)" style="fill: #1f77b4"/>
   </g>
   <g id="patch_140">
    <path d="M 307.925742 307.584 
L 309.63445 307.584 
L 309.63445 307.113897 
L 307.925742 307.113897 
z
" clip-path="url(#pc2e1bf7bd4)" style="fill: #1f77b4"/>
   </g>
   <g id="patch_141">
    <path d="M 309.63445 307.584 
L 311.343158 307.584 
L 311.343158 307.081099 
L 309.63445 307.081099 
z
" clip-path="url(#pc2e1bf7bd4)" style="fill: #1f77b4"/>
   </g>
   <g id="patch_142">
    <path d="M 311.343158 307.584 
L 313.051866 307.584 
L 313.051866 307.059234 
L 311.343158 307.059234 
z
" clip-path="url(#pc2e1bf7bd4)" style="fill: #1f77b4"/>
   </g>
   <g id="patch_143">
    <path d="M 313.051866 307.584 
L 314.760574 307.584 
L 314.760574 307.015504 
L 313.051866 307.015504 
z
" clip-path="url(#pc2e1bf7bd4)" style="fill: #1f77b4"/>
   </g>
   <g id="patch_144">
    <path d="M 314.760574 307.584 
L 316.469282 307.584 
L 316.469282 306.960841 
L 314.760574 306.960841 
z
" clip-path="url(#pc2e1bf7bd4)" style="fill: #1f77b4"/>
   </g>
   <g id="patch_145">
    <path d="M 316.469282 307.584 
L 318.17799 307.584 
L 318.17799 306.928043 
L 316.469282 306.928043 
z
" clip-path="url(#pc2e1bf7bd4)" style="fill: #1f77b4"/>
   </g>
   <g id="patch_146">
    <path d="M 318.17799 307.584 
L 319.886699 307.584 
L 319.886699 306.906178 
L 318.17799 306.906178 
z
" clip-path="url(#pc2e1bf7bd4)" style="fill: #1f77b4"/>
   </g>
   <g id="patch_147">
    <path d="M 319.886699 307.584 
L 321.595407 307.584 
L 321.595407 306.906178 
L 319.886699 306.906178 
z
" clip-path="url(#pc2e1bf7bd4)" style="fill: #1f77b4"/>
   </g>
   <g id="patch_148">
    <path d="M 321.595407 307.584 
L 323.304115 307.584 
L 323.304115 306.895245 
L 321.595407 306.895245 
z
" clip-path="url(#pc2e1bf7bd4)" style="fill: #1f77b4"/>
   </g>
   <g id="patch_149">
    <path d="M 323.304115 307.584 
L 325.012823 307.584 
L 325.012823 306.895245 
L 323.304115 306.895245 
z
" clip-path="url(#pc2e1bf7bd4)" style="fill: #1f77b4"/>
   </g>
   <g id="patch_150">
    <path d="M 325.012823 307.584 
L 326.721531 307.584 
L 326.721531 306.91711 
L 325.012823 306.91711 
z
" clip-path="url(#pc2e1bf7bd4)" style="fill: #1f77b4"/>
   </g>
   <g id="patch_151">
    <path d="M 326.721531 307.584 
L 328.430239 307.584 
L 328.430239 306.993639 
L 326.721531 306.993639 
z
" clip-path="url(#pc2e1bf7bd4)" style="fill: #1f77b4"/>
   </g>
   <g id="patch_152">
    <path d="M 328.430239 307.584 
L 330.138947 307.584 
L 330.138947 307.026436 
L 328.430239 307.026436 
z
" clip-path="url(#pc2e1bf7bd4)" style="fill: #1f77b4"/>
   </g>
   <g id="patch_153">
    <path d="M 330.138947 307.584 
L 331.847656 307.584 
L 331.847656 307.037369 
L 330.138947 307.037369 
z
" clip-path="url(#pc2e1bf7bd4)" style="fill: #1f77b4"/>
   </g>
   <g id="patch_154">
    <path d="M 331.847656 307.584 
L 333.556364 307.584 
L 333.556364 307.092032 
L 331.847656 307.092032 
z
" clip-path="url(#pc2e1bf7bd4)" style="fill: #1f77b4"/>
   </g>
   <g id="patch_155">
    <path d="M 333.556364 307.584 
L 335.265072 307.584 
L 335.265072 307.157628 
L 333.556364 307.157628 
z
" clip-path="url(#pc2e1bf7bd4)" style="fill: #1f77b4"/>
   </g>
   <g id="patch_156">
    <path d="M 335.265072 307.584 
L 336.97378 307.584 
L 336.97378 307.245089 
L 335.265072 307.245089 
z
" clip-path="url(#pc2e1bf7bd4)" style="fill: #1f77b4"/>
   </g>
   <g id="patch_157">
    <path d="M 336.97378 307.584 
L 338.682488 307.584 
L 338.682488 307.256021 
L 336.97378 307.256021 
z
" clip-path="url(#pc2e1bf7bd4)" style="fill: #1f77b4"/>
   </g>
   <g id="patch_158">
    <path d="M 338.682488 307.584 
L 340.391196 307.584 
L 340.391196 307.343482 
L 338.682488 307.343482 
z
" clip-path="url(#pc2e1bf7bd4)" style="fill: #1f77b4"/>
   </g>
   <g id="patch_159">
    <path d="M 340.391196 307.584 
L 342.099904 307.584 
L 342.099904 307.343482 
L 340.391196 307.343482 
z
" clip-path="url(#pc2e1bf7bd4)" style="fill: #1f77b4"/>
   </g>
   <g id="patch_160">
    <path d="M 342.099904 307.584 
L 343.808612 307.584 
L 343.808612 307.365348 
L 342.099904 307.365348 
z
" clip-path="url(#pc2e1bf7bd4)" style="fill: #1f77b4"/>
   </g>
   <g id="patch_161">
    <path d="M 343.808612 307.584 
L 345.517321 307.584 
L 345.517321 307.398145 
L 343.808612 307.398145 
z
" clip-path="url(#pc2e1bf7bd4)" style="fill: #1f77b4"/>
   </g>
   <g id="patch_162">
    <path d="M 345.517321 307.584 
L 347.226029 307.584 
L 347.226029 307.354415 
L 345.517321 307.354415 
z
" clip-path="url(#pc2e1bf7bd4)" style="fill: #1f77b4"/>
   </g>
   <g id="patch_163">
    <path d="M 347.226029 307.584 
L 348.934737 307.584 
L 348.934737 307.343482 
L 347.226029 307.343482 
z
" clip-path="url(#pc2e1bf7bd4)" style="fill: #1f77b4"/>
   </g>
   <g id="patch_164">
    <path d="M 348.934737 307.584 
L 350.643445 307.584 
L 350.643445 307.343482 
L 348.934737 307.343482 
z
" clip-path="url(#pc2e1bf7bd4)" style="fill: #1f77b4"/>
   </g>
   <g id="patch_165">
    <path d="M 350.643445 307.584 
L 352.352153 307.584 
L 352.352153 307.343482 
L 350.643445 307.343482 
z
" clip-path="url(#pc2e1bf7bd4)" style="fill: #1f77b4"/>
   </g>
   <g id="patch_166">
    <path d="M 352.352153 307.584 
L 354.060861 307.584 
L 354.060861 307.354415 
L 352.352153 307.354415 
z
" clip-path="url(#pc2e1bf7bd4)" style="fill: #1f77b4"/>
   </g>
   <g id="patch_167">
    <path d="M 354.060861 307.584 
L 355.769569 307.584 
L 355.769569 307.343482 
L 354.060861 307.343482 
z
" clip-path="url(#pc2e1bf7bd4)" style="fill: #1f77b4"/>
   </g>
   <g id="patch_168">
    <path d="M 355.769569 307.584 
L 357.478278 307.584 
L 357.478278 307.354415 
L 355.769569 307.354415 
z
" clip-path="url(#pc2e1bf7bd4)" style="fill: #1f77b4"/>
   </g>
   <g id="patch_169">
    <path d="M 357.478278 307.584 
L 359.186986 307.584 
L 359.186986 307.365348 
L 357.478278 307.365348 
z
" clip-path="url(#pc2e1bf7bd4)" style="fill: #1f77b4"/>
   </g>
   <g id="patch_170">
    <path d="M 359.186986 307.584 
L 360.895694 307.584 
L 360.895694 307.37628 
L 359.186986 307.37628 
z
" clip-path="url(#pc2e1bf7bd4)" style="fill: #1f77b4"/>
   </g>
   <g id="patch_171">
    <path d="M 360.895694 307.584 
L 362.604402 307.584 
L 362.604402 307.365348 
L 360.895694 307.365348 
z
" clip-path="url(#pc2e1bf7bd4)" style="fill: #1f77b4"/>
   </g>
   <g id="patch_172">
    <path d="M 362.604402 307.584 
L 364.31311 307.584 
L 364.31311 307.398145 
L 362.604402 307.398145 
z
" clip-path="url(#pc2e1bf7bd4)" style="fill: #1f77b4"/>
   </g>
   <g id="patch_173">
    <path d="M 364.31311 307.584 
L 366.021818 307.584 
L 366.021818 307.398145 
L 364.31311 307.398145 
z
" clip-path="url(#pc2e1bf7bd4)" style="fill: #1f77b4"/>
   </g>
   <g id="patch_174">
    <path d="M 366.021818 307.584 
L 367.730526 307.584 
L 367.730526 307.37628 
L 366.021818 307.37628 
z
" clip-path="url(#pc2e1bf7bd4)" style="fill: #1f77b4"/>
   </g>
   <g id="patch_175">
    <path d="M 367.730526 307.584 
L 369.439234 307.584 
L 369.439234 307.37628 
L 367.730526 307.37628 
z
" clip-path="url(#pc2e1bf7bd4)" style="fill: #1f77b4"/>
   </g>
   <g id="patch_176">
    <path d="M 369.439234 307.584 
L 371.147943 307.584 
L 371.147943 307.398145 
L 369.439234 307.398145 
z
" clip-path="url(#pc2e1bf7bd4)" style="fill: #1f77b4"/>
   </g>
   <g id="patch_177">
    <path d="M 371.147943 307.584 
L 372.856651 307.584 
L 372.856651 307.430943 
L 371.147943 307.430943 
z
" clip-path="url(#pc2e1bf7bd4)" style="fill: #1f77b4"/>
   </g>
   <g id="patch_178">
    <path d="M 372.856651 307.584 
L 374.565359 307.584 
L 374.565359 307.441876 
L 372.856651 307.441876 
z
" clip-path="url(#pc2e1bf7bd4)" style="fill: #1f77b4"/>
   </g>
   <g id="patch_179">
    <path d="M 374.565359 307.584 
L 376.274067 307.584 
L 376.274067 307.441876 
L 374.565359 307.441876 
z
" clip-path="url(#pc2e1bf7bd4)" style="fill: #1f77b4"/>
   </g>
   <g id="patch_180">
    <path d="M 376.274067 307.584 
L 377.982775 307.584 
L 377.982775 307.441876 
L 376.274067 307.441876 
z
" clip-path="url(#pc2e1bf7bd4)" style="fill: #1f77b4"/>
   </g>
   <g id="patch_181">
    <path d="M 377.982775 307.584 
L 379.691483 307.584 
L 379.691483 307.452809 
L 377.982775 307.452809 
z
" clip-path="url(#pc2e1bf7bd4)" style="fill: #1f77b4"/>
   </g>
   <g id="patch_182">
    <path d="M 379.691483 307.584 
L 381.400191 307.584 
L 381.400191 307.463741 
L 379.691483 307.463741 
z
" clip-path="url(#pc2e1bf7bd4)" style="fill: #1f77b4"/>
   </g>
   <g id="patch_183">
    <path d="M 381.400191 307.584 
L 383.1089 307.584 
L 383.1089 307.485606 
L 381.400191 307.485606 
z
" clip-path="url(#pc2e1bf7bd4)" style="fill: #1f77b4"/>
   </g>
   <g id="patch_184">
    <path d="M 383.1089 307.584 
L 384.817608 307.584 
L 384.817608 307.507472 
L 383.1089 307.507472 
z
" clip-path="url(#pc2e1bf7bd4)" style="fill: #1f77b4"/>
   </g>
   <g id="patch_185">
    <path d="M 384.817608 307.584 
L 386.526316 307.584 
L 386.526316 307.529337 
L 384.817608 307.529337 
z
" clip-path="url(#pc2e1bf7bd4)" style="fill: #1f77b4"/>
   </g>
   <g id="patch_186">
    <path d="M 386.526316 307.584 
L 388.235024 307.584 
L 388.235024 307.551202 
L 386.526316 307.551202 
z
" clip-path="url(#pc2e1bf7bd4)" style="fill: #1f77b4"/>
   </g>
   <g id="patch_187">
    <path d="M 388.235024 307.584 
L 389.943732 307.584 
L 389.943732 307.562135 
L 388.235024 307.562135 
z
" clip-path="url(#pc2e1bf7bd4)" style="fill: #1f77b4"/>
   </g>
   <g id="patch_188">
    <path d="M 389.943732 307.584 
L 391.65244 307.584 
L 391.65244 307.562135 
L 389.943732 307.562135 
z
" clip-path="url(#pc2e1bf7bd4)" style="fill: #1f77b4"/>
   </g>
   <g id="patch_189">
    <path d="M 391.65244 307.584 
L 393.361148 307.584 
L 393.361148 307.562135 
L 391.65244 307.562135 
z
" clip-path="url(#pc2e1bf7bd4)" style="fill: #1f77b4"/>
   </g>
   <g id="patch_190">
    <path d="M 393.361148 307.584 
L 395.069856 307.584 
L 395.069856 307.573067 
L 393.361148 307.573067 
z
" clip-path="url(#pc2e1bf7bd4)" style="fill: #1f77b4"/>
   </g>
   <g id="patch_191">
    <path d="M 395.069856 307.584 
L 396.778565 307.584 
L 396.778565 307.573067 
L 395.069856 307.573067 
z
" clip-path="url(#pc2e1bf7bd4)" style="fill: #1f77b4"/>
   </g>
   <g id="patch_192">
    <path d="M 396.778565 307.584 
L 398.487273 307.584 
L 398.487273 307.573067 
L 396.778565 307.573067 
z
" clip-path="url(#pc2e1bf7bd4)" style="fill: #1f77b4"/>
   </g>
   <g id="matplotlib.axis_1">
    <g id="xtick_1">
     <g id="line2d_1">
      <defs>
       <path id="m10b684ac36" d="M 0 0 
L 0 3.5 
" style="stroke: #000000; stroke-width: 0.8"/>
      </defs>
      <g>
       <use xlink:href="#m10b684ac36" x="72.105842" y="307.584" style="stroke: #000000; stroke-width: 0.8"/>
      </g>
     </g>
     <g id="text_1">
      <!-- 0 -->
      <g transform="translate(68.924592 322.182437) scale(0.1 -0.1)">
       <defs>
        <path id="DejaVuSans-30" d="M 2034 4250 
Q 1547 4250 1301 3770 
Q 1056 3291 1056 2328 
Q 1056 1369 1301 889 
Q 1547 409 2034 409 
Q 2525 409 2770 889 
Q 3016 1369 3016 2328 
Q 3016 3291 2770 3770 
Q 2525 4250 2034 4250 
z
M 2034 4750 
Q 2819 4750 3233 4129 
Q 3647 3509 3647 2328 
Q 3647 1150 3233 529 
Q 2819 -91 2034 -91 
Q 1250 -91 836 529 
Q 422 1150 422 2328 
Q 422 3509 836 4129 
Q 1250 4750 2034 4750 
z
" transform="scale(0.015625)"/>
       </defs>
       <use xlink:href="#DejaVuSans-30"/>
      </g>
     </g>
    </g>
    <g id="xtick_2">
     <g id="line2d_2">
      <g>
       <use xlink:href="#m10b684ac36" x="120.579831" y="307.584" style="stroke: #000000; stroke-width: 0.8"/>
      </g>
     </g>
     <g id="text_2">
      <!-- 200 -->
      <g transform="translate(111.036081 322.182437) scale(0.1 -0.1)">
       <defs>
        <path id="DejaVuSans-32" d="M 1228 531 
L 3431 531 
L 3431 0 
L 469 0 
L 469 531 
Q 828 903 1448 1529 
Q 2069 2156 2228 2338 
Q 2531 2678 2651 2914 
Q 2772 3150 2772 3378 
Q 2772 3750 2511 3984 
Q 2250 4219 1831 4219 
Q 1534 4219 1204 4116 
Q 875 4013 500 3803 
L 500 4441 
Q 881 4594 1212 4672 
Q 1544 4750 1819 4750 
Q 2544 4750 2975 4387 
Q 3406 4025 3406 3419 
Q 3406 3131 3298 2873 
Q 3191 2616 2906 2266 
Q 2828 2175 2409 1742 
Q 1991 1309 1228 531 
z
" transform="scale(0.015625)"/>
       </defs>
       <use xlink:href="#DejaVuSans-32"/>
       <use xlink:href="#DejaVuSans-30" transform="translate(63.623047 0)"/>
       <use xlink:href="#DejaVuSans-30" transform="translate(127.246094 0)"/>
      </g>
     </g>
    </g>
    <g id="xtick_3">
     <g id="line2d_3">
      <g>
       <use xlink:href="#m10b684ac36" x="169.053821" y="307.584" style="stroke: #000000; stroke-width: 0.8"/>
      </g>
     </g>
     <g id="text_3">
      <!-- 400 -->
      <g transform="translate(159.510071 322.182437) scale(0.1 -0.1)">
       <defs>
        <path id="DejaVuSans-34" d="M 2419 4116 
L 825 1625 
L 2419 1625 
L 2419 4116 
z
M 2253 4666 
L 3047 4666 
L 3047 1625 
L 3713 1625 
L 3713 1100 
L 3047 1100 
L 3047 0 
L 2419 0 
L 2419 1100 
L 313 1100 
L 313 1709 
L 2253 4666 
z
" transform="scale(0.015625)"/>
       </defs>
       <use xlink:href="#DejaVuSans-34"/>
       <use xlink:href="#DejaVuSans-30" transform="translate(63.623047 0)"/>
       <use xlink:href="#DejaVuSans-30" transform="translate(127.246094 0)"/>
      </g>
     </g>
    </g>
    <g id="xtick_4">
     <g id="line2d_4">
      <g>
       <use xlink:href="#m10b684ac36" x="217.52781" y="307.584" style="stroke: #000000; stroke-width: 0.8"/>
      </g>
     </g>
     <g id="text_4">
      <!-- 600 -->
      <g transform="translate(207.98406 322.182437) scale(0.1 -0.1)">
       <defs>
        <path id="DejaVuSans-36" d="M 2113 2584 
Q 1688 2584 1439 2293 
Q 1191 2003 1191 1497 
Q 1191 994 1439 701 
Q 1688 409 2113 409 
Q 2538 409 2786 701 
Q 3034 994 3034 1497 
Q 3034 2003 2786 2293 
Q 2538 2584 2113 2584 
z
M 3366 4563 
L 3366 3988 
Q 3128 4100 2886 4159 
Q 2644 4219 2406 4219 
Q 1781 4219 1451 3797 
Q 1122 3375 1075 2522 
Q 1259 2794 1537 2939 
Q 1816 3084 2150 3084 
Q 2853 3084 3261 2657 
Q 3669 2231 3669 1497 
Q 3669 778 3244 343 
Q 2819 -91 2113 -91 
Q 1303 -91 875 529 
Q 447 1150 447 2328 
Q 447 3434 972 4092 
Q 1497 4750 2381 4750 
Q 2619 4750 2861 4703 
Q 3103 4656 3366 4563 
z
" transform="scale(0.015625)"/>
       </defs>
       <use xlink:href="#DejaVuSans-36"/>
       <use xlink:href="#DejaVuSans-30" transform="translate(63.623047 0)"/>
       <use xlink:href="#DejaVuSans-30" transform="translate(127.246094 0)"/>
      </g>
     </g>
    </g>
    <g id="xtick_5">
     <g id="line2d_5">
      <g>
       <use xlink:href="#m10b684ac36" x="266.0018" y="307.584" style="stroke: #000000; stroke-width: 0.8"/>
      </g>
     </g>
     <g id="text_5">
      <!-- 800 -->
      <g transform="translate(256.45805 322.182437) scale(0.1 -0.1)">
       <defs>
        <path id="DejaVuSans-38" d="M 2034 2216 
Q 1584 2216 1326 1975 
Q 1069 1734 1069 1313 
Q 1069 891 1326 650 
Q 1584 409 2034 409 
Q 2484 409 2743 651 
Q 3003 894 3003 1313 
Q 3003 1734 2745 1975 
Q 2488 2216 2034 2216 
z
M 1403 2484 
Q 997 2584 770 2862 
Q 544 3141 544 3541 
Q 544 4100 942 4425 
Q 1341 4750 2034 4750 
Q 2731 4750 3128 4425 
Q 3525 4100 3525 3541 
Q 3525 3141 3298 2862 
Q 3072 2584 2669 2484 
Q 3125 2378 3379 2068 
Q 3634 1759 3634 1313 
Q 3634 634 3220 271 
Q 2806 -91 2034 -91 
Q 1263 -91 848 271 
Q 434 634 434 1313 
Q 434 1759 690 2068 
Q 947 2378 1403 2484 
z
M 1172 3481 
Q 1172 3119 1398 2916 
Q 1625 2713 2034 2713 
Q 2441 2713 2670 2916 
Q 2900 3119 2900 3481 
Q 2900 3844 2670 4047 
Q 2441 4250 2034 4250 
Q 1625 4250 1398 4047 
Q 1172 3844 1172 3481 
z
" transform="scale(0.015625)"/>
       </defs>
       <use xlink:href="#DejaVuSans-38"/>
       <use xlink:href="#DejaVuSans-30" transform="translate(63.623047 0)"/>
       <use xlink:href="#DejaVuSans-30" transform="translate(127.246094 0)"/>
      </g>
     </g>
    </g>
    <g id="xtick_6">
     <g id="line2d_6">
      <g>
       <use xlink:href="#m10b684ac36" x="314.475789" y="307.584" style="stroke: #000000; stroke-width: 0.8"/>
      </g>
     </g>
     <g id="text_6">
      <!-- 1000 -->
      <g transform="translate(301.750789 322.182437) scale(0.1 -0.1)">
       <defs>
        <path id="DejaVuSans-31" d="M 794 531 
L 1825 531 
L 1825 4091 
L 703 3866 
L 703 4441 
L 1819 4666 
L 2450 4666 
L 2450 531 
L 3481 531 
L 3481 0 
L 794 0 
L 794 531 
z
" transform="scale(0.015625)"/>
       </defs>
       <use xlink:href="#DejaVuSans-31"/>
       <use xlink:href="#DejaVuSans-30" transform="translate(63.623047 0)"/>
       <use xlink:href="#DejaVuSans-30" transform="translate(127.246094 0)"/>
       <use xlink:href="#DejaVuSans-30" transform="translate(190.869141 0)"/>
      </g>
     </g>
    </g>
    <g id="xtick_7">
     <g id="line2d_7">
      <g>
       <use xlink:href="#m10b684ac36" x="362.949779" y="307.584" style="stroke: #000000; stroke-width: 0.8"/>
      </g>
     </g>
     <g id="text_7">
      <!-- 1200 -->
      <g transform="translate(350.224779 322.182437) scale(0.1 -0.1)">
       <use xlink:href="#DejaVuSans-31"/>
       <use xlink:href="#DejaVuSans-32" transform="translate(63.623047 0)"/>
       <use xlink:href="#DejaVuSans-30" transform="translate(127.246094 0)"/>
       <use xlink:href="#DejaVuSans-30" transform="translate(190.869141 0)"/>
      </g>
     </g>
    </g>
    <g id="xtick_8">
     <g id="line2d_8">
      <g>
       <use xlink:href="#m10b684ac36" x="411.423769" y="307.584" style="stroke: #000000; stroke-width: 0.8"/>
      </g>
     </g>
     <g id="text_8">
      <!-- 1400 -->
      <g transform="translate(398.698769 322.182437) scale(0.1 -0.1)">
       <use xlink:href="#DejaVuSans-31"/>
       <use xlink:href="#DejaVuSans-34" transform="translate(63.623047 0)"/>
       <use xlink:href="#DejaVuSans-30" transform="translate(127.246094 0)"/>
       <use xlink:href="#DejaVuSans-30" transform="translate(190.869141 0)"/>
      </g>
     </g>
    </g>
    <g id="text_9">
     <!-- pairwise intra-class distances [Å] -->
     <g transform="translate(153.584219 337.544938) scale(0.1 -0.1)">
      <defs>
       <path id="DejaVuSans-70" d="M 1159 525 
L 1159 -1331 
L 581 -1331 
L 581 3500 
L 1159 3500 
L 1159 2969 
Q 1341 3281 1617 3432 
Q 1894 3584 2278 3584 
Q 2916 3584 3314 3078 
Q 3713 2572 3713 1747 
Q 3713 922 3314 415 
Q 2916 -91 2278 -91 
Q 1894 -91 1617 61 
Q 1341 213 1159 525 
z
M 3116 1747 
Q 3116 2381 2855 2742 
Q 2594 3103 2138 3103 
Q 1681 3103 1420 2742 
Q 1159 2381 1159 1747 
Q 1159 1113 1420 752 
Q 1681 391 2138 391 
Q 2594 391 2855 752 
Q 3116 1113 3116 1747 
z
" transform="scale(0.015625)"/>
       <path id="DejaVuSans-61" d="M 2194 1759 
Q 1497 1759 1228 1600 
Q 959 1441 959 1056 
Q 959 750 1161 570 
Q 1363 391 1709 391 
Q 2188 391 2477 730 
Q 2766 1069 2766 1631 
L 2766 1759 
L 2194 1759 
z
M 3341 1997 
L 3341 0 
L 2766 0 
L 2766 531 
Q 2569 213 2275 61 
Q 1981 -91 1556 -91 
Q 1019 -91 701 211 
Q 384 513 384 1019 
Q 384 1609 779 1909 
Q 1175 2209 1959 2209 
L 2766 2209 
L 2766 2266 
Q 2766 2663 2505 2880 
Q 2244 3097 1772 3097 
Q 1472 3097 1187 3025 
Q 903 2953 641 2809 
L 641 3341 
Q 956 3463 1253 3523 
Q 1550 3584 1831 3584 
Q 2591 3584 2966 3190 
Q 3341 2797 3341 1997 
z
" transform="scale(0.015625)"/>
       <path id="DejaVuSans-69" d="M 603 3500 
L 1178 3500 
L 1178 0 
L 603 0 
L 603 3500 
z
M 603 4863 
L 1178 4863 
L 1178 4134 
L 603 4134 
L 603 4863 
z
" transform="scale(0.015625)"/>
       <path id="DejaVuSans-72" d="M 2631 2963 
Q 2534 3019 2420 3045 
Q 2306 3072 2169 3072 
Q 1681 3072 1420 2755 
Q 1159 2438 1159 1844 
L 1159 0 
L 581 0 
L 581 3500 
L 1159 3500 
L 1159 2956 
Q 1341 3275 1631 3429 
Q 1922 3584 2338 3584 
Q 2397 3584 2469 3576 
Q 2541 3569 2628 3553 
L 2631 2963 
z
" transform="scale(0.015625)"/>
       <path id="DejaVuSans-77" d="M 269 3500 
L 844 3500 
L 1563 769 
L 2278 3500 
L 2956 3500 
L 3675 769 
L 4391 3500 
L 4966 3500 
L 4050 0 
L 3372 0 
L 2619 2869 
L 1863 0 
L 1184 0 
L 269 3500 
z
" transform="scale(0.015625)"/>
       <path id="DejaVuSans-73" d="M 2834 3397 
L 2834 2853 
Q 2591 2978 2328 3040 
Q 2066 3103 1784 3103 
Q 1356 3103 1142 2972 
Q 928 2841 928 2578 
Q 928 2378 1081 2264 
Q 1234 2150 1697 2047 
L 1894 2003 
Q 2506 1872 2764 1633 
Q 3022 1394 3022 966 
Q 3022 478 2636 193 
Q 2250 -91 1575 -91 
Q 1294 -91 989 -36 
Q 684 19 347 128 
L 347 722 
Q 666 556 975 473 
Q 1284 391 1588 391 
Q 1994 391 2212 530 
Q 2431 669 2431 922 
Q 2431 1156 2273 1281 
Q 2116 1406 1581 1522 
L 1381 1569 
Q 847 1681 609 1914 
Q 372 2147 372 2553 
Q 372 3047 722 3315 
Q 1072 3584 1716 3584 
Q 2034 3584 2315 3537 
Q 2597 3491 2834 3397 
z
" transform="scale(0.015625)"/>
       <path id="DejaVuSans-65" d="M 3597 1894 
L 3597 1613 
L 953 1613 
Q 991 1019 1311 708 
Q 1631 397 2203 397 
Q 2534 397 2845 478 
Q 3156 559 3463 722 
L 3463 178 
Q 3153 47 2828 -22 
Q 2503 -91 2169 -91 
Q 1331 -91 842 396 
Q 353 884 353 1716 
Q 353 2575 817 3079 
Q 1281 3584 2069 3584 
Q 2775 3584 3186 3129 
Q 3597 2675 3597 1894 
z
M 3022 2063 
Q 3016 2534 2758 2815 
Q 2500 3097 2075 3097 
Q 1594 3097 1305 2825 
Q 1016 2553 972 2059 
L 3022 2063 
z
" transform="scale(0.015625)"/>
       <path id="DejaVuSans-20" transform="scale(0.015625)"/>
       <path id="DejaVuSans-6e" d="M 3513 2113 
L 3513 0 
L 2938 0 
L 2938 2094 
Q 2938 2591 2744 2837 
Q 2550 3084 2163 3084 
Q 1697 3084 1428 2787 
Q 1159 2491 1159 1978 
L 1159 0 
L 581 0 
L 581 3500 
L 1159 3500 
L 1159 2956 
Q 1366 3272 1645 3428 
Q 1925 3584 2291 3584 
Q 2894 3584 3203 3211 
Q 3513 2838 3513 2113 
z
" transform="scale(0.015625)"/>
       <path id="DejaVuSans-74" d="M 1172 4494 
L 1172 3500 
L 2356 3500 
L 2356 3053 
L 1172 3053 
L 1172 1153 
Q 1172 725 1289 603 
Q 1406 481 1766 481 
L 2356 481 
L 2356 0 
L 1766 0 
Q 1100 0 847 248 
Q 594 497 594 1153 
L 594 3053 
L 172 3053 
L 172 3500 
L 594 3500 
L 594 4494 
L 1172 4494 
z
" transform="scale(0.015625)"/>
       <path id="DejaVuSans-2d" d="M 313 2009 
L 1997 2009 
L 1997 1497 
L 313 1497 
L 313 2009 
z
" transform="scale(0.015625)"/>
       <path id="DejaVuSans-63" d="M 3122 3366 
L 3122 2828 
Q 2878 2963 2633 3030 
Q 2388 3097 2138 3097 
Q 1578 3097 1268 2742 
Q 959 2388 959 1747 
Q 959 1106 1268 751 
Q 1578 397 2138 397 
Q 2388 397 2633 464 
Q 2878 531 3122 666 
L 3122 134 
Q 2881 22 2623 -34 
Q 2366 -91 2075 -91 
Q 1284 -91 818 406 
Q 353 903 353 1747 
Q 353 2603 823 3093 
Q 1294 3584 2113 3584 
Q 2378 3584 2631 3529 
Q 2884 3475 3122 3366 
z
" transform="scale(0.015625)"/>
       <path id="DejaVuSans-6c" d="M 603 4863 
L 1178 4863 
L 1178 0 
L 603 0 
L 603 4863 
z
" transform="scale(0.015625)"/>
       <path id="DejaVuSans-64" d="M 2906 2969 
L 2906 4863 
L 3481 4863 
L 3481 0 
L 2906 0 
L 2906 525 
Q 2725 213 2448 61 
Q 2172 -91 1784 -91 
Q 1150 -91 751 415 
Q 353 922 353 1747 
Q 353 2572 751 3078 
Q 1150 3584 1784 3584 
Q 2172 3584 2448 3432 
Q 2725 3281 2906 2969 
z
M 947 1747 
Q 947 1113 1208 752 
Q 1469 391 1925 391 
Q 2381 391 2643 752 
Q 2906 1113 2906 1747 
Q 2906 2381 2643 2742 
Q 2381 3103 1925 3103 
Q 1469 3103 1208 2742 
Q 947 2381 947 1747 
z
" transform="scale(0.015625)"/>
       <path id="DejaVuSans-5b" d="M 550 4863 
L 1875 4863 
L 1875 4416 
L 1125 4416 
L 1125 -397 
L 1875 -397 
L 1875 -844 
L 550 -844 
L 550 4863 
z
" transform="scale(0.015625)"/>
       <path id="DejaVuSans-c5" d="M 2663 5081 
Q 2663 5278 2523 5417 
Q 2384 5556 2188 5556 
Q 1988 5556 1852 5420 
Q 1716 5284 1716 5081 
Q 1716 4884 1853 4746 
Q 1991 4609 2188 4609 
Q 2384 4609 2523 4746 
Q 2663 4884 2663 5081 
z
M 2188 4044 
L 1338 1722 
L 3041 1722 
L 2188 4044 
z
M 1716 4366 
Q 1525 4494 1428 4673 
Q 1331 4853 1331 5081 
Q 1331 5441 1579 5691 
Q 1828 5941 2188 5941 
Q 2544 5941 2795 5689 
Q 3047 5438 3047 5081 
Q 3047 4863 2948 4678 
Q 2850 4494 2663 4366 
L 4325 0 
L 3669 0 
L 3244 1197 
L 1141 1197 
L 716 0 
L 50 0 
L 1716 4366 
z
" transform="scale(0.015625)"/>
       <path id="DejaVuSans-5d" d="M 1947 4863 
L 1947 -844 
L 622 -844 
L 622 -397 
L 1369 -397 
L 1369 4416 
L 622 4416 
L 622 4863 
L 1947 4863 
z
" transform="scale(0.015625)"/>
      </defs>
      <use xlink:href="#DejaVuSans-70"/>
      <use xlink:href="#DejaVuSans-61" transform="translate(63.476562 0)"/>
      <use xlink:href="#DejaVuSans-69" transform="translate(124.755859 0)"/>
      <use xlink:href="#DejaVuSans-72" transform="translate(152.539062 0)"/>
      <use xlink:href="#DejaVuSans-77" transform="translate(193.652344 0)"/>
      <use xlink:href="#DejaVuSans-69" transform="translate(275.439453 0)"/>
      <use xlink:href="#DejaVuSans-73" transform="translate(303.222656 0)"/>
      <use xlink:href="#DejaVuSans-65" transform="translate(355.322266 0)"/>
      <use xlink:href="#DejaVuSans-20" transform="translate(416.845703 0)"/>
      <use xlink:href="#DejaVuSans-69" transform="translate(448.632812 0)"/>
      <use xlink:href="#DejaVuSans-6e" transform="translate(476.416016 0)"/>
      <use xlink:href="#DejaVuSans-74" transform="translate(539.794922 0)"/>
      <use xlink:href="#DejaVuSans-72" transform="translate(579.003906 0)"/>
      <use xlink:href="#DejaVuSans-61" transform="translate(620.117188 0)"/>
      <use xlink:href="#DejaVuSans-2d" transform="translate(681.396484 0)"/>
      <use xlink:href="#DejaVuSans-63" transform="translate(717.480469 0)"/>
      <use xlink:href="#DejaVuSans-6c" transform="translate(772.460938 0)"/>
      <use xlink:href="#DejaVuSans-61" transform="translate(800.244141 0)"/>
      <use xlink:href="#DejaVuSans-73" transform="translate(861.523438 0)"/>
      <use xlink:href="#DejaVuSans-73" transform="translate(913.623047 0)"/>
      <use xlink:href="#DejaVuSans-20" transform="translate(965.722656 0)"/>
      <use xlink:href="#DejaVuSans-64" transform="translate(997.509766 0)"/>
      <use xlink:href="#DejaVuSans-69" transform="translate(1060.986328 0)"/>
      <use xlink:href="#DejaVuSans-73" transform="translate(1088.769531 0)"/>
      <use xlink:href="#DejaVuSans-74" transform="translate(1140.869141 0)"/>
      <use xlink:href="#DejaVuSans-61" transform="translate(1180.078125 0)"/>
      <use xlink:href="#DejaVuSans-6e" transform="translate(1241.357422 0)"/>
      <use xlink:href="#DejaVuSans-63" transform="translate(1304.736328 0)"/>
      <use xlink:href="#DejaVuSans-65" transform="translate(1359.716797 0)"/>
      <use xlink:href="#DejaVuSans-73" transform="translate(1421.240234 0)"/>
      <use xlink:href="#DejaVuSans-20" transform="translate(1473.339844 0)"/>
      <use xlink:href="#DejaVuSans-5b" transform="translate(1505.126953 0)"/>
      <use xlink:href="#DejaVuSans-c5" transform="translate(1544.140625 0)"/>
      <use xlink:href="#DejaVuSans-5d" transform="translate(1612.548828 0)"/>
     </g>
    </g>
   </g>
   <g id="matplotlib.axis_2">
    <g id="ytick_1">
     <g id="line2d_9">
      <defs>
       <path id="m6b40e8b928" d="M 0 0 
L -3.5 0 
" style="stroke: #000000; stroke-width: 0.8"/>
      </defs>
      <g>
       <use xlink:href="#m6b40e8b928" x="57.6" y="307.584" style="stroke: #000000; stroke-width: 0.8"/>
      </g>
     </g>
     <g id="text_10">
      <!-- 0 -->
      <g transform="translate(44.2375 311.383219) scale(0.1 -0.1)">
       <use xlink:href="#DejaVuSans-30"/>
      </g>
     </g>
    </g>
    <g id="ytick_2">
     <g id="line2d_10">
      <g>
       <use xlink:href="#m6b40e8b928" x="57.6" y="252.920899" style="stroke: #000000; stroke-width: 0.8"/>
      </g>
     </g>
     <g id="text_11">
      <!-- 5000 -->
      <g transform="translate(25.15 256.720118) scale(0.1 -0.1)">
       <defs>
        <path id="DejaVuSans-35" d="M 691 4666 
L 3169 4666 
L 3169 4134 
L 1269 4134 
L 1269 2991 
Q 1406 3038 1543 3061 
Q 1681 3084 1819 3084 
Q 2600 3084 3056 2656 
Q 3513 2228 3513 1497 
Q 3513 744 3044 326 
Q 2575 -91 1722 -91 
Q 1428 -91 1123 -41 
Q 819 9 494 109 
L 494 744 
Q 775 591 1075 516 
Q 1375 441 1709 441 
Q 2250 441 2565 725 
Q 2881 1009 2881 1497 
Q 2881 1984 2565 2268 
Q 2250 2553 1709 2553 
Q 1456 2553 1204 2497 
Q 953 2441 691 2322 
L 691 4666 
z
" transform="scale(0.015625)"/>
       </defs>
       <use xlink:href="#DejaVuSans-35"/>
       <use xlink:href="#DejaVuSans-30" transform="translate(63.623047 0)"/>
       <use xlink:href="#DejaVuSans-30" transform="translate(127.246094 0)"/>
       <use xlink:href="#DejaVuSans-30" transform="translate(190.869141 0)"/>
      </g>
     </g>
    </g>
    <g id="ytick_3">
     <g id="line2d_11">
      <g>
       <use xlink:href="#m6b40e8b928" x="57.6" y="198.257799" style="stroke: #000000; stroke-width: 0.8"/>
      </g>
     </g>
     <g id="text_12">
      <!-- 10000 -->
      <g transform="translate(18.7875 202.057017) scale(0.1 -0.1)">
       <use xlink:href="#DejaVuSans-31"/>
       <use xlink:href="#DejaVuSans-30" transform="translate(63.623047 0)"/>
       <use xlink:href="#DejaVuSans-30" transform="translate(127.246094 0)"/>
       <use xlink:href="#DejaVuSans-30" transform="translate(190.869141 0)"/>
       <use xlink:href="#DejaVuSans-30" transform="translate(254.492188 0)"/>
      </g>
     </g>
    </g>
    <g id="ytick_4">
     <g id="line2d_12">
      <g>
       <use xlink:href="#m6b40e8b928" x="57.6" y="143.594698" style="stroke: #000000; stroke-width: 0.8"/>
      </g>
     </g>
     <g id="text_13">
      <!-- 15000 -->
      <g transform="translate(18.7875 147.393917) scale(0.1 -0.1)">
       <use xlink:href="#DejaVuSans-31"/>
       <use xlink:href="#DejaVuSans-35" transform="translate(63.623047 0)"/>
       <use xlink:href="#DejaVuSans-30" transform="translate(127.246094 0)"/>
       <use xlink:href="#DejaVuSans-30" transform="translate(190.869141 0)"/>
       <use xlink:href="#DejaVuSans-30" transform="translate(254.492188 0)"/>
      </g>
     </g>
    </g>
    <g id="ytick_5">
     <g id="line2d_13">
      <g>
       <use xlink:href="#m6b40e8b928" x="57.6" y="88.931597" style="stroke: #000000; stroke-width: 0.8"/>
      </g>
     </g>
     <g id="text_14">
      <!-- 20000 -->
      <g transform="translate(18.7875 92.730816) scale(0.1 -0.1)">
       <use xlink:href="#DejaVuSans-32"/>
       <use xlink:href="#DejaVuSans-30" transform="translate(63.623047 0)"/>
       <use xlink:href="#DejaVuSans-30" transform="translate(127.246094 0)"/>
       <use xlink:href="#DejaVuSans-30" transform="translate(190.869141 0)"/>
       <use xlink:href="#DejaVuSans-30" transform="translate(254.492188 0)"/>
      </g>
     </g>
    </g>
    <g id="text_15">
     <!-- Counts -->
     <g transform="translate(12.707812 191.981125) rotate(-90) scale(0.1 -0.1)">
      <defs>
       <path id="DejaVuSans-43" d="M 4122 4306 
L 4122 3641 
Q 3803 3938 3442 4084 
Q 3081 4231 2675 4231 
Q 1875 4231 1450 3742 
Q 1025 3253 1025 2328 
Q 1025 1406 1450 917 
Q 1875 428 2675 428 
Q 3081 428 3442 575 
Q 3803 722 4122 1019 
L 4122 359 
Q 3791 134 3420 21 
Q 3050 -91 2638 -91 
Q 1578 -91 968 557 
Q 359 1206 359 2328 
Q 359 3453 968 4101 
Q 1578 4750 2638 4750 
Q 3056 4750 3426 4639 
Q 3797 4528 4122 4306 
z
" transform="scale(0.015625)"/>
       <path id="DejaVuSans-6f" d="M 1959 3097 
Q 1497 3097 1228 2736 
Q 959 2375 959 1747 
Q 959 1119 1226 758 
Q 1494 397 1959 397 
Q 2419 397 2687 759 
Q 2956 1122 2956 1747 
Q 2956 2369 2687 2733 
Q 2419 3097 1959 3097 
z
M 1959 3584 
Q 2709 3584 3137 3096 
Q 3566 2609 3566 1747 
Q 3566 888 3137 398 
Q 2709 -91 1959 -91 
Q 1206 -91 779 398 
Q 353 888 353 1747 
Q 353 2609 779 3096 
Q 1206 3584 1959 3584 
z
" transform="scale(0.015625)"/>
       <path id="DejaVuSans-75" d="M 544 1381 
L 544 3500 
L 1119 3500 
L 1119 1403 
Q 1119 906 1312 657 
Q 1506 409 1894 409 
Q 2359 409 2629 706 
Q 2900 1003 2900 1516 
L 2900 3500 
L 3475 3500 
L 3475 0 
L 2900 0 
L 2900 538 
Q 2691 219 2414 64 
Q 2138 -91 1772 -91 
Q 1169 -91 856 284 
Q 544 659 544 1381 
z
M 1991 3584 
L 1991 3584 
z
" transform="scale(0.015625)"/>
      </defs>
      <use xlink:href="#DejaVuSans-43"/>
      <use xlink:href="#DejaVuSans-6f" transform="translate(69.824219 0)"/>
      <use xlink:href="#DejaVuSans-75" transform="translate(131.005859 0)"/>
      <use xlink:href="#DejaVuSans-6e" transform="translate(194.384766 0)"/>
      <use xlink:href="#DejaVuSans-74" transform="translate(257.763672 0)"/>
      <use xlink:href="#DejaVuSans-73" transform="translate(296.972656 0)"/>
     </g>
    </g>
   </g>
   <g id="line2d_14">
    <path d="M 113.987368 307.584 
L 113.987368 41.472 
" clip-path="url(#pc2e1bf7bd4)" style="fill: none; stroke-dasharray: 3.7,1.6; stroke-dashoffset: 0; stroke: #ff0000; stroke-opacity: 0.7"/>
   </g>
   <g id="line2d_15">
    <defs>
     <path id="m27bd0ef1c3" d="M 0 4 
C 1.060812 4 2.078319 3.578535 2.828427 2.828427 
C 3.578535 2.078319 4 1.060812 4 0 
C 4 -1.060812 3.578535 -2.078319 2.828427 -2.828427 
C 2.078319 -3.578535 1.060812 -4 0 -4 
C -1.060812 -4 -2.078319 -3.578535 -2.828427 -2.828427 
C -3.578535 -2.078319 -4 -1.060812 -4 0 
C -4 1.060812 -3.578535 2.078319 -2.828427 2.828427 
C -2.078319 3.578535 -1.060812 4 0 4 
z
" style="stroke: #ff0000"/>
    </defs>
    <g clip-path="url(#pc2e1bf7bd4)">
     <use xlink:href="#m27bd0ef1c3" x="113.987368" y="203.909963" style="fill: #ff0000; stroke: #ff0000"/>
    </g>
   </g>
   <g id="line2d_16">
    <path d="M 153.287656 307.584 
L 153.287656 41.472 
" clip-path="url(#pc2e1bf7bd4)" style="fill: none; stroke-dasharray: 3.7,1.6; stroke-dashoffset: 0; stroke: #ff0000; stroke-opacity: 0.7"/>
   </g>
   <g id="line2d_17">
    <g clip-path="url(#pc2e1bf7bd4)">
     <use xlink:href="#m27bd0ef1c3" x="153.287656" y="259.939641" style="fill: #ff0000; stroke: #ff0000"/>
    </g>
   </g>
   <g id="patch_193">
    <path d="M 57.6 307.584 
L 57.6 41.472 
" style="fill: none; stroke: #000000; stroke-width: 0.8; stroke-linejoin: miter; stroke-linecap: square"/>
   </g>
   <g id="patch_194">
    <path d="M 414.72 307.584 
L 414.72 41.472 
" style="fill: none; stroke: #000000; stroke-width: 0.8; stroke-linejoin: miter; stroke-linecap: square"/>
   </g>
   <g id="patch_195">
    <path d="M 57.6 307.584 
L 414.72 307.584 
" style="fill: none; stroke: #000000; stroke-width: 0.8; stroke-linejoin: miter; stroke-linecap: square"/>
   </g>
   <g id="patch_196">
    <path d="M 57.6 41.472 
L 414.72 41.472 
" style="fill: none; stroke: #000000; stroke-width: 0.8; stroke-linejoin: miter; stroke-linecap: square"/>
   </g>
   <g id="text_16">
    <!-- n=1: 172.8 Å -->
    <g transform="translate(111.907681 203.909963) rotate(-90) scale(0.1 -0.1)">
     <defs>
      <path id="DejaVuSans-3d" d="M 678 2906 
L 4684 2906 
L 4684 2381 
L 678 2381 
L 678 2906 
z
M 678 1631 
L 4684 1631 
L 4684 1100 
L 678 1100 
L 678 1631 
z
" transform="scale(0.015625)"/>
      <path id="DejaVuSans-3a" d="M 750 794 
L 1409 794 
L 1409 0 
L 750 0 
L 750 794 
z
M 750 3309 
L 1409 3309 
L 1409 2516 
L 750 2516 
L 750 3309 
z
" transform="scale(0.015625)"/>
      <path id="DejaVuSans-37" d="M 525 4666 
L 3525 4666 
L 3525 4397 
L 1831 0 
L 1172 0 
L 2766 4134 
L 525 4134 
L 525 4666 
z
" transform="scale(0.015625)"/>
      <path id="DejaVuSans-2e" d="M 684 794 
L 1344 794 
L 1344 0 
L 684 0 
L 684 794 
z
" transform="scale(0.015625)"/>
     </defs>
     <use xlink:href="#DejaVuSans-6e"/>
     <use xlink:href="#DejaVuSans-3d" transform="translate(63.378906 0)"/>
     <use xlink:href="#DejaVuSans-31" transform="translate(147.167969 0)"/>
     <use xlink:href="#DejaVuSans-3a" transform="translate(210.791016 0)"/>
     <use xlink:href="#DejaVuSans-20" transform="translate(244.482422 0)"/>
     <use xlink:href="#DejaVuSans-31" transform="translate(276.269531 0)"/>
     <use xlink:href="#DejaVuSans-37" transform="translate(339.892578 0)"/>
     <use xlink:href="#DejaVuSans-32" transform="translate(403.515625 0)"/>
     <use xlink:href="#DejaVuSans-2e" transform="translate(467.138672 0)"/>
     <use xlink:href="#DejaVuSans-38" transform="translate(498.925781 0)"/>
     <use xlink:href="#DejaVuSans-20" transform="translate(562.548828 0)"/>
     <use xlink:href="#DejaVuSans-c5" transform="translate(594.335938 0)"/>
    </g>
   </g>
   <g id="text_17">
    <!-- n=2: 334.9 Å -->
    <g transform="translate(151.207968 259.939641) rotate(-90) scale(0.1 -0.1)">
     <defs>
      <path id="DejaVuSans-33" d="M 2597 2516 
Q 3050 2419 3304 2112 
Q 3559 1806 3559 1356 
Q 3559 666 3084 287 
Q 2609 -91 1734 -91 
Q 1441 -91 1130 -33 
Q 819 25 488 141 
L 488 750 
Q 750 597 1062 519 
Q 1375 441 1716 441 
Q 2309 441 2620 675 
Q 2931 909 2931 1356 
Q 2931 1769 2642 2001 
Q 2353 2234 1838 2234 
L 1294 2234 
L 1294 2753 
L 1863 2753 
Q 2328 2753 2575 2939 
Q 2822 3125 2822 3475 
Q 2822 3834 2567 4026 
Q 2313 4219 1838 4219 
Q 1578 4219 1281 4162 
Q 984 4106 628 3988 
L 628 4550 
Q 988 4650 1302 4700 
Q 1616 4750 1894 4750 
Q 2613 4750 3031 4423 
Q 3450 4097 3450 3541 
Q 3450 3153 3228 2886 
Q 3006 2619 2597 2516 
z
" transform="scale(0.015625)"/>
      <path id="DejaVuSans-39" d="M 703 97 
L 703 672 
Q 941 559 1184 500 
Q 1428 441 1663 441 
Q 2288 441 2617 861 
Q 2947 1281 2994 2138 
Q 2813 1869 2534 1725 
Q 2256 1581 1919 1581 
Q 1219 1581 811 2004 
Q 403 2428 403 3163 
Q 403 3881 828 4315 
Q 1253 4750 1959 4750 
Q 2769 4750 3195 4129 
Q 3622 3509 3622 2328 
Q 3622 1225 3098 567 
Q 2575 -91 1691 -91 
Q 1453 -91 1209 -44 
Q 966 3 703 97 
z
M 1959 2075 
Q 2384 2075 2632 2365 
Q 2881 2656 2881 3163 
Q 2881 3666 2632 3958 
Q 2384 4250 1959 4250 
Q 1534 4250 1286 3958 
Q 1038 3666 1038 3163 
Q 1038 2656 1286 2365 
Q 1534 2075 1959 2075 
z
" transform="scale(0.015625)"/>
     </defs>
     <use xlink:href="#DejaVuSans-6e"/>
     <use xlink:href="#DejaVuSans-3d" transform="translate(63.378906 0)"/>
     <use xlink:href="#DejaVuSans-32" transform="translate(147.167969 0)"/>
     <use xlink:href="#DejaVuSans-3a" transform="translate(210.791016 0)"/>
     <use xlink:href="#DejaVuSans-20" transform="translate(244.482422 0)"/>
     <use xlink:href="#DejaVuSans-33" transform="translate(276.269531 0)"/>
     <use xlink:href="#DejaVuSans-33" transform="translate(339.892578 0)"/>
     <use xlink:href="#DejaVuSans-34" transform="translate(403.515625 0)"/>
     <use xlink:href="#DejaVuSans-2e" transform="translate(467.138672 0)"/>
     <use xlink:href="#DejaVuSans-39" transform="translate(498.925781 0)"/>
     <use xlink:href="#DejaVuSans-20" transform="translate(562.548828 0)"/>
     <use xlink:href="#DejaVuSans-c5" transform="translate(594.335938 0)"/>
    </g>
   </g>
   <g id="text_18">
    <!-- Crossover estimation (min. particles per fibril = 5) -->
    <g transform="translate(85.277813 35.472) scale(0.12 -0.12)">
     <defs>
      <path id="DejaVuSans-76" d="M 191 3500 
L 800 3500 
L 1894 563 
L 2988 3500 
L 3597 3500 
L 2284 0 
L 1503 0 
L 191 3500 
z
" transform="scale(0.015625)"/>
      <path id="DejaVuSans-6d" d="M 3328 2828 
Q 3544 3216 3844 3400 
Q 4144 3584 4550 3584 
Q 5097 3584 5394 3201 
Q 5691 2819 5691 2113 
L 5691 0 
L 5113 0 
L 5113 2094 
Q 5113 2597 4934 2840 
Q 4756 3084 4391 3084 
Q 3944 3084 3684 2787 
Q 3425 2491 3425 1978 
L 3425 0 
L 2847 0 
L 2847 2094 
Q 2847 2600 2669 2842 
Q 2491 3084 2119 3084 
Q 1678 3084 1418 2786 
Q 1159 2488 1159 1978 
L 1159 0 
L 581 0 
L 581 3500 
L 1159 3500 
L 1159 2956 
Q 1356 3278 1631 3431 
Q 1906 3584 2284 3584 
Q 2666 3584 2933 3390 
Q 3200 3197 3328 2828 
z
" transform="scale(0.015625)"/>
      <path id="DejaVuSans-28" d="M 1984 4856 
Q 1566 4138 1362 3434 
Q 1159 2731 1159 2009 
Q 1159 1288 1364 580 
Q 1569 -128 1984 -844 
L 1484 -844 
Q 1016 -109 783 600 
Q 550 1309 550 2009 
Q 550 2706 781 3412 
Q 1013 4119 1484 4856 
L 1984 4856 
z
" transform="scale(0.015625)"/>
      <path id="DejaVuSans-66" d="M 2375 4863 
L 2375 4384 
L 1825 4384 
Q 1516 4384 1395 4259 
Q 1275 4134 1275 3809 
L 1275 3500 
L 2222 3500 
L 2222 3053 
L 1275 3053 
L 1275 0 
L 697 0 
L 697 3053 
L 147 3053 
L 147 3500 
L 697 3500 
L 697 3744 
Q 697 4328 969 4595 
Q 1241 4863 1831 4863 
L 2375 4863 
z
" transform="scale(0.015625)"/>
      <path id="DejaVuSans-62" d="M 3116 1747 
Q 3116 2381 2855 2742 
Q 2594 3103 2138 3103 
Q 1681 3103 1420 2742 
Q 1159 2381 1159 1747 
Q 1159 1113 1420 752 
Q 1681 391 2138 391 
Q 2594 391 2855 752 
Q 3116 1113 3116 1747 
z
M 1159 2969 
Q 1341 3281 1617 3432 
Q 1894 3584 2278 3584 
Q 2916 3584 3314 3078 
Q 3713 2572 3713 1747 
Q 3713 922 3314 415 
Q 2916 -91 2278 -91 
Q 1894 -91 1617 61 
Q 1341 213 1159 525 
L 1159 0 
L 581 0 
L 581 4863 
L 1159 4863 
L 1159 2969 
z
" transform="scale(0.015625)"/>
      <path id="DejaVuSans-29" d="M 513 4856 
L 1013 4856 
Q 1481 4119 1714 3412 
Q 1947 2706 1947 2009 
Q 1947 1309 1714 600 
Q 1481 -109 1013 -844 
L 513 -844 
Q 928 -128 1133 580 
Q 1338 1288 1338 2009 
Q 1338 2731 1133 3434 
Q 928 4138 513 4856 
z
" transform="scale(0.015625)"/>
     </defs>
     <use xlink:href="#DejaVuSans-43"/>
     <use xlink:href="#DejaVuSans-72" transform="translate(69.824219 0)"/>
     <use xlink:href="#DejaVuSans-6f" transform="translate(108.6875 0)"/>
     <use xlink:href="#DejaVuSans-73" transform="translate(169.869141 0)"/>
     <use xlink:href="#DejaVuSans-73" transform="translate(221.96875 0)"/>
     <use xlink:href="#DejaVuSans-6f" transform="translate(274.068359 0)"/>
     <use xlink:href="#DejaVuSans-76" transform="translate(335.25 0)"/>
     <use xlink:href="#DejaVuSans-65" transform="translate(394.429688 0)"/>
     <use xlink:href="#DejaVuSans-72" transform="translate(455.953125 0)"/>
     <use xlink:href="#DejaVuSans-20" transform="translate(497.066406 0)"/>
     <use xlink:href="#DejaVuSans-65" transform="translate(528.853516 0)"/>
     <use xlink:href="#DejaVuSans-73" transform="translate(590.376953 0)"/>
     <use xlink:href="#DejaVuSans-74" transform="translate(642.476562 0)"/>
     <use xlink:href="#DejaVuSans-69" transform="translate(681.685547 0)"/>
     <use xlink:href="#DejaVuSans-6d" transform="translate(709.46875 0)"/>
     <use xlink:href="#DejaVuSans-61" transform="translate(806.880859 0)"/>
     <use xlink:href="#DejaVuSans-74" transform="translate(868.160156 0)"/>
     <use xlink:href="#DejaVuSans-69" transform="translate(907.369141 0)"/>
     <use xlink:href="#DejaVuSans-6f" transform="translate(935.152344 0)"/>
     <use xlink:href="#DejaVuSans-6e" transform="translate(996.333984 0)"/>
     <use xlink:href="#DejaVuSans-20" transform="translate(1059.712891 0)"/>
     <use xlink:href="#DejaVuSans-28" transform="translate(1091.5 0)"/>
     <use xlink:href="#DejaVuSans-6d" transform="translate(1130.513672 0)"/>
     <use xlink:href="#DejaVuSans-69" transform="translate(1227.925781 0)"/>
     <use xlink:href="#DejaVuSans-6e" transform="translate(1255.708984 0)"/>
     <use xlink:href="#DejaVuSans-2e" transform="translate(1319.087891 0)"/>
     <use xlink:href="#DejaVuSans-20" transform="translate(1350.875 0)"/>
     <use xlink:href="#DejaVuSans-70" transform="translate(1382.662109 0)"/>
     <use xlink:href="#DejaVuSans-61" transform="translate(1446.138672 0)"/>
     <use xlink:href="#DejaVuSans-72" transform="translate(1507.417969 0)"/>
     <use xlink:href="#DejaVuSans-74" transform="translate(1548.53125 0)"/>
     <use xlink:href="#DejaVuSans-69" transform="translate(1587.740234 0)"/>
     <use xlink:href="#DejaVuSans-63" transform="translate(1615.523438 0)"/>
     <use xlink:href="#DejaVuSans-6c" transform="translate(1670.503906 0)"/>
     <use xlink:href="#DejaVuSans-65" transform="translate(1698.287109 0)"/>
     <use xlink:href="#DejaVuSans-73" transform="translate(1759.810547 0)"/>
     <use xlink:href="#DejaVuSans-20" transform="translate(1811.910156 0)"/>
     <use xlink:href="#DejaVuSans-70" transform="translate(1843.697266 0)"/>
     <use xlink:href="#DejaVuSans-65" transform="translate(1907.173828 0)"/>
     <use xlink:href="#DejaVuSans-72" transform="translate(1968.697266 0)"/>
     <use xlink:href="#DejaVuSans-20" transform="translate(2009.810547 0)"/>
     <use xlink:href="#DejaVuSans-66" transform="translate(2041.597656 0)"/>
     <use xlink:href="#DejaVuSans-69" transform="translate(2076.802734 0)"/>
     <use xlink:href="#DejaVuSans-62" transform="translate(2104.585938 0)"/>
     <use xlink:href="#DejaVuSans-72" transform="translate(2168.0625 0)"/>
     <use xlink:href="#DejaVuSans-69" transform="translate(2209.175781 0)"/>
     <use xlink:href="#DejaVuSans-6c" transform="translate(2236.958984 0)"/>
     <use xlink:href="#DejaVuSans-20" transform="translate(2264.742188 0)"/>
     <use xlink:href="#DejaVuSans-3d" transform="translate(2296.529297 0)"/>
     <use xlink:href="#DejaVuSans-20" transform="translate(2380.318359 0)"/>
     <use xlink:href="#DejaVuSans-35" transform="translate(2412.105469 0)"/>
     <use xlink:href="#DejaVuSans-29" transform="translate(2475.728516 0)"/>
    </g>
   </g>
  </g>
 </g>
 <defs>
  <clipPath id="pc2e1bf7bd4">
   <rect x="57.6" y="41.472" width="357.12" height="266.112"/>
  </clipPath>
 </defs>
</svg>
