<?xml version="1.0" encoding="utf-8" standalone="no"?>
<!DOCTYPE svg PUBLIC "-//W3C//DTD SVG 1.1//EN"
  "http://www.w3.org/Graphics/SVG/1.1/DTD/svg11.dtd">
<svg xmlns:xlink="http://www.w3.org/1999/xlink" width="712.260625pt" height="424.610312pt" viewBox="0 0 712.260625 424.610312" xmlns="http://www.w3.org/2000/svg" version="1.1">
 <metadata>
  <rdf:RDF xmlns:dc="http://purl.org/dc/elements/1.1/" xmlns:cc="http://creativecommons.org/ns#" xmlns:rdf="http://www.w3.org/1999/02/22-rdf-syntax-ns#">
   <cc:Work>
    <dc:type rdf:resource="http://purl.org/dc/dcmitype/StillImage"/>
    <dc:date>2025-12-09T19:32:59.957936</dc:date>
    <dc:format>image/svg+xml</dc:format>
    <dc:creator>
     <cc:Agent>
      <dc:title>Matplotlib v3.10.3, https://matplotlib.org/</dc:title>
     </cc:Agent>
    </dc:creator>
   </cc:Work>
  </rdf:RDF>
 </metadata>
 <defs>
  <style type="text/css">*{stroke-linejoin: round; stroke-linecap: butt}</style>
 </defs>
 <g id="figure_1">
  <g id="patch_1">
   <path d="M 0 424.610312 
L 712.260625 424.610312 
L 712.260625 0 
L 0 0 
z
" style="fill: #ffffff"/>
  </g>
  <g id="axes_1">
   <g id="patch_2">
    <path d="M 59.690625 386.130625 
L 705.060625 386.130625 
L 705.060625 22.318125 
L 59.690625 22.318125 
z
" style="fill: #ffffff"/>
   </g>
   <g id="patch_3">
    <path d="M 89.025625 386.130625 
L 92.11352 386.130625 
L 92.11352 39.64253 
L 89.025625 39.64253 
z
" clip-path="url(#p4e5c67efdc)" style="fill: #1f77b4; stroke: #000000; stroke-width: 0.5; stroke-linejoin: miter"/>
   </g>
   <g id="patch_4">
    <path d="M 92.11352 386.130625 
L 95.201414 386.130625 
L 95.201414 78.861957 
L 92.11352 78.861957 
z
" clip-path="url(#p4e5c67efdc)" style="fill: #1f77b4; stroke: #000000; stroke-width: 0.5; stroke-linejoin: miter"/>
   </g>
   <g id="patch_5">
    <path d="M 95.201414 386.130625 
L 98.289309 386.130625 
L 98.289309 120.054313 
L 95.201414 120.054313 
z
" clip-path="url(#p4e5c67efdc)" style="fill: #1f77b4; stroke: #000000; stroke-width: 0.5; stroke-linejoin: miter"/>
   </g>
   <g id="patch_6">
    <path d="M 98.289309 386.130625 
L 101.377204 386.130625 
L 101.377204 158.092972 
L 98.289309 158.092972 
z
" clip-path="url(#p4e5c67efdc)" style="fill: #1f77b4; stroke: #000000; stroke-width: 0.5; stroke-linejoin: miter"/>
   </g>
   <g id="patch_7">
    <path d="M 101.377204 386.130625 
L 104.465099 386.130625 
L 104.465099 195.877542 
L 101.377204 195.877542 
z
" clip-path="url(#p4e5c67efdc)" style="fill: #1f77b4; stroke: #000000; stroke-width: 0.5; stroke-linejoin: miter"/>
   </g>
   <g id="patch_8">
    <path d="M 104.465099 386.130625 
L 107.552993 386.130625 
L 107.552993 229.148291 
L 104.465099 229.148291 
z
" clip-path="url(#p4e5c67efdc)" style="fill: #1f77b4; stroke: #000000; stroke-width: 0.5; stroke-linejoin: miter"/>
   </g>
   <g id="patch_9">
    <path d="M 107.552993 386.130625 
L 110.640888 386.130625 
L 110.640888 259.773522 
L 107.552993 259.773522 
z
" clip-path="url(#p4e5c67efdc)" style="fill: #1f77b4; stroke: #000000; stroke-width: 0.5; stroke-linejoin: miter"/>
   </g>
   <g id="patch_10">
    <path d="M 110.640888 386.130625 
L 113.728783 386.130625 
L 113.728783 286.632253 
L 110.640888 286.632253 
z
" clip-path="url(#p4e5c67efdc)" style="fill: #1f77b4; stroke: #000000; stroke-width: 0.5; stroke-linejoin: miter"/>
   </g>
   <g id="patch_11">
    <path d="M 113.728783 386.130625 
L 116.816678 386.130625 
L 116.816678 308.334467 
L 113.728783 308.334467 
z
" clip-path="url(#p4e5c67efdc)" style="fill: #1f77b4; stroke: #000000; stroke-width: 0.5; stroke-linejoin: miter"/>
   </g>
   <g id="patch_12">
    <path d="M 116.816678 386.130625 
L 119.904572 386.130625 
L 119.904572 323.968431 
L 116.816678 323.968431 
z
" clip-path="url(#p4e5c67efdc)" style="fill: #1f77b4; stroke: #000000; stroke-width: 0.5; stroke-linejoin: miter"/>
   </g>
   <g id="patch_13">
    <path d="M 119.904572 386.130625 
L 122.992467 386.130625 
L 122.992467 333.788234 
L 119.904572 333.788234 
z
" clip-path="url(#p4e5c67efdc)" style="fill: #1f77b4; stroke: #000000; stroke-width: 0.5; stroke-linejoin: miter"/>
   </g>
   <g id="patch_14">
    <path d="M 122.992467 386.130625 
L 126.080362 386.130625 
L 126.080362 338.750448 
L 122.992467 338.750448 
z
" clip-path="url(#p4e5c67efdc)" style="fill: #1f77b4; stroke: #000000; stroke-width: 0.5; stroke-linejoin: miter"/>
   </g>
   <g id="patch_15">
    <path d="M 126.080362 386.130625 
L 129.168257 386.130625 
L 129.168257 339.886377 
L 126.080362 339.886377 
z
" clip-path="url(#p4e5c67efdc)" style="fill: #1f77b4; stroke: #000000; stroke-width: 0.5; stroke-linejoin: miter"/>
   </g>
   <g id="patch_16">
    <path d="M 129.168257 386.130625 
L 132.256151 386.130625 
L 132.256151 337.225912 
L 129.168257 337.225912 
z
" clip-path="url(#p4e5c67efdc)" style="fill: #1f77b4; stroke: #000000; stroke-width: 0.5; stroke-linejoin: miter"/>
   </g>
   <g id="patch_17">
    <path d="M 132.256151 386.130625 
L 135.344046 386.130625 
L 135.344046 330.739163 
L 132.256151 330.739163 
z
" clip-path="url(#p4e5c67efdc)" style="fill: #1f77b4; stroke: #000000; stroke-width: 0.5; stroke-linejoin: miter"/>
   </g>
   <g id="patch_18">
    <path d="M 135.344046 386.130625 
L 138.431941 386.130625 
L 138.431941 320.261717 
L 135.344046 320.261717 
z
" clip-path="url(#p4e5c67efdc)" style="fill: #1f77b4; stroke: #000000; stroke-width: 0.5; stroke-linejoin: miter"/>
   </g>
   <g id="patch_19">
    <path d="M 138.431941 386.130625 
L 141.519836 386.130625 
L 141.519836 308.498878 
L 138.431941 308.498878 
z
" clip-path="url(#p4e5c67efdc)" style="fill: #1f77b4; stroke: #000000; stroke-width: 0.5; stroke-linejoin: miter"/>
   </g>
   <g id="patch_20">
    <path d="M 141.519836 386.130625 
L 144.60773 386.130625 
L 144.60773 295.375914 
L 141.519836 295.375914 
z
" clip-path="url(#p4e5c67efdc)" style="fill: #1f77b4; stroke: #000000; stroke-width: 0.5; stroke-linejoin: miter"/>
   </g>
   <g id="patch_21">
    <path d="M 144.60773 386.130625 
L 147.695625 386.130625 
L 147.695625 282.432307 
L 144.60773 282.432307 
z
" clip-path="url(#p4e5c67efdc)" style="fill: #1f77b4; stroke: #000000; stroke-width: 0.5; stroke-linejoin: miter"/>
   </g>
   <g id="patch_22">
    <path d="M 147.695625 386.130625 
L 150.78352 386.130625 
L 150.78352 270.639575 
L 147.695625 270.639575 
z
" clip-path="url(#p4e5c67efdc)" style="fill: #1f77b4; stroke: #000000; stroke-width: 0.5; stroke-linejoin: miter"/>
   </g>
   <g id="patch_23">
    <path d="M 150.78352 386.130625 
L 153.871414 386.130625 
L 153.871414 259.429754 
L 150.78352 259.429754 
z
" clip-path="url(#p4e5c67efdc)" style="fill: #1f77b4; stroke: #000000; stroke-width: 0.5; stroke-linejoin: miter"/>
   </g>
   <g id="patch_24">
    <path d="M 153.871414 386.130625 
L 156.959309 386.130625 
L 156.959309 250.088237 
L 153.871414 250.088237 
z
" clip-path="url(#p4e5c67efdc)" style="fill: #1f77b4; stroke: #000000; stroke-width: 0.5; stroke-linejoin: miter"/>
   </g>
   <g id="patch_25">
    <path d="M 156.959309 386.130625 
L 160.047204 386.130625 
L 160.047204 244.647737 
L 156.959309 244.647737 
z
" clip-path="url(#p4e5c67efdc)" style="fill: #1f77b4; stroke: #000000; stroke-width: 0.5; stroke-linejoin: miter"/>
   </g>
   <g id="patch_26">
    <path d="M 160.047204 386.130625 
L 163.135099 386.130625 
L 163.135099 244.393648 
L 160.047204 244.393648 
z
" clip-path="url(#p4e5c67efdc)" style="fill: #1f77b4; stroke: #000000; stroke-width: 0.5; stroke-linejoin: miter"/>
   </g>
   <g id="patch_27">
    <path d="M 163.135099 386.130625 
L 166.222993 386.130625 
L 166.222993 249.430594 
L 163.135099 249.430594 
z
" clip-path="url(#p4e5c67efdc)" style="fill: #1f77b4; stroke: #000000; stroke-width: 0.5; stroke-linejoin: miter"/>
   </g>
   <g id="patch_28">
    <path d="M 166.222993 386.130625 
L 169.310888 386.130625 
L 169.310888 259.056094 
L 166.222993 259.056094 
z
" clip-path="url(#p4e5c67efdc)" style="fill: #1f77b4; stroke: #000000; stroke-width: 0.5; stroke-linejoin: miter"/>
   </g>
   <g id="patch_29">
    <path d="M 169.310888 386.130625 
L 172.398783 386.130625 
L 172.398783 272.074432 
L 169.310888 272.074432 
z
" clip-path="url(#p4e5c67efdc)" style="fill: #1f77b4; stroke: #000000; stroke-width: 0.5; stroke-linejoin: miter"/>
   </g>
   <g id="patch_30">
    <path d="M 172.398783 386.130625 
L 175.486678 386.130625 
L 175.486678 285.167503 
L 172.398783 285.167503 
z
" clip-path="url(#p4e5c67efdc)" style="fill: #1f77b4; stroke: #000000; stroke-width: 0.5; stroke-linejoin: miter"/>
   </g>
   <g id="patch_31">
    <path d="M 175.486678 386.130625 
L 178.574572 386.130625 
L 178.574572 299.247039 
L 175.486678 299.247039 
z
" clip-path="url(#p4e5c67efdc)" style="fill: #1f77b4; stroke: #000000; stroke-width: 0.5; stroke-linejoin: miter"/>
   </g>
   <g id="patch_32">
    <path d="M 178.574572 386.130625 
L 181.662467 386.130625 
L 181.662467 312.668931 
L 178.574572 312.668931 
z
" clip-path="url(#p4e5c67efdc)" style="fill: #1f77b4; stroke: #000000; stroke-width: 0.5; stroke-linejoin: miter"/>
   </g>
   <g id="patch_33">
    <path d="M 181.662467 386.130625 
L 184.750362 386.130625 
L 184.750362 325.507913 
L 181.662467 325.507913 
z
" clip-path="url(#p4e5c67efdc)" style="fill: #1f77b4; stroke: #000000; stroke-width: 0.5; stroke-linejoin: miter"/>
   </g>
   <g id="patch_34">
    <path d="M 184.750362 386.130625 
L 187.838257 386.130625 
L 187.838257 336.822359 
L 184.750362 336.822359 
z
" clip-path="url(#p4e5c67efdc)" style="fill: #1f77b4; stroke: #000000; stroke-width: 0.5; stroke-linejoin: miter"/>
   </g>
   <g id="patch_35">
    <path d="M 187.838257 386.130625 
L 190.926151 386.130625 
L 190.926151 346.298394 
L 187.838257 346.298394 
z
" clip-path="url(#p4e5c67efdc)" style="fill: #1f77b4; stroke: #000000; stroke-width: 0.5; stroke-linejoin: miter"/>
   </g>
   <g id="patch_36">
    <path d="M 190.926151 386.130625 
L 194.014046 386.130625 
L 194.014046 353.308269 
L 190.926151 353.308269 
z
" clip-path="url(#p4e5c67efdc)" style="fill: #1f77b4; stroke: #000000; stroke-width: 0.5; stroke-linejoin: miter"/>
   </g>
   <g id="patch_37">
    <path d="M 194.014046 386.130625 
L 197.101941 386.130625 
L 197.101941 357.642733 
L 194.014046 357.642733 
z
" clip-path="url(#p4e5c67efdc)" style="fill: #1f77b4; stroke: #000000; stroke-width: 0.5; stroke-linejoin: miter"/>
   </g>
   <g id="patch_38">
    <path d="M 197.101941 386.130625 
L 200.189836 386.130625 
L 200.189836 360.12384 
L 197.101941 360.12384 
z
" clip-path="url(#p4e5c67efdc)" style="fill: #1f77b4; stroke: #000000; stroke-width: 0.5; stroke-linejoin: miter"/>
   </g>
   <g id="patch_39">
    <path d="M 200.189836 386.130625 
L 203.27773 386.130625 
L 203.27773 360.273304 
L 200.189836 360.273304 
z
" clip-path="url(#p4e5c67efdc)" style="fill: #1f77b4; stroke: #000000; stroke-width: 0.5; stroke-linejoin: miter"/>
   </g>
   <g id="patch_40">
    <path d="M 203.27773 386.130625 
L 206.365625 386.130625 
L 206.365625 358.883287 
L 203.27773 358.883287 
z
" clip-path="url(#p4e5c67efdc)" style="fill: #1f77b4; stroke: #000000; stroke-width: 0.5; stroke-linejoin: miter"/>
   </g>
   <g id="patch_41">
    <path d="M 206.365625 386.130625 
L 209.45352 386.130625 
L 209.45352 356.282608 
L 206.365625 356.282608 
z
" clip-path="url(#p4e5c67efdc)" style="fill: #1f77b4; stroke: #000000; stroke-width: 0.5; stroke-linejoin: miter"/>
   </g>
   <g id="patch_42">
    <path d="M 209.45352 386.130625 
L 212.541414 386.130625 
L 212.541414 352.157394 
L 209.45352 352.157394 
z
" clip-path="url(#p4e5c67efdc)" style="fill: #1f77b4; stroke: #000000; stroke-width: 0.5; stroke-linejoin: miter"/>
   </g>
   <g id="patch_43">
    <path d="M 212.541414 386.130625 
L 215.629309 386.130625 
L 215.629309 347.000876 
L 212.541414 347.000876 
z
" clip-path="url(#p4e5c67efdc)" style="fill: #1f77b4; stroke: #000000; stroke-width: 0.5; stroke-linejoin: miter"/>
   </g>
   <g id="patch_44">
    <path d="M 215.629309 386.130625 
L 218.717204 386.130625 
L 218.717204 341.261448 
L 215.629309 341.261448 
z
" clip-path="url(#p4e5c67efdc)" style="fill: #1f77b4; stroke: #000000; stroke-width: 0.5; stroke-linejoin: miter"/>
   </g>
   <g id="patch_45">
    <path d="M 218.717204 386.130625 
L 221.805099 386.130625 
L 221.805099 335.716323 
L 218.717204 335.716323 
z
" clip-path="url(#p4e5c67efdc)" style="fill: #1f77b4; stroke: #000000; stroke-width: 0.5; stroke-linejoin: miter"/>
   </g>
   <g id="patch_46">
    <path d="M 221.805099 386.130625 
L 224.892993 386.130625 
L 224.892993 330.903573 
L 221.805099 330.903573 
z
" clip-path="url(#p4e5c67efdc)" style="fill: #1f77b4; stroke: #000000; stroke-width: 0.5; stroke-linejoin: miter"/>
   </g>
   <g id="patch_47">
    <path d="M 224.892993 386.130625 
L 227.980888 386.130625 
L 227.980888 326.180502 
L 224.892993 326.180502 
z
" clip-path="url(#p4e5c67efdc)" style="fill: #1f77b4; stroke: #000000; stroke-width: 0.5; stroke-linejoin: miter"/>
   </g>
   <g id="patch_48">
    <path d="M 227.980888 386.130625 
L 231.068783 386.130625 
L 231.068783 323.17627 
L 227.980888 323.17627 
z
" clip-path="url(#p4e5c67efdc)" style="fill: #1f77b4; stroke: #000000; stroke-width: 0.5; stroke-linejoin: miter"/>
   </g>
   <g id="patch_49">
    <path d="M 231.068783 386.130625 
L 234.156678 386.130625 
L 234.156678 320.994092 
L 231.068783 320.994092 
z
" clip-path="url(#p4e5c67efdc)" style="fill: #1f77b4; stroke: #000000; stroke-width: 0.5; stroke-linejoin: miter"/>
   </g>
   <g id="patch_50">
    <path d="M 234.156678 386.130625 
L 237.244572 386.130625 
L 237.244572 321.158502 
L 234.156678 321.158502 
z
" clip-path="url(#p4e5c67efdc)" style="fill: #1f77b4; stroke: #000000; stroke-width: 0.5; stroke-linejoin: miter"/>
   </g>
   <g id="patch_51">
    <path d="M 237.244572 386.130625 
L 240.332467 386.130625 
L 240.332467 323.729288 
L 237.244572 323.729288 
z
" clip-path="url(#p4e5c67efdc)" style="fill: #1f77b4; stroke: #000000; stroke-width: 0.5; stroke-linejoin: miter"/>
   </g>
   <g id="patch_52">
    <path d="M 240.332467 386.130625 
L 243.420362 386.130625 
L 243.420362 327.57052 
L 240.332467 327.57052 
z
" clip-path="url(#p4e5c67efdc)" style="fill: #1f77b4; stroke: #000000; stroke-width: 0.5; stroke-linejoin: miter"/>
   </g>
   <g id="patch_53">
    <path d="M 243.420362 386.130625 
L 246.508257 386.130625 
L 246.508257 333.265109 
L 243.420362 333.265109 
z
" clip-path="url(#p4e5c67efdc)" style="fill: #1f77b4; stroke: #000000; stroke-width: 0.5; stroke-linejoin: miter"/>
   </g>
   <g id="patch_54">
    <path d="M 246.508257 386.130625 
L 249.596151 386.130625 
L 249.596151 339.24368 
L 246.508257 339.24368 
z
" clip-path="url(#p4e5c67efdc)" style="fill: #1f77b4; stroke: #000000; stroke-width: 0.5; stroke-linejoin: miter"/>
   </g>
   <g id="patch_55">
    <path d="M 249.596151 386.130625 
L 252.684046 386.130625 
L 252.684046 345.296984 
L 249.596151 345.296984 
z
" clip-path="url(#p4e5c67efdc)" style="fill: #1f77b4; stroke: #000000; stroke-width: 0.5; stroke-linejoin: miter"/>
   </g>
   <g id="patch_56">
    <path d="M 252.684046 386.130625 
L 255.771941 386.130625 
L 255.771941 351.410073 
L 252.684046 351.410073 
z
" clip-path="url(#p4e5c67efdc)" style="fill: #1f77b4; stroke: #000000; stroke-width: 0.5; stroke-linejoin: miter"/>
   </g>
   <g id="patch_57">
    <path d="M 255.771941 386.130625 
L 258.859836 386.130625 
L 258.859836 357.298965 
L 255.771941 357.298965 
z
" clip-path="url(#p4e5c67efdc)" style="fill: #1f77b4; stroke: #000000; stroke-width: 0.5; stroke-linejoin: miter"/>
   </g>
   <g id="patch_58">
    <path d="M 258.859836 386.130625 
L 261.94773 386.130625 
L 261.94773 362.560108 
L 258.859836 362.560108 
z
" clip-path="url(#p4e5c67efdc)" style="fill: #1f77b4; stroke: #000000; stroke-width: 0.5; stroke-linejoin: miter"/>
   </g>
   <g id="patch_59">
    <path d="M 261.94773 386.130625 
L 265.035625 386.130625 
L 265.035625 366.849733 
L 261.94773 366.849733 
z
" clip-path="url(#p4e5c67efdc)" style="fill: #1f77b4; stroke: #000000; stroke-width: 0.5; stroke-linejoin: miter"/>
   </g>
   <g id="patch_60">
    <path d="M 265.035625 386.130625 
L 268.12352 386.130625 
L 268.12352 369.644715 
L 265.035625 369.644715 
z
" clip-path="url(#p4e5c67efdc)" style="fill: #1f77b4; stroke: #000000; stroke-width: 0.5; stroke-linejoin: miter"/>
   </g>
   <g id="patch_61">
    <path d="M 268.12352 386.130625 
L 271.211414 386.130625 
L 271.211414 371.542911 
L 268.12352 371.542911 
z
" clip-path="url(#p4e5c67efdc)" style="fill: #1f77b4; stroke: #000000; stroke-width: 0.5; stroke-linejoin: miter"/>
   </g>
   <g id="patch_62">
    <path d="M 271.211414 386.130625 
L 274.299309 386.130625 
L 274.299309 372.394858 
L 271.211414 372.394858 
z
" clip-path="url(#p4e5c67efdc)" style="fill: #1f77b4; stroke: #000000; stroke-width: 0.5; stroke-linejoin: miter"/>
   </g>
   <g id="patch_63">
    <path d="M 274.299309 386.130625 
L 277.387204 386.130625 
L 277.387204 372.738625 
L 274.299309 372.738625 
z
" clip-path="url(#p4e5c67efdc)" style="fill: #1f77b4; stroke: #000000; stroke-width: 0.5; stroke-linejoin: miter"/>
   </g>
   <g id="patch_64">
    <path d="M 277.387204 386.130625 
L 280.475099 386.130625 
L 280.475099 372.170661 
L 277.387204 372.170661 
z
" clip-path="url(#p4e5c67efdc)" style="fill: #1f77b4; stroke: #000000; stroke-width: 0.5; stroke-linejoin: miter"/>
   </g>
   <g id="patch_65">
    <path d="M 280.475099 386.130625 
L 283.562993 386.130625 
L 283.562993 370.601286 
L 280.475099 370.601286 
z
" clip-path="url(#p4e5c67efdc)" style="fill: #1f77b4; stroke: #000000; stroke-width: 0.5; stroke-linejoin: miter"/>
   </g>
   <g id="patch_66">
    <path d="M 283.562993 386.130625 
L 286.650888 386.130625 
L 286.650888 368.957179 
L 283.562993 368.957179 
z
" clip-path="url(#p4e5c67efdc)" style="fill: #1f77b4; stroke: #000000; stroke-width: 0.5; stroke-linejoin: miter"/>
   </g>
   <g id="patch_67">
    <path d="M 286.650888 386.130625 
L 289.738783 386.130625 
L 289.738783 366.61059 
L 286.650888 366.61059 
z
" clip-path="url(#p4e5c67efdc)" style="fill: #1f77b4; stroke: #000000; stroke-width: 0.5; stroke-linejoin: miter"/>
   </g>
   <g id="patch_68">
    <path d="M 289.738783 386.130625 
L 292.826678 386.130625 
L 292.826678 364.428411 
L 289.738783 364.428411 
z
" clip-path="url(#p4e5c67efdc)" style="fill: #1f77b4; stroke: #000000; stroke-width: 0.5; stroke-linejoin: miter"/>
   </g>
   <g id="patch_69">
    <path d="M 292.826678 386.130625 
L 295.914572 386.130625 
L 295.914572 361.932358 
L 292.826678 361.932358 
z
" clip-path="url(#p4e5c67efdc)" style="fill: #1f77b4; stroke: #000000; stroke-width: 0.5; stroke-linejoin: miter"/>
   </g>
   <g id="patch_70">
    <path d="M 295.914572 386.130625 
L 299.002467 386.130625 
L 299.002467 359.750179 
L 295.914572 359.750179 
z
" clip-path="url(#p4e5c67efdc)" style="fill: #1f77b4; stroke: #000000; stroke-width: 0.5; stroke-linejoin: miter"/>
   </g>
   <g id="patch_71">
    <path d="M 299.002467 386.130625 
L 302.090362 386.130625 
L 302.090362 358.150912 
L 299.002467 358.150912 
z
" clip-path="url(#p4e5c67efdc)" style="fill: #1f77b4; stroke: #000000; stroke-width: 0.5; stroke-linejoin: miter"/>
   </g>
   <g id="patch_72">
    <path d="M 302.090362 386.130625 
L 305.178257 386.130625 
L 305.178257 357.014983 
L 302.090362 357.014983 
z
" clip-path="url(#p4e5c67efdc)" style="fill: #1f77b4; stroke: #000000; stroke-width: 0.5; stroke-linejoin: miter"/>
   </g>
   <g id="patch_73">
    <path d="M 305.178257 386.130625 
L 308.266151 386.130625 
L 308.266151 356.432072 
L 305.178257 356.432072 
z
" clip-path="url(#p4e5c67efdc)" style="fill: #1f77b4; stroke: #000000; stroke-width: 0.5; stroke-linejoin: miter"/>
   </g>
   <g id="patch_74">
    <path d="M 308.266151 386.130625 
L 311.354046 386.130625 
L 311.354046 356.476912 
L 308.266151 356.476912 
z
" clip-path="url(#p4e5c67efdc)" style="fill: #1f77b4; stroke: #000000; stroke-width: 0.5; stroke-linejoin: miter"/>
   </g>
   <g id="patch_75">
    <path d="M 311.354046 386.130625 
L 314.441941 386.130625 
L 314.441941 357.478322 
L 311.354046 357.478322 
z
" clip-path="url(#p4e5c67efdc)" style="fill: #1f77b4; stroke: #000000; stroke-width: 0.5; stroke-linejoin: miter"/>
   </g>
   <g id="patch_76">
    <path d="M 314.441941 386.130625 
L 317.529836 386.130625 
L 317.529836 359.585769 
L 314.441941 359.585769 
z
" clip-path="url(#p4e5c67efdc)" style="fill: #1f77b4; stroke: #000000; stroke-width: 0.5; stroke-linejoin: miter"/>
   </g>
   <g id="patch_77">
    <path d="M 317.529836 386.130625 
L 320.61773 386.130625 
L 320.61773 361.857626 
L 317.529836 361.857626 
z
" clip-path="url(#p4e5c67efdc)" style="fill: #1f77b4; stroke: #000000; stroke-width: 0.5; stroke-linejoin: miter"/>
   </g>
   <g id="patch_78">
    <path d="M 320.61773 386.130625 
L 323.705625 386.130625 
L 323.705625 364.533036 
L 320.61773 364.533036 
z
" clip-path="url(#p4e5c67efdc)" style="fill: #1f77b4; stroke: #000000; stroke-width: 0.5; stroke-linejoin: miter"/>
   </g>
   <g id="patch_79">
    <path d="M 323.705625 386.130625 
L 326.79352 386.130625 
L 326.79352 367.417697 
L 323.705625 367.417697 
z
" clip-path="url(#p4e5c67efdc)" style="fill: #1f77b4; stroke: #000000; stroke-width: 0.5; stroke-linejoin: miter"/>
   </g>
   <g id="patch_80">
    <path d="M 326.79352 386.130625 
L 329.881414 386.130625 
L 329.881414 370.317304 
L 326.79352 370.317304 
z
" clip-path="url(#p4e5c67efdc)" style="fill: #1f77b4; stroke: #000000; stroke-width: 0.5; stroke-linejoin: miter"/>
   </g>
   <g id="patch_81">
    <path d="M 329.881414 386.130625 
L 332.969309 386.130625 
L 332.969309 372.813358 
L 329.881414 372.813358 
z
" clip-path="url(#p4e5c67efdc)" style="fill: #1f77b4; stroke: #000000; stroke-width: 0.5; stroke-linejoin: miter"/>
   </g>
   <g id="patch_82">
    <path d="M 332.969309 386.130625 
L 336.057204 386.130625 
L 336.057204 374.93575 
L 332.969309 374.93575 
z
" clip-path="url(#p4e5c67efdc)" style="fill: #1f77b4; stroke: #000000; stroke-width: 0.5; stroke-linejoin: miter"/>
   </g>
   <g id="patch_83">
    <path d="M 336.057204 386.130625 
L 339.145099 386.130625 
L 339.145099 376.789107 
L 336.057204 376.789107 
z
" clip-path="url(#p4e5c67efdc)" style="fill: #1f77b4; stroke: #000000; stroke-width: 0.5; stroke-linejoin: miter"/>
   </g>
   <g id="patch_84">
    <path d="M 339.145099 386.130625 
L 342.232993 386.130625 
L 342.232993 378.164179 
L 339.145099 378.164179 
z
" clip-path="url(#p4e5c67efdc)" style="fill: #1f77b4; stroke: #000000; stroke-width: 0.5; stroke-linejoin: miter"/>
   </g>
   <g id="patch_85">
    <path d="M 342.232993 386.130625 
L 345.320888 386.130625 
L 345.320888 379.180536 
L 342.232993 379.180536 
z
" clip-path="url(#p4e5c67efdc)" style="fill: #1f77b4; stroke: #000000; stroke-width: 0.5; stroke-linejoin: miter"/>
   </g>
   <g id="patch_86">
    <path d="M 345.320888 386.130625 
L 348.408783 386.130625 
L 348.408783 379.942804 
L 345.320888 379.942804 
z
" clip-path="url(#p4e5c67efdc)" style="fill: #1f77b4; stroke: #000000; stroke-width: 0.5; stroke-linejoin: miter"/>
   </g>
   <g id="patch_87">
    <path d="M 348.408783 386.130625 
L 351.496678 386.130625 
L 351.496678 380.316464 
L 348.408783 380.316464 
z
" clip-path="url(#p4e5c67efdc)" style="fill: #1f77b4; stroke: #000000; stroke-width: 0.5; stroke-linejoin: miter"/>
   </g>
   <g id="patch_88">
    <path d="M 351.496678 386.130625 
L 354.584572 386.130625 
L 354.584572 380.137107 
L 351.496678 380.137107 
z
" clip-path="url(#p4e5c67efdc)" style="fill: #1f77b4; stroke: #000000; stroke-width: 0.5; stroke-linejoin: miter"/>
   </g>
   <g id="patch_89">
    <path d="M 354.584572 386.130625 
L 357.672467 386.130625 
L 357.672467 379.718607 
L 354.584572 379.718607 
z
" clip-path="url(#p4e5c67efdc)" style="fill: #1f77b4; stroke: #000000; stroke-width: 0.5; stroke-linejoin: miter"/>
   </g>
   <g id="patch_90">
    <path d="M 357.672467 386.130625 
L 360.760362 386.130625 
L 360.760362 378.851715 
L 357.672467 378.851715 
z
" clip-path="url(#p4e5c67efdc)" style="fill: #1f77b4; stroke: #000000; stroke-width: 0.5; stroke-linejoin: miter"/>
   </g>
   <g id="patch_91">
    <path d="M 360.760362 386.130625 
L 363.848257 386.130625 
L 363.848257 377.984822 
L 360.760362 377.984822 
z
" clip-path="url(#p4e5c67efdc)" style="fill: #1f77b4; stroke: #000000; stroke-width: 0.5; stroke-linejoin: miter"/>
   </g>
   <g id="patch_92">
    <path d="M 363.848257 386.130625 
L 366.936151 386.130625 
L 366.936151 377.132875 
L 363.848257 377.132875 
z
" clip-path="url(#p4e5c67efdc)" style="fill: #1f77b4; stroke: #000000; stroke-width: 0.5; stroke-linejoin: miter"/>
   </g>
   <g id="patch_93">
    <path d="M 366.936151 386.130625 
L 370.024046 386.130625 
L 370.024046 376.041786 
L 366.936151 376.041786 
z
" clip-path="url(#p4e5c67efdc)" style="fill: #1f77b4; stroke: #000000; stroke-width: 0.5; stroke-linejoin: miter"/>
   </g>
   <g id="patch_94">
    <path d="M 370.024046 386.130625 
L 373.111941 386.130625 
L 373.111941 375.39909 
L 370.024046 375.39909 
z
" clip-path="url(#p4e5c67efdc)" style="fill: #1f77b4; stroke: #000000; stroke-width: 0.5; stroke-linejoin: miter"/>
   </g>
   <g id="patch_95">
    <path d="M 373.111941 386.130625 
L 376.199836 386.130625 
L 376.199836 374.861018 
L 373.111941 374.861018 
z
" clip-path="url(#p4e5c67efdc)" style="fill: #1f77b4; stroke: #000000; stroke-width: 0.5; stroke-linejoin: miter"/>
   </g>
   <g id="patch_96">
    <path d="M 376.199836 386.130625 
L 379.28773 386.130625 
L 379.28773 374.472411 
L 376.199836 374.472411 
z
" clip-path="url(#p4e5c67efdc)" style="fill: #1f77b4; stroke: #000000; stroke-width: 0.5; stroke-linejoin: miter"/>
   </g>
   <g id="patch_97">
    <path d="M 379.28773 386.130625 
L 382.375625 386.130625 
L 382.375625 384.381893 
L 379.28773 384.381893 
z
" clip-path="url(#p4e5c67efdc)" style="fill: #1f77b4; stroke: #000000; stroke-width: 0.5; stroke-linejoin: miter"/>
   </g>
   <g id="patch_98">
    <path d="M 382.375625 386.130625 
L 385.46352 386.130625 
L 385.46352 376.116518 
L 382.375625 376.116518 
z
" clip-path="url(#p4e5c67efdc)" style="fill: #1f77b4; stroke: #000000; stroke-width: 0.5; stroke-linejoin: miter"/>
   </g>
   <g id="patch_99">
    <path d="M 385.46352 386.130625 
L 388.551414 386.130625 
L 388.551414 374.51725 
L 385.46352 374.51725 
z
" clip-path="url(#p4e5c67efdc)" style="fill: #1f77b4; stroke: #000000; stroke-width: 0.5; stroke-linejoin: miter"/>
   </g>
   <g id="patch_100">
    <path d="M 388.551414 386.130625 
L 391.639309 386.130625 
L 391.639309 374.98059 
L 388.551414 374.98059 
z
" clip-path="url(#p4e5c67efdc)" style="fill: #1f77b4; stroke: #000000; stroke-width: 0.5; stroke-linejoin: miter"/>
   </g>
   <g id="patch_101">
    <path d="M 391.639309 386.130625 
L 394.727204 386.130625 
L 394.727204 375.952107 
L 391.639309 375.952107 
z
" clip-path="url(#p4e5c67efdc)" style="fill: #1f77b4; stroke: #000000; stroke-width: 0.5; stroke-linejoin: miter"/>
   </g>
   <g id="patch_102">
    <path d="M 394.727204 386.130625 
L 397.815099 386.130625 
L 397.815099 376.938572 
L 394.727204 376.938572 
z
" clip-path="url(#p4e5c67efdc)" style="fill: #1f77b4; stroke: #000000; stroke-width: 0.5; stroke-linejoin: miter"/>
   </g>
   <g id="patch_103">
    <path d="M 397.815099 386.130625 
L 400.902993 386.130625 
L 400.902993 377.939982 
L 397.815099 377.939982 
z
" clip-path="url(#p4e5c67efdc)" style="fill: #1f77b4; stroke: #000000; stroke-width: 0.5; stroke-linejoin: miter"/>
   </g>
   <g id="patch_104">
    <path d="M 400.902993 386.130625 
L 403.990888 386.130625 
L 403.990888 378.971286 
L 400.902993 378.971286 
z
" clip-path="url(#p4e5c67efdc)" style="fill: #1f77b4; stroke: #000000; stroke-width: 0.5; stroke-linejoin: miter"/>
   </g>
   <g id="patch_105">
    <path d="M 403.990888 386.130625 
L 407.078783 386.130625 
L 407.078783 379.838179 
L 403.990888 379.838179 
z
" clip-path="url(#p4e5c67efdc)" style="fill: #1f77b4; stroke: #000000; stroke-width: 0.5; stroke-linejoin: miter"/>
   </g>
   <g id="patch_106">
    <path d="M 407.078783 386.130625 
L 410.166678 386.130625 
L 410.166678 380.914322 
L 407.078783 380.914322 
z
" clip-path="url(#p4e5c67efdc)" style="fill: #1f77b4; stroke: #000000; stroke-width: 0.5; stroke-linejoin: miter"/>
   </g>
   <g id="patch_107">
    <path d="M 410.166678 386.130625 
L 413.254572 386.130625 
L 413.254572 381.766268 
L 410.166678 381.766268 
z
" clip-path="url(#p4e5c67efdc)" style="fill: #1f77b4; stroke: #000000; stroke-width: 0.5; stroke-linejoin: miter"/>
   </g>
   <g id="patch_108">
    <path d="M 413.254572 386.130625 
L 416.342467 386.130625 
L 416.342467 382.543482 
L 413.254572 382.543482 
z
" clip-path="url(#p4e5c67efdc)" style="fill: #1f77b4; stroke: #000000; stroke-width: 0.5; stroke-linejoin: miter"/>
   </g>
   <g id="patch_109">
    <path d="M 416.342467 386.130625 
L 419.430362 386.130625 
L 419.430362 383.216072 
L 416.342467 383.216072 
z
" clip-path="url(#p4e5c67efdc)" style="fill: #1f77b4; stroke: #000000; stroke-width: 0.5; stroke-linejoin: miter"/>
   </g>
   <g id="patch_110">
    <path d="M 419.430362 386.130625 
L 422.518257 386.130625 
L 422.518257 383.649518 
L 419.430362 383.649518 
z
" clip-path="url(#p4e5c67efdc)" style="fill: #1f77b4; stroke: #000000; stroke-width: 0.5; stroke-linejoin: miter"/>
   </g>
   <g id="patch_111">
    <path d="M 422.518257 386.130625 
L 425.606151 386.130625 
L 425.606151 384.038125 
L 422.518257 384.038125 
z
" clip-path="url(#p4e5c67efdc)" style="fill: #1f77b4; stroke: #000000; stroke-width: 0.5; stroke-linejoin: miter"/>
   </g>
   <g id="patch_112">
    <path d="M 425.606151 386.130625 
L 428.694046 386.130625 
L 428.694046 384.157696 
L 425.606151 384.157696 
z
" clip-path="url(#p4e5c67efdc)" style="fill: #1f77b4; stroke: #000000; stroke-width: 0.5; stroke-linejoin: miter"/>
   </g>
   <g id="patch_113">
    <path d="M 428.694046 386.130625 
L 431.781941 386.130625 
L 431.781941 384.202536 
L 428.694046 384.202536 
z
" clip-path="url(#p4e5c67efdc)" style="fill: #1f77b4; stroke: #000000; stroke-width: 0.5; stroke-linejoin: miter"/>
   </g>
   <g id="patch_114">
    <path d="M 431.781941 386.130625 
L 434.869836 386.130625 
L 434.869836 384.307161 
L 431.781941 384.307161 
z
" clip-path="url(#p4e5c67efdc)" style="fill: #1f77b4; stroke: #000000; stroke-width: 0.5; stroke-linejoin: miter"/>
   </g>
   <g id="patch_115">
    <path d="M 434.869836 386.130625 
L 437.95773 386.130625 
L 437.95773 384.292214 
L 434.869836 384.292214 
z
" clip-path="url(#p4e5c67efdc)" style="fill: #1f77b4; stroke: #000000; stroke-width: 0.5; stroke-linejoin: miter"/>
   </g>
   <g id="patch_116">
    <path d="M 437.95773 386.130625 
L 441.045625 386.130625 
L 441.045625 384.172643 
L 437.95773 384.172643 
z
" clip-path="url(#p4e5c67efdc)" style="fill: #1f77b4; stroke: #000000; stroke-width: 0.5; stroke-linejoin: miter"/>
   </g>
   <g id="patch_117">
    <path d="M 441.045625 386.130625 
L 444.13352 386.130625 
L 444.13352 383.993286 
L 441.045625 383.993286 
z
" clip-path="url(#p4e5c67efdc)" style="fill: #1f77b4; stroke: #000000; stroke-width: 0.5; stroke-linejoin: miter"/>
   </g>
   <g id="patch_118">
    <path d="M 444.13352 386.130625 
L 447.221414 386.130625 
L 447.221414 383.858768 
L 444.13352 383.858768 
z
" clip-path="url(#p4e5c67efdc)" style="fill: #1f77b4; stroke: #000000; stroke-width: 0.5; stroke-linejoin: miter"/>
   </g>
   <g id="patch_119">
    <path d="M 447.221414 386.130625 
L 450.309309 386.130625 
L 450.309309 383.604679 
L 447.221414 383.604679 
z
" clip-path="url(#p4e5c67efdc)" style="fill: #1f77b4; stroke: #000000; stroke-width: 0.5; stroke-linejoin: miter"/>
   </g>
   <g id="patch_120">
    <path d="M 450.309309 386.130625 
L 453.397204 386.130625 
L 453.397204 383.485107 
L 450.309309 383.485107 
z
" clip-path="url(#p4e5c67efdc)" style="fill: #1f77b4; stroke: #000000; stroke-width: 0.5; stroke-linejoin: miter"/>
   </g>
   <g id="patch_121">
    <path d="M 453.397204 386.130625 
L 456.485099 386.130625 
L 456.485099 383.365536 
L 453.397204 383.365536 
z
" clip-path="url(#p4e5c67efdc)" style="fill: #1f77b4; stroke: #000000; stroke-width: 0.5; stroke-linejoin: miter"/>
   </g>
   <g id="patch_122">
    <path d="M 456.485099 386.130625 
L 459.572993 386.130625 
L 459.572993 383.216072 
L 456.485099 383.216072 
z
" clip-path="url(#p4e5c67efdc)" style="fill: #1f77b4; stroke: #000000; stroke-width: 0.5; stroke-linejoin: miter"/>
   </g>
   <g id="patch_123">
    <path d="M 459.572993 386.130625 
L 462.660888 386.130625 
L 462.660888 383.245964 
L 459.572993 383.245964 
z
" clip-path="url(#p4e5c67efdc)" style="fill: #1f77b4; stroke: #000000; stroke-width: 0.5; stroke-linejoin: miter"/>
   </g>
   <g id="patch_124">
    <path d="M 462.660888 386.130625 
L 465.748783 386.130625 
L 465.748783 383.275857 
L 462.660888 383.275857 
z
" clip-path="url(#p4e5c67efdc)" style="fill: #1f77b4; stroke: #000000; stroke-width: 0.5; stroke-linejoin: miter"/>
   </g>
   <g id="patch_125">
    <path d="M 465.748783 386.130625 
L 468.836678 386.130625 
L 468.836678 383.440268 
L 465.748783 383.440268 
z
" clip-path="url(#p4e5c67efdc)" style="fill: #1f77b4; stroke: #000000; stroke-width: 0.5; stroke-linejoin: miter"/>
   </g>
   <g id="patch_126">
    <path d="M 468.836678 386.130625 
L 471.924572 386.130625 
L 471.924572 383.559839 
L 468.836678 383.559839 
z
" clip-path="url(#p4e5c67efdc)" style="fill: #1f77b4; stroke: #000000; stroke-width: 0.5; stroke-linejoin: miter"/>
   </g>
   <g id="patch_127">
    <path d="M 471.924572 386.130625 
L 475.012467 386.130625 
L 475.012467 383.843822 
L 471.924572 383.843822 
z
" clip-path="url(#p4e5c67efdc)" style="fill: #1f77b4; stroke: #000000; stroke-width: 0.5; stroke-linejoin: miter"/>
   </g>
   <g id="patch_128">
    <path d="M 475.012467 386.130625 
L 478.100362 386.130625 
L 478.100362 384.202536 
L 475.012467 384.202536 
z
" clip-path="url(#p4e5c67efdc)" style="fill: #1f77b4; stroke: #000000; stroke-width: 0.5; stroke-linejoin: miter"/>
   </g>
   <g id="patch_129">
    <path d="M 478.100362 386.130625 
L 481.188257 386.130625 
L 481.188257 384.352 
L 478.100362 384.352 
z
" clip-path="url(#p4e5c67efdc)" style="fill: #1f77b4; stroke: #000000; stroke-width: 0.5; stroke-linejoin: miter"/>
   </g>
   <g id="patch_130">
    <path d="M 481.188257 386.130625 
L 484.276151 386.130625 
L 484.276151 384.665875 
L 481.188257 384.665875 
z
" clip-path="url(#p4e5c67efdc)" style="fill: #1f77b4; stroke: #000000; stroke-width: 0.5; stroke-linejoin: miter"/>
   </g>
   <g id="patch_131">
    <path d="M 484.276151 386.130625 
L 487.364046 386.130625 
L 487.364046 384.964804 
L 484.276151 384.964804 
z
" clip-path="url(#p4e5c67efdc)" style="fill: #1f77b4; stroke: #000000; stroke-width: 0.5; stroke-linejoin: miter"/>
   </g>
   <g id="patch_132">
    <path d="M 487.364046 386.130625 
L 490.451941 386.130625 
L 490.451941 385.084375 
L 487.364046 385.084375 
z
" clip-path="url(#p4e5c67efdc)" style="fill: #1f77b4; stroke: #000000; stroke-width: 0.5; stroke-linejoin: miter"/>
   </g>
   <g id="patch_133">
    <path d="M 490.451941 386.130625 
L 493.539836 386.130625 
L 493.539836 385.263732 
L 490.451941 385.263732 
z
" clip-path="url(#p4e5c67efdc)" style="fill: #1f77b4; stroke: #000000; stroke-width: 0.5; stroke-linejoin: miter"/>
   </g>
   <g id="patch_134">
    <path d="M 493.539836 386.130625 
L 496.62773 386.130625 
L 496.62773 385.39825 
L 493.539836 385.39825 
z
" clip-path="url(#p4e5c67efdc)" style="fill: #1f77b4; stroke: #000000; stroke-width: 0.5; stroke-linejoin: miter"/>
   </g>
   <g id="patch_135">
    <path d="M 496.62773 386.130625 
L 499.715625 386.130625 
L 499.715625 385.472982 
L 496.62773 385.472982 
z
" clip-path="url(#p4e5c67efdc)" style="fill: #1f77b4; stroke: #000000; stroke-width: 0.5; stroke-linejoin: miter"/>
   </g>
   <g id="patch_136">
    <path d="M 499.715625 386.130625 
L 502.80352 386.130625 
L 502.80352 385.443089 
L 499.715625 385.443089 
z
" clip-path="url(#p4e5c67efdc)" style="fill: #1f77b4; stroke: #000000; stroke-width: 0.5; stroke-linejoin: miter"/>
   </g>
   <g id="patch_137">
    <path d="M 502.80352 386.130625 
L 505.891414 386.130625 
L 505.891414 385.472982 
L 502.80352 385.472982 
z
" clip-path="url(#p4e5c67efdc)" style="fill: #1f77b4; stroke: #000000; stroke-width: 0.5; stroke-linejoin: miter"/>
   </g>
   <g id="patch_138">
    <path d="M 505.891414 386.130625 
L 508.979309 386.130625 
L 508.979309 385.517821 
L 505.891414 385.517821 
z
" clip-path="url(#p4e5c67efdc)" style="fill: #1f77b4; stroke: #000000; stroke-width: 0.5; stroke-linejoin: miter"/>
   </g>
   <g id="patch_139">
    <path d="M 508.979309 386.130625 
L 512.067204 386.130625 
L 512.067204 385.472982 
L 508.979309 385.472982 
z
" clip-path="url(#p4e5c67efdc)" style="fill: #1f77b4; stroke: #000000; stroke-width: 0.5; stroke-linejoin: miter"/>
   </g>
   <g id="patch_140">
    <path d="M 512.067204 386.130625 
L 515.155099 386.130625 
L 515.155099 385.487929 
L 512.067204 385.487929 
z
" clip-path="url(#p4e5c67efdc)" style="fill: #1f77b4; stroke: #000000; stroke-width: 0.5; stroke-linejoin: miter"/>
   </g>
   <g id="patch_141">
    <path d="M 515.155099 386.130625 
L 518.242993 386.130625 
L 518.242993 385.443089 
L 515.155099 385.443089 
z
" clip-path="url(#p4e5c67efdc)" style="fill: #1f77b4; stroke: #000000; stroke-width: 0.5; stroke-linejoin: miter"/>
   </g>
   <g id="patch_142">
    <path d="M 518.242993 386.130625 
L 521.330888 386.130625 
L 521.330888 385.413196 
L 518.242993 385.413196 
z
" clip-path="url(#p4e5c67efdc)" style="fill: #1f77b4; stroke: #000000; stroke-width: 0.5; stroke-linejoin: miter"/>
   </g>
   <g id="patch_143">
    <path d="M 521.330888 386.130625 
L 524.418783 386.130625 
L 524.418783 385.353411 
L 521.330888 385.353411 
z
" clip-path="url(#p4e5c67efdc)" style="fill: #1f77b4; stroke: #000000; stroke-width: 0.5; stroke-linejoin: miter"/>
   </g>
   <g id="patch_144">
    <path d="M 524.418783 386.130625 
L 527.506678 386.130625 
L 527.506678 385.278679 
L 524.418783 385.278679 
z
" clip-path="url(#p4e5c67efdc)" style="fill: #1f77b4; stroke: #000000; stroke-width: 0.5; stroke-linejoin: miter"/>
   </g>
   <g id="patch_145">
    <path d="M 527.506678 386.130625 
L 530.594572 386.130625 
L 530.594572 385.233839 
L 527.506678 385.233839 
z
" clip-path="url(#p4e5c67efdc)" style="fill: #1f77b4; stroke: #000000; stroke-width: 0.5; stroke-linejoin: miter"/>
   </g>
   <g id="patch_146">
    <path d="M 530.594572 386.130625 
L 533.682467 386.130625 
L 533.682467 385.203946 
L 530.594572 385.203946 
z
" clip-path="url(#p4e5c67efdc)" style="fill: #1f77b4; stroke: #000000; stroke-width: 0.5; stroke-linejoin: miter"/>
   </g>
   <g id="patch_147">
    <path d="M 533.682467 386.130625 
L 536.770362 386.130625 
L 536.770362 385.203946 
L 533.682467 385.203946 
z
" clip-path="url(#p4e5c67efdc)" style="fill: #1f77b4; stroke: #000000; stroke-width: 0.5; stroke-linejoin: miter"/>
   </g>
   <g id="patch_148">
    <path d="M 536.770362 386.130625 
L 539.858257 386.130625 
L 539.858257 385.189 
L 536.770362 385.189 
z
" clip-path="url(#p4e5c67efdc)" style="fill: #1f77b4; stroke: #000000; stroke-width: 0.5; stroke-linejoin: miter"/>
   </g>
   <g id="patch_149">
    <path d="M 539.858257 386.130625 
L 542.946151 386.130625 
L 542.946151 385.189 
L 539.858257 385.189 
z
" clip-path="url(#p4e5c67efdc)" style="fill: #1f77b4; stroke: #000000; stroke-width: 0.5; stroke-linejoin: miter"/>
   </g>
   <g id="patch_150">
    <path d="M 542.946151 386.130625 
L 546.034046 386.130625 
L 546.034046 385.218893 
L 542.946151 385.218893 
z
" clip-path="url(#p4e5c67efdc)" style="fill: #1f77b4; stroke: #000000; stroke-width: 0.5; stroke-linejoin: miter"/>
   </g>
   <g id="patch_151">
    <path d="M 546.034046 386.130625 
L 549.121941 386.130625 
L 549.121941 385.323518 
L 546.034046 385.323518 
z
" clip-path="url(#p4e5c67efdc)" style="fill: #1f77b4; stroke: #000000; stroke-width: 0.5; stroke-linejoin: miter"/>
   </g>
   <g id="patch_152">
    <path d="M 549.121941 386.130625 
L 552.209836 386.130625 
L 552.209836 385.368357 
L 549.121941 385.368357 
z
" clip-path="url(#p4e5c67efdc)" style="fill: #1f77b4; stroke: #000000; stroke-width: 0.5; stroke-linejoin: miter"/>
   </g>
   <g id="patch_153">
    <path d="M 552.209836 386.130625 
L 555.29773 386.130625 
L 555.29773 385.383304 
L 552.209836 385.383304 
z
" clip-path="url(#p4e5c67efdc)" style="fill: #1f77b4; stroke: #000000; stroke-width: 0.5; stroke-linejoin: miter"/>
   </g>
   <g id="patch_154">
    <path d="M 555.29773 386.130625 
L 558.385625 386.130625 
L 558.385625 385.458036 
L 555.29773 385.458036 
z
" clip-path="url(#p4e5c67efdc)" style="fill: #1f77b4; stroke: #000000; stroke-width: 0.5; stroke-linejoin: miter"/>
   </g>
   <g id="patch_155">
    <path d="M 558.385625 386.130625 
L 561.47352 386.130625 
L 561.47352 385.547714 
L 558.385625 385.547714 
z
" clip-path="url(#p4e5c67efdc)" style="fill: #1f77b4; stroke: #000000; stroke-width: 0.5; stroke-linejoin: miter"/>
   </g>
   <g id="patch_156">
    <path d="M 561.47352 386.130625 
L 564.561414 386.130625 
L 564.561414 385.667286 
L 561.47352 385.667286 
z
" clip-path="url(#p4e5c67efdc)" style="fill: #1f77b4; stroke: #000000; stroke-width: 0.5; stroke-linejoin: miter"/>
   </g>
   <g id="patch_157">
    <path d="M 564.561414 386.130625 
L 567.649309 386.130625 
L 567.649309 385.682232 
L 564.561414 385.682232 
z
" clip-path="url(#p4e5c67efdc)" style="fill: #1f77b4; stroke: #000000; stroke-width: 0.5; stroke-linejoin: miter"/>
   </g>
   <g id="patch_158">
    <path d="M 567.649309 386.130625 
L 570.737204 386.130625 
L 570.737204 385.801804 
L 567.649309 385.801804 
z
" clip-path="url(#p4e5c67efdc)" style="fill: #1f77b4; stroke: #000000; stroke-width: 0.5; stroke-linejoin: miter"/>
   </g>
   <g id="patch_159">
    <path d="M 570.737204 386.130625 
L 573.825099 386.130625 
L 573.825099 385.801804 
L 570.737204 385.801804 
z
" clip-path="url(#p4e5c67efdc)" style="fill: #1f77b4; stroke: #000000; stroke-width: 0.5; stroke-linejoin: miter"/>
   </g>
   <g id="patch_160">
    <path d="M 573.825099 386.130625 
L 576.912993 386.130625 
L 576.912993 385.831696 
L 573.825099 385.831696 
z
" clip-path="url(#p4e5c67efdc)" style="fill: #1f77b4; stroke: #000000; stroke-width: 0.5; stroke-linejoin: miter"/>
   </g>
   <g id="patch_161">
    <path d="M 576.912993 386.130625 
L 580.000888 386.130625 
L 580.000888 385.876536 
L 576.912993 385.876536 
z
" clip-path="url(#p4e5c67efdc)" style="fill: #1f77b4; stroke: #000000; stroke-width: 0.5; stroke-linejoin: miter"/>
   </g>
   <g id="patch_162">
    <path d="M 580.000888 386.130625 
L 583.088783 386.130625 
L 583.088783 385.81675 
L 580.000888 385.81675 
z
" clip-path="url(#p4e5c67efdc)" style="fill: #1f77b4; stroke: #000000; stroke-width: 0.5; stroke-linejoin: miter"/>
   </g>
   <g id="patch_163">
    <path d="M 583.088783 386.130625 
L 586.176678 386.130625 
L 586.176678 385.801804 
L 583.088783 385.801804 
z
" clip-path="url(#p4e5c67efdc)" style="fill: #1f77b4; stroke: #000000; stroke-width: 0.5; stroke-linejoin: miter"/>
   </g>
   <g id="patch_164">
    <path d="M 586.176678 386.130625 
L 589.264572 386.130625 
L 589.264572 385.801804 
L 586.176678 385.801804 
z
" clip-path="url(#p4e5c67efdc)" style="fill: #1f77b4; stroke: #000000; stroke-width: 0.5; stroke-linejoin: miter"/>
   </g>
   <g id="patch_165">
    <path d="M 589.264572 386.130625 
L 592.352467 386.130625 
L 592.352467 385.801804 
L 589.264572 385.801804 
z
" clip-path="url(#p4e5c67efdc)" style="fill: #1f77b4; stroke: #000000; stroke-width: 0.5; stroke-linejoin: miter"/>
   </g>
   <g id="patch_166">
    <path d="M 592.352467 386.130625 
L 595.440362 386.130625 
L 595.440362 385.81675 
L 592.352467 385.81675 
z
" clip-path="url(#p4e5c67efdc)" style="fill: #1f77b4; stroke: #000000; stroke-width: 0.5; stroke-linejoin: miter"/>
   </g>
   <g id="patch_167">
    <path d="M 595.440362 386.130625 
L 598.528257 386.130625 
L 598.528257 385.801804 
L 595.440362 385.801804 
z
" clip-path="url(#p4e5c67efdc)" style="fill: #1f77b4; stroke: #000000; stroke-width: 0.5; stroke-linejoin: miter"/>
   </g>
   <g id="patch_168">
    <path d="M 598.528257 386.130625 
L 601.616151 386.130625 
L 601.616151 385.81675 
L 598.528257 385.81675 
z
" clip-path="url(#p4e5c67efdc)" style="fill: #1f77b4; stroke: #000000; stroke-width: 0.5; stroke-linejoin: miter"/>
   </g>
   <g id="patch_169">
    <path d="M 601.616151 386.130625 
L 604.704046 386.130625 
L 604.704046 385.831696 
L 601.616151 385.831696 
z
" clip-path="url(#p4e5c67efdc)" style="fill: #1f77b4; stroke: #000000; stroke-width: 0.5; stroke-linejoin: miter"/>
   </g>
   <g id="patch_170">
    <path d="M 604.704046 386.130625 
L 607.791941 386.130625 
L 607.791941 385.846643 
L 604.704046 385.846643 
z
" clip-path="url(#p4e5c67efdc)" style="fill: #1f77b4; stroke: #000000; stroke-width: 0.5; stroke-linejoin: miter"/>
   </g>
   <g id="patch_171">
    <path d="M 607.791941 386.130625 
L 610.879836 386.130625 
L 610.879836 385.831696 
L 607.791941 385.831696 
z
" clip-path="url(#p4e5c67efdc)" style="fill: #1f77b4; stroke: #000000; stroke-width: 0.5; stroke-linejoin: miter"/>
   </g>
   <g id="patch_172">
    <path d="M 610.879836 386.130625 
L 613.96773 386.130625 
L 613.96773 385.876536 
L 610.879836 385.876536 
z
" clip-path="url(#p4e5c67efdc)" style="fill: #1f77b4; stroke: #000000; stroke-width: 0.5; stroke-linejoin: miter"/>
   </g>
   <g id="patch_173">
    <path d="M 613.96773 386.130625 
L 617.055625 386.130625 
L 617.055625 385.876536 
L 613.96773 385.876536 
z
" clip-path="url(#p4e5c67efdc)" style="fill: #1f77b4; stroke: #000000; stroke-width: 0.5; stroke-linejoin: miter"/>
   </g>
   <g id="patch_174">
    <path d="M 617.055625 386.130625 
L 620.14352 386.130625 
L 620.14352 385.846643 
L 617.055625 385.846643 
z
" clip-path="url(#p4e5c67efdc)" style="fill: #1f77b4; stroke: #000000; stroke-width: 0.5; stroke-linejoin: miter"/>
   </g>
   <g id="patch_175">
    <path d="M 620.14352 386.130625 
L 623.231414 386.130625 
L 623.231414 385.846643 
L 620.14352 385.846643 
z
" clip-path="url(#p4e5c67efdc)" style="fill: #1f77b4; stroke: #000000; stroke-width: 0.5; stroke-linejoin: miter"/>
   </g>
   <g id="patch_176">
    <path d="M 623.231414 386.130625 
L 626.319309 386.130625 
L 626.319309 385.876536 
L 623.231414 385.876536 
z
" clip-path="url(#p4e5c67efdc)" style="fill: #1f77b4; stroke: #000000; stroke-width: 0.5; stroke-linejoin: miter"/>
   </g>
   <g id="patch_177">
    <path d="M 626.319309 386.130625 
L 629.407204 386.130625 
L 629.407204 385.921375 
L 626.319309 385.921375 
z
" clip-path="url(#p4e5c67efdc)" style="fill: #1f77b4; stroke: #000000; stroke-width: 0.5; stroke-linejoin: miter"/>
   </g>
   <g id="patch_178">
    <path d="M 629.407204 386.130625 
L 632.495099 386.130625 
L 632.495099 385.936321 
L 629.407204 385.936321 
z
" clip-path="url(#p4e5c67efdc)" style="fill: #1f77b4; stroke: #000000; stroke-width: 0.5; stroke-linejoin: miter"/>
   </g>
   <g id="patch_179">
    <path d="M 632.495099 386.130625 
L 635.582993 386.130625 
L 635.582993 385.936321 
L 632.495099 385.936321 
z
" clip-path="url(#p4e5c67efdc)" style="fill: #1f77b4; stroke: #000000; stroke-width: 0.5; stroke-linejoin: miter"/>
   </g>
   <g id="patch_180">
    <path d="M 635.582993 386.130625 
L 638.670888 386.130625 
L 638.670888 385.936321 
L 635.582993 385.936321 
z
" clip-path="url(#p4e5c67efdc)" style="fill: #1f77b4; stroke: #000000; stroke-width: 0.5; stroke-linejoin: miter"/>
   </g>
   <g id="patch_181">
    <path d="M 638.670888 386.130625 
L 641.758783 386.130625 
L 641.758783 385.951268 
L 638.670888 385.951268 
z
" clip-path="url(#p4e5c67efdc)" style="fill: #1f77b4; stroke: #000000; stroke-width: 0.5; stroke-linejoin: miter"/>
   </g>
   <g id="patch_182">
    <path d="M 641.758783 386.130625 
L 644.846678 386.130625 
L 644.846678 385.966214 
L 641.758783 385.966214 
z
" clip-path="url(#p4e5c67efdc)" style="fill: #1f77b4; stroke: #000000; stroke-width: 0.5; stroke-linejoin: miter"/>
   </g>
   <g id="patch_183">
    <path d="M 644.846678 386.130625 
L 647.934572 386.130625 
L 647.934572 385.996107 
L 644.846678 385.996107 
z
" clip-path="url(#p4e5c67efdc)" style="fill: #1f77b4; stroke: #000000; stroke-width: 0.5; stroke-linejoin: miter"/>
   </g>
   <g id="patch_184">
    <path d="M 647.934572 386.130625 
L 651.022467 386.130625 
L 651.022467 386.026 
L 647.934572 386.026 
z
" clip-path="url(#p4e5c67efdc)" style="fill: #1f77b4; stroke: #000000; stroke-width: 0.5; stroke-linejoin: miter"/>
   </g>
   <g id="patch_185">
    <path d="M 651.022467 386.130625 
L 654.110362 386.130625 
L 654.110362 386.055893 
L 651.022467 386.055893 
z
" clip-path="url(#p4e5c67efdc)" style="fill: #1f77b4; stroke: #000000; stroke-width: 0.5; stroke-linejoin: miter"/>
   </g>
   <g id="patch_186">
    <path d="M 654.110362 386.130625 
L 657.198257 386.130625 
L 657.198257 386.085786 
L 654.110362 386.085786 
z
" clip-path="url(#p4e5c67efdc)" style="fill: #1f77b4; stroke: #000000; stroke-width: 0.5; stroke-linejoin: miter"/>
   </g>
   <g id="patch_187">
    <path d="M 657.198257 386.130625 
L 660.286151 386.130625 
L 660.286151 386.100732 
L 657.198257 386.100732 
z
" clip-path="url(#p4e5c67efdc)" style="fill: #1f77b4; stroke: #000000; stroke-width: 0.5; stroke-linejoin: miter"/>
   </g>
   <g id="patch_188">
    <path d="M 660.286151 386.130625 
L 663.374046 386.130625 
L 663.374046 386.100732 
L 660.286151 386.100732 
z
" clip-path="url(#p4e5c67efdc)" style="fill: #1f77b4; stroke: #000000; stroke-width: 0.5; stroke-linejoin: miter"/>
   </g>
   <g id="patch_189">
    <path d="M 663.374046 386.130625 
L 666.461941 386.130625 
L 666.461941 386.100732 
L 663.374046 386.100732 
z
" clip-path="url(#p4e5c67efdc)" style="fill: #1f77b4; stroke: #000000; stroke-width: 0.5; stroke-linejoin: miter"/>
   </g>
   <g id="patch_190">
    <path d="M 666.461941 386.130625 
L 669.549836 386.130625 
L 669.549836 386.115679 
L 666.461941 386.115679 
z
" clip-path="url(#p4e5c67efdc)" style="fill: #1f77b4; stroke: #000000; stroke-width: 0.5; stroke-linejoin: miter"/>
   </g>
   <g id="patch_191">
    <path d="M 669.549836 386.130625 
L 672.63773 386.130625 
L 672.63773 386.115679 
L 669.549836 386.115679 
z
" clip-path="url(#p4e5c67efdc)" style="fill: #1f77b4; stroke: #000000; stroke-width: 0.5; stroke-linejoin: miter"/>
   </g>
   <g id="patch_192">
    <path d="M 672.63773 386.130625 
L 675.725625 386.130625 
L 675.725625 386.115679 
L 672.63773 386.115679 
z
" clip-path="url(#p4e5c67efdc)" style="fill: #1f77b4; stroke: #000000; stroke-width: 0.5; stroke-linejoin: miter"/>
   </g>
   <g id="matplotlib.axis_1">
    <g id="xtick_1">
     <g id="line2d_1">
      <defs>
       <path id="meb9849e22c" d="M 0 0 
L 0 3.5 
" style="stroke: #000000; stroke-width: 0.8"/>
      </defs>
      <g>
       <use xlink:href="#meb9849e22c" x="85.904881" y="386.130625" style="stroke: #000000; stroke-width: 0.8"/>
      </g>
     </g>
     <g id="text_1">
      <!-- 0 -->
      <g transform="translate(82.723631 400.729062) scale(0.1 -0.1)">
       <defs>
        <path id="DejaVuSans-30" d="M 2034 4250 
Q 1547 4250 1301 3770 
Q 1056 3291 1056 2328 
Q 1056 1369 1301 889 
Q 1547 409 2034 409 
Q 2525 409 2770 889 
Q 3016 1369 3016 2328 
Q 3016 3291 2770 3770 
Q 2525 4250 2034 4250 
z
M 2034 4750 
Q 2819 4750 3233 4129 
Q 3647 3509 3647 2328 
Q 3647 1150 3233 529 
Q 2819 -91 2034 -91 
Q 1250 -91 836 529 
Q 422 1150 422 2328 
Q 422 3509 836 4129 
Q 1250 4750 2034 4750 
z
" transform="scale(0.015625)"/>
       </defs>
       <use xlink:href="#DejaVuSans-30"/>
      </g>
     </g>
    </g>
    <g id="xtick_2">
     <g id="line2d_2">
      <g>
       <use xlink:href="#meb9849e22c" x="195.404694" y="386.130625" style="stroke: #000000; stroke-width: 0.8"/>
      </g>
     </g>
     <g id="text_2">
      <!-- 500 -->
      <g transform="translate(185.860944 400.729062) scale(0.1 -0.1)">
       <defs>
        <path id="DejaVuSans-35" d="M 691 4666 
L 3169 4666 
L 3169 4134 
L 1269 4134 
L 1269 2991 
Q 1406 3038 1543 3061 
Q 1681 3084 1819 3084 
Q 2600 3084 3056 2656 
Q 3513 2228 3513 1497 
Q 3513 744 3044 326 
Q 2575 -91 1722 -91 
Q 1428 -91 1123 -41 
Q 819 9 494 109 
L 494 744 
Q 775 591 1075 516 
Q 1375 441 1709 441 
Q 2250 441 2565 725 
Q 2881 1009 2881 1497 
Q 2881 1984 2565 2268 
Q 2250 2553 1709 2553 
Q 1456 2553 1204 2497 
Q 953 2441 691 2322 
L 691 4666 
z
" transform="scale(0.015625)"/>
       </defs>
       <use xlink:href="#DejaVuSans-35"/>
       <use xlink:href="#DejaVuSans-30" transform="translate(63.623047 0)"/>
       <use xlink:href="#DejaVuSans-30" transform="translate(127.246094 0)"/>
      </g>
     </g>
    </g>
    <g id="xtick_3">
     <g id="line2d_3">
      <g>
       <use xlink:href="#meb9849e22c" x="304.904507" y="386.130625" style="stroke: #000000; stroke-width: 0.8"/>
      </g>
     </g>
     <g id="text_3">
      <!-- 1000 -->
      <g transform="translate(292.179507 400.729062) scale(0.1 -0.1)">
       <defs>
        <path id="DejaVuSans-31" d="M 794 531 
L 1825 531 
L 1825 4091 
L 703 3866 
L 703 4441 
L 1819 4666 
L 2450 4666 
L 2450 531 
L 3481 531 
L 3481 0 
L 794 0 
L 794 531 
z
" transform="scale(0.015625)"/>
       </defs>
       <use xlink:href="#DejaVuSans-31"/>
       <use xlink:href="#DejaVuSans-30" transform="translate(63.623047 0)"/>
       <use xlink:href="#DejaVuSans-30" transform="translate(127.246094 0)"/>
       <use xlink:href="#DejaVuSans-30" transform="translate(190.869141 0)"/>
      </g>
     </g>
    </g>
    <g id="xtick_4">
     <g id="line2d_4">
      <g>
       <use xlink:href="#meb9849e22c" x="414.40432" y="386.130625" style="stroke: #000000; stroke-width: 0.8"/>
      </g>
     </g>
     <g id="text_4">
      <!-- 1500 -->
      <g transform="translate(401.67932 400.729062) scale(0.1 -0.1)">
       <use xlink:href="#DejaVuSans-31"/>
       <use xlink:href="#DejaVuSans-35" transform="translate(63.623047 0)"/>
       <use xlink:href="#DejaVuSans-30" transform="translate(127.246094 0)"/>
       <use xlink:href="#DejaVuSans-30" transform="translate(190.869141 0)"/>
      </g>
     </g>
    </g>
    <g id="xtick_5">
     <g id="line2d_5">
      <g>
       <use xlink:href="#meb9849e22c" x="523.904134" y="386.130625" style="stroke: #000000; stroke-width: 0.8"/>
      </g>
     </g>
     <g id="text_5">
      <!-- 2000 -->
      <g transform="translate(511.179134 400.729062) scale(0.1 -0.1)">
       <defs>
        <path id="DejaVuSans-32" d="M 1228 531 
L 3431 531 
L 3431 0 
L 469 0 
L 469 531 
Q 828 903 1448 1529 
Q 2069 2156 2228 2338 
Q 2531 2678 2651 2914 
Q 2772 3150 2772 3378 
Q 2772 3750 2511 3984 
Q 2250 4219 1831 4219 
Q 1534 4219 1204 4116 
Q 875 4013 500 3803 
L 500 4441 
Q 881 4594 1212 4672 
Q 1544 4750 1819 4750 
Q 2544 4750 2975 4387 
Q 3406 4025 3406 3419 
Q 3406 3131 3298 2873 
Q 3191 2616 2906 2266 
Q 2828 2175 2409 1742 
Q 1991 1309 1228 531 
z
" transform="scale(0.015625)"/>
       </defs>
       <use xlink:href="#DejaVuSans-32"/>
       <use xlink:href="#DejaVuSans-30" transform="translate(63.623047 0)"/>
       <use xlink:href="#DejaVuSans-30" transform="translate(127.246094 0)"/>
       <use xlink:href="#DejaVuSans-30" transform="translate(190.869141 0)"/>
      </g>
     </g>
    </g>
    <g id="xtick_6">
     <g id="line2d_6">
      <g>
       <use xlink:href="#meb9849e22c" x="633.403947" y="386.130625" style="stroke: #000000; stroke-width: 0.8"/>
      </g>
     </g>
     <g id="text_6">
      <!-- 2500 -->
      <g transform="translate(620.678947 400.729062) scale(0.1 -0.1)">
       <use xlink:href="#DejaVuSans-32"/>
       <use xlink:href="#DejaVuSans-35" transform="translate(63.623047 0)"/>
       <use xlink:href="#DejaVuSans-30" transform="translate(127.246094 0)"/>
       <use xlink:href="#DejaVuSans-30" transform="translate(190.869141 0)"/>
      </g>
     </g>
    </g>
    <g id="text_7">
     <!-- Pairwise intra-class distances [Å] -->
     <g transform="translate(300.184219 415.330625) scale(0.1 -0.1)">
      <defs>
       <path id="DejaVuSans-50" d="M 1259 4147 
L 1259 2394 
L 2053 2394 
Q 2494 2394 2734 2622 
Q 2975 2850 2975 3272 
Q 2975 3691 2734 3919 
Q 2494 4147 2053 4147 
L 1259 4147 
z
M 628 4666 
L 2053 4666 
Q 2838 4666 3239 4311 
Q 3641 3956 3641 3272 
Q 3641 2581 3239 2228 
Q 2838 1875 2053 1875 
L 1259 1875 
L 1259 0 
L 628 0 
L 628 4666 
z
" transform="scale(0.015625)"/>
       <path id="DejaVuSans-61" d="M 2194 1759 
Q 1497 1759 1228 1600 
Q 959 1441 959 1056 
Q 959 750 1161 570 
Q 1363 391 1709 391 
Q 2188 391 2477 730 
Q 2766 1069 2766 1631 
L 2766 1759 
L 2194 1759 
z
M 3341 1997 
L 3341 0 
L 2766 0 
L 2766 531 
Q 2569 213 2275 61 
Q 1981 -91 1556 -91 
Q 1019 -91 701 211 
Q 384 513 384 1019 
Q 384 1609 779 1909 
Q 1175 2209 1959 2209 
L 2766 2209 
L 2766 2266 
Q 2766 2663 2505 2880 
Q 2244 3097 1772 3097 
Q 1472 3097 1187 3025 
Q 903 2953 641 2809 
L 641 3341 
Q 956 3463 1253 3523 
Q 1550 3584 1831 3584 
Q 2591 3584 2966 3190 
Q 3341 2797 3341 1997 
z
" transform="scale(0.015625)"/>
       <path id="DejaVuSans-69" d="M 603 3500 
L 1178 3500 
L 1178 0 
L 603 0 
L 603 3500 
z
M 603 4863 
L 1178 4863 
L 1178 4134 
L 603 4134 
L 603 4863 
z
" transform="scale(0.015625)"/>
       <path id="DejaVuSans-72" d="M 2631 2963 
Q 2534 3019 2420 3045 
Q 2306 3072 2169 3072 
Q 1681 3072 1420 2755 
Q 1159 2438 1159 1844 
L 1159 0 
L 581 0 
L 581 3500 
L 1159 3500 
L 1159 2956 
Q 1341 3275 1631 3429 
Q 1922 3584 2338 3584 
Q 2397 3584 2469 3576 
Q 2541 3569 2628 3553 
L 2631 2963 
z
" transform="scale(0.015625)"/>
       <path id="DejaVuSans-77" d="M 269 3500 
L 844 3500 
L 1563 769 
L 2278 3500 
L 2956 3500 
L 3675 769 
L 4391 3500 
L 4966 3500 
L 4050 0 
L 3372 0 
L 2619 2869 
L 1863 0 
L 1184 0 
L 269 3500 
z
" transform="scale(0.015625)"/>
       <path id="DejaVuSans-73" d="M 2834 3397 
L 2834 2853 
Q 2591 2978 2328 3040 
Q 2066 3103 1784 3103 
Q 1356 3103 1142 2972 
Q 928 2841 928 2578 
Q 928 2378 1081 2264 
Q 1234 2150 1697 2047 
L 1894 2003 
Q 2506 1872 2764 1633 
Q 3022 1394 3022 966 
Q 3022 478 2636 193 
Q 2250 -91 1575 -91 
Q 1294 -91 989 -36 
Q 684 19 347 128 
L 347 722 
Q 666 556 975 473 
Q 1284 391 1588 391 
Q 1994 391 2212 530 
Q 2431 669 2431 922 
Q 2431 1156 2273 1281 
Q 2116 1406 1581 1522 
L 1381 1569 
Q 847 1681 609 1914 
Q 372 2147 372 2553 
Q 372 3047 722 3315 
Q 1072 3584 1716 3584 
Q 2034 3584 2315 3537 
Q 2597 3491 2834 3397 
z
" transform="scale(0.015625)"/>
       <path id="DejaVuSans-65" d="M 3597 1894 
L 3597 1613 
L 953 1613 
Q 991 1019 1311 708 
Q 1631 397 2203 397 
Q 2534 397 2845 478 
Q 3156 559 3463 722 
L 3463 178 
Q 3153 47 2828 -22 
Q 2503 -91 2169 -91 
Q 1331 -91 842 396 
Q 353 884 353 1716 
Q 353 2575 817 3079 
Q 1281 3584 2069 3584 
Q 2775 3584 3186 3129 
Q 3597 2675 3597 1894 
z
M 3022 2063 
Q 3016 2534 2758 2815 
Q 2500 3097 2075 3097 
Q 1594 3097 1305 2825 
Q 1016 2553 972 2059 
L 3022 2063 
z
" transform="scale(0.015625)"/>
       <path id="DejaVuSans-20" transform="scale(0.015625)"/>
       <path id="DejaVuSans-6e" d="M 3513 2113 
L 3513 0 
L 2938 0 
L 2938 2094 
Q 2938 2591 2744 2837 
Q 2550 3084 2163 3084 
Q 1697 3084 1428 2787 
Q 1159 2491 1159 1978 
L 1159 0 
L 581 0 
L 581 3500 
L 1159 3500 
L 1159 2956 
Q 1366 3272 1645 3428 
Q 1925 3584 2291 3584 
Q 2894 3584 3203 3211 
Q 3513 2838 3513 2113 
z
" transform="scale(0.015625)"/>
       <path id="DejaVuSans-74" d="M 1172 4494 
L 1172 3500 
L 2356 3500 
L 2356 3053 
L 1172 3053 
L 1172 1153 
Q 1172 725 1289 603 
Q 1406 481 1766 481 
L 2356 481 
L 2356 0 
L 1766 0 
Q 1100 0 847 248 
Q 594 497 594 1153 
L 594 3053 
L 172 3053 
L 172 3500 
L 594 3500 
L 594 4494 
L 1172 4494 
z
" transform="scale(0.015625)"/>
       <path id="DejaVuSans-2d" d="M 313 2009 
L 1997 2009 
L 1997 1497 
L 313 1497 
L 313 2009 
z
" transform="scale(0.015625)"/>
       <path id="DejaVuSans-63" d="M 3122 3366 
L 3122 2828 
Q 2878 2963 2633 3030 
Q 2388 3097 2138 3097 
Q 1578 3097 1268 2742 
Q 959 2388 959 1747 
Q 959 1106 1268 751 
Q 1578 397 2138 397 
Q 2388 397 2633 464 
Q 2878 531 3122 666 
L 3122 134 
Q 2881 22 2623 -34 
Q 2366 -91 2075 -91 
Q 1284 -91 818 406 
Q 353 903 353 1747 
Q 353 2603 823 3093 
Q 1294 3584 2113 3584 
Q 2378 3584 2631 3529 
Q 2884 3475 3122 3366 
z
" transform="scale(0.015625)"/>
       <path id="DejaVuSans-6c" d="M 603 4863 
L 1178 4863 
L 1178 0 
L 603 0 
L 603 4863 
z
" transform="scale(0.015625)"/>
       <path id="DejaVuSans-64" d="M 2906 2969 
L 2906 4863 
L 3481 4863 
L 3481 0 
L 2906 0 
L 2906 525 
Q 2725 213 2448 61 
Q 2172 -91 1784 -91 
Q 1150 -91 751 415 
Q 353 922 353 1747 
Q 353 2572 751 3078 
Q 1150 3584 1784 3584 
Q 2172 3584 2448 3432 
Q 2725 3281 2906 2969 
z
M 947 1747 
Q 947 1113 1208 752 
Q 1469 391 1925 391 
Q 2381 391 2643 752 
Q 2906 1113 2906 1747 
Q 2906 2381 2643 2742 
Q 2381 3103 1925 3103 
Q 1469 3103 1208 2742 
Q 947 2381 947 1747 
z
" transform="scale(0.015625)"/>
       <path id="DejaVuSans-5b" d="M 550 4863 
L 1875 4863 
L 1875 4416 
L 1125 4416 
L 1125 -397 
L 1875 -397 
L 1875 -844 
L 550 -844 
L 550 4863 
z
" transform="scale(0.015625)"/>
       <path id="DejaVuSans-c5" d="M 2663 5081 
Q 2663 5278 2523 5417 
Q 2384 5556 2188 5556 
Q 1988 5556 1852 5420 
Q 1716 5284 1716 5081 
Q 1716 4884 1853 4746 
Q 1991 4609 2188 4609 
Q 2384 4609 2523 4746 
Q 2663 4884 2663 5081 
z
M 2188 4044 
L 1338 1722 
L 3041 1722 
L 2188 4044 
z
M 1716 4366 
Q 1525 4494 1428 4673 
Q 1331 4853 1331 5081 
Q 1331 5441 1579 5691 
Q 1828 5941 2188 5941 
Q 2544 5941 2795 5689 
Q 3047 5438 3047 5081 
Q 3047 4863 2948 4678 
Q 2850 4494 2663 4366 
L 4325 0 
L 3669 0 
L 3244 1197 
L 1141 1197 
L 716 0 
L 50 0 
L 1716 4366 
z
" transform="scale(0.015625)"/>
       <path id="DejaVuSans-5d" d="M 1947 4863 
L 1947 -844 
L 622 -844 
L 622 -397 
L 1369 -397 
L 1369 4416 
L 622 4416 
L 622 4863 
L 1947 4863 
z
" transform="scale(0.015625)"/>
      </defs>
      <use xlink:href="#DejaVuSans-50"/>
      <use xlink:href="#DejaVuSans-61" transform="translate(55.802734 0)"/>
      <use xlink:href="#DejaVuSans-69" transform="translate(117.082031 0)"/>
      <use xlink:href="#DejaVuSans-72" transform="translate(144.865234 0)"/>
      <use xlink:href="#DejaVuSans-77" transform="translate(185.978516 0)"/>
      <use xlink:href="#DejaVuSans-69" transform="translate(267.765625 0)"/>
      <use xlink:href="#DejaVuSans-73" transform="translate(295.548828 0)"/>
      <use xlink:href="#DejaVuSans-65" transform="translate(347.648438 0)"/>
      <use xlink:href="#DejaVuSans-20" transform="translate(409.171875 0)"/>
      <use xlink:href="#DejaVuSans-69" transform="translate(440.958984 0)"/>
      <use xlink:href="#DejaVuSans-6e" transform="translate(468.742188 0)"/>
      <use xlink:href="#DejaVuSans-74" transform="translate(532.121094 0)"/>
      <use xlink:href="#DejaVuSans-72" transform="translate(571.330078 0)"/>
      <use xlink:href="#DejaVuSans-61" transform="translate(612.443359 0)"/>
      <use xlink:href="#DejaVuSans-2d" transform="translate(673.722656 0)"/>
      <use xlink:href="#DejaVuSans-63" transform="translate(709.806641 0)"/>
      <use xlink:href="#DejaVuSans-6c" transform="translate(764.787109 0)"/>
      <use xlink:href="#DejaVuSans-61" transform="translate(792.570312 0)"/>
      <use xlink:href="#DejaVuSans-73" transform="translate(853.849609 0)"/>
      <use xlink:href="#DejaVuSans-73" transform="translate(905.949219 0)"/>
      <use xlink:href="#DejaVuSans-20" transform="translate(958.048828 0)"/>
      <use xlink:href="#DejaVuSans-64" transform="translate(989.835938 0)"/>
      <use xlink:href="#DejaVuSans-69" transform="translate(1053.3125 0)"/>
      <use xlink:href="#DejaVuSans-73" transform="translate(1081.095703 0)"/>
      <use xlink:href="#DejaVuSans-74" transform="translate(1133.195312 0)"/>
      <use xlink:href="#DejaVuSans-61" transform="translate(1172.404297 0)"/>
      <use xlink:href="#DejaVuSans-6e" transform="translate(1233.683594 0)"/>
      <use xlink:href="#DejaVuSans-63" transform="translate(1297.0625 0)"/>
      <use xlink:href="#DejaVuSans-65" transform="translate(1352.042969 0)"/>
      <use xlink:href="#DejaVuSans-73" transform="translate(1413.566406 0)"/>
      <use xlink:href="#DejaVuSans-20" transform="translate(1465.666016 0)"/>
      <use xlink:href="#DejaVuSans-5b" transform="translate(1497.453125 0)"/>
      <use xlink:href="#DejaVuSans-c5" transform="translate(1536.466797 0)"/>
      <use xlink:href="#DejaVuSans-5d" transform="translate(1604.875 0)"/>
     </g>
    </g>
   </g>
   <g id="matplotlib.axis_2">
    <g id="ytick_1">
     <g id="line2d_7">
      <defs>
       <path id="m23c8bf687b" d="M 0 0 
L -3.5 0 
" style="stroke: #000000; stroke-width: 0.8"/>
      </defs>
      <g>
       <use xlink:href="#m23c8bf687b" x="59.690625" y="386.130625" style="stroke: #000000; stroke-width: 0.8"/>
      </g>
     </g>
     <g id="text_8">
      <!-- 0 -->
      <g transform="translate(46.328125 389.929844) scale(0.1 -0.1)">
       <use xlink:href="#DejaVuSans-30"/>
      </g>
     </g>
    </g>
    <g id="ytick_2">
     <g id="line2d_8">
      <g>
       <use xlink:href="#m23c8bf687b" x="59.690625" y="311.398485" style="stroke: #000000; stroke-width: 0.8"/>
      </g>
     </g>
     <g id="text_9">
      <!-- 5000 -->
      <g transform="translate(27.240625 315.197703) scale(0.1 -0.1)">
       <use xlink:href="#DejaVuSans-35"/>
       <use xlink:href="#DejaVuSans-30" transform="translate(63.623047 0)"/>
       <use xlink:href="#DejaVuSans-30" transform="translate(127.246094 0)"/>
       <use xlink:href="#DejaVuSans-30" transform="translate(190.869141 0)"/>
      </g>
     </g>
    </g>
    <g id="ytick_3">
     <g id="line2d_9">
      <g>
       <use xlink:href="#m23c8bf687b" x="59.690625" y="236.666344" style="stroke: #000000; stroke-width: 0.8"/>
      </g>
     </g>
     <g id="text_10">
      <!-- 10000 -->
      <g transform="translate(20.878125 240.465563) scale(0.1 -0.1)">
       <use xlink:href="#DejaVuSans-31"/>
       <use xlink:href="#DejaVuSans-30" transform="translate(63.623047 0)"/>
       <use xlink:href="#DejaVuSans-30" transform="translate(127.246094 0)"/>
       <use xlink:href="#DejaVuSans-30" transform="translate(190.869141 0)"/>
       <use xlink:href="#DejaVuSans-30" transform="translate(254.492188 0)"/>
      </g>
     </g>
    </g>
    <g id="ytick_4">
     <g id="line2d_10">
      <g>
       <use xlink:href="#m23c8bf687b" x="59.690625" y="161.934204" style="stroke: #000000; stroke-width: 0.8"/>
      </g>
     </g>
     <g id="text_11">
      <!-- 15000 -->
      <g transform="translate(20.878125 165.733423) scale(0.1 -0.1)">
       <use xlink:href="#DejaVuSans-31"/>
       <use xlink:href="#DejaVuSans-35" transform="translate(63.623047 0)"/>
       <use xlink:href="#DejaVuSans-30" transform="translate(127.246094 0)"/>
       <use xlink:href="#DejaVuSans-30" transform="translate(190.869141 0)"/>
       <use xlink:href="#DejaVuSans-30" transform="translate(254.492188 0)"/>
      </g>
     </g>
    </g>
    <g id="ytick_5">
     <g id="line2d_11">
      <g>
       <use xlink:href="#m23c8bf687b" x="59.690625" y="87.202064" style="stroke: #000000; stroke-width: 0.8"/>
      </g>
     </g>
     <g id="text_12">
      <!-- 20000 -->
      <g transform="translate(20.878125 91.001283) scale(0.1 -0.1)">
       <use xlink:href="#DejaVuSans-32"/>
       <use xlink:href="#DejaVuSans-30" transform="translate(63.623047 0)"/>
       <use xlink:href="#DejaVuSans-30" transform="translate(127.246094 0)"/>
       <use xlink:href="#DejaVuSans-30" transform="translate(190.869141 0)"/>
       <use xlink:href="#DejaVuSans-30" transform="translate(254.492188 0)"/>
      </g>
     </g>
    </g>
    <g id="text_13">
     <!-- Counts (total = 379484) -->
     <g transform="translate(14.798438 265.056406) rotate(-90) scale(0.1 -0.1)">
      <defs>
       <path id="DejaVuSans-43" d="M 4122 4306 
L 4122 3641 
Q 3803 3938 3442 4084 
Q 3081 4231 2675 4231 
Q 1875 4231 1450 3742 
Q 1025 3253 1025 2328 
Q 1025 1406 1450 917 
Q 1875 428 2675 428 
Q 3081 428 3442 575 
Q 3803 722 4122 1019 
L 4122 359 
Q 3791 134 3420 21 
Q 3050 -91 2638 -91 
Q 1578 -91 968 557 
Q 359 1206 359 2328 
Q 359 3453 968 4101 
Q 1578 4750 2638 4750 
Q 3056 4750 3426 4639 
Q 3797 4528 4122 4306 
z
" transform="scale(0.015625)"/>
       <path id="DejaVuSans-6f" d="M 1959 3097 
Q 1497 3097 1228 2736 
Q 959 2375 959 1747 
Q 959 1119 1226 758 
Q 1494 397 1959 397 
Q 2419 397 2687 759 
Q 2956 1122 2956 1747 
Q 2956 2369 2687 2733 
Q 2419 3097 1959 3097 
z
M 1959 3584 
Q 2709 3584 3137 3096 
Q 3566 2609 3566 1747 
Q 3566 888 3137 398 
Q 2709 -91 1959 -91 
Q 1206 -91 779 398 
Q 353 888 353 1747 
Q 353 2609 779 3096 
Q 1206 3584 1959 3584 
z
" transform="scale(0.015625)"/>
       <path id="DejaVuSans-75" d="M 544 1381 
L 544 3500 
L 1119 3500 
L 1119 1403 
Q 1119 906 1312 657 
Q 1506 409 1894 409 
Q 2359 409 2629 706 
Q 2900 1003 2900 1516 
L 2900 3500 
L 3475 3500 
L 3475 0 
L 2900 0 
L 2900 538 
Q 2691 219 2414 64 
Q 2138 -91 1772 -91 
Q 1169 -91 856 284 
Q 544 659 544 1381 
z
M 1991 3584 
L 1991 3584 
z
" transform="scale(0.015625)"/>
       <path id="DejaVuSans-28" d="M 1984 4856 
Q 1566 4138 1362 3434 
Q 1159 2731 1159 2009 
Q 1159 1288 1364 580 
Q 1569 -128 1984 -844 
L 1484 -844 
Q 1016 -109 783 600 
Q 550 1309 550 2009 
Q 550 2706 781 3412 
Q 1013 4119 1484 4856 
L 1984 4856 
z
" transform="scale(0.015625)"/>
       <path id="DejaVuSans-3d" d="M 678 2906 
L 4684 2906 
L 4684 2381 
L 678 2381 
L 678 2906 
z
M 678 1631 
L 4684 1631 
L 4684 1100 
L 678 1100 
L 678 1631 
z
" transform="scale(0.015625)"/>
       <path id="DejaVuSans-33" d="M 2597 2516 
Q 3050 2419 3304 2112 
Q 3559 1806 3559 1356 
Q 3559 666 3084 287 
Q 2609 -91 1734 -91 
Q 1441 -91 1130 -33 
Q 819 25 488 141 
L 488 750 
Q 750 597 1062 519 
Q 1375 441 1716 441 
Q 2309 441 2620 675 
Q 2931 909 2931 1356 
Q 2931 1769 2642 2001 
Q 2353 2234 1838 2234 
L 1294 2234 
L 1294 2753 
L 1863 2753 
Q 2328 2753 2575 2939 
Q 2822 3125 2822 3475 
Q 2822 3834 2567 4026 
Q 2313 4219 1838 4219 
Q 1578 4219 1281 4162 
Q 984 4106 628 3988 
L 628 4550 
Q 988 4650 1302 4700 
Q 1616 4750 1894 4750 
Q 2613 4750 3031 4423 
Q 3450 4097 3450 3541 
Q 3450 3153 3228 2886 
Q 3006 2619 2597 2516 
z
" transform="scale(0.015625)"/>
       <path id="DejaVuSans-37" d="M 525 4666 
L 3525 4666 
L 3525 4397 
L 1831 0 
L 1172 0 
L 2766 4134 
L 525 4134 
L 525 4666 
z
" transform="scale(0.015625)"/>
       <path id="DejaVuSans-39" d="M 703 97 
L 703 672 
Q 941 559 1184 500 
Q 1428 441 1663 441 
Q 2288 441 2617 861 
Q 2947 1281 2994 2138 
Q 2813 1869 2534 1725 
Q 2256 1581 1919 1581 
Q 1219 1581 811 2004 
Q 403 2428 403 3163 
Q 403 3881 828 4315 
Q 1253 4750 1959 4750 
Q 2769 4750 3195 4129 
Q 3622 3509 3622 2328 
Q 3622 1225 3098 567 
Q 2575 -91 1691 -91 
Q 1453 -91 1209 -44 
Q 966 3 703 97 
z
M 1959 2075 
Q 2384 2075 2632 2365 
Q 2881 2656 2881 3163 
Q 2881 3666 2632 3958 
Q 2384 4250 1959 4250 
Q 1534 4250 1286 3958 
Q 1038 3666 1038 3163 
Q 1038 2656 1286 2365 
Q 1534 2075 1959 2075 
z
" transform="scale(0.015625)"/>
       <path id="DejaVuSans-34" d="M 2419 4116 
L 825 1625 
L 2419 1625 
L 2419 4116 
z
M 2253 4666 
L 3047 4666 
L 3047 1625 
L 3713 1625 
L 3713 1100 
L 3047 1100 
L 3047 0 
L 2419 0 
L 2419 1100 
L 313 1100 
L 313 1709 
L 2253 4666 
z
" transform="scale(0.015625)"/>
       <path id="DejaVuSans-38" d="M 2034 2216 
Q 1584 2216 1326 1975 
Q 1069 1734 1069 1313 
Q 1069 891 1326 650 
Q 1584 409 2034 409 
Q 2484 409 2743 651 
Q 3003 894 3003 1313 
Q 3003 1734 2745 1975 
Q 2488 2216 2034 2216 
z
M 1403 2484 
Q 997 2584 770 2862 
Q 544 3141 544 3541 
Q 544 4100 942 4425 
Q 1341 4750 2034 4750 
Q 2731 4750 3128 4425 
Q 3525 4100 3525 3541 
Q 3525 3141 3298 2862 
Q 3072 2584 2669 2484 
Q 3125 2378 3379 2068 
Q 3634 1759 3634 1313 
Q 3634 634 3220 271 
Q 2806 -91 2034 -91 
Q 1263 -91 848 271 
Q 434 634 434 1313 
Q 434 1759 690 2068 
Q 947 2378 1403 2484 
z
M 1172 3481 
Q 1172 3119 1398 2916 
Q 1625 2713 2034 2713 
Q 2441 2713 2670 2916 
Q 2900 3119 2900 3481 
Q 2900 3844 2670 4047 
Q 2441 4250 2034 4250 
Q 1625 4250 1398 4047 
Q 1172 3844 1172 3481 
z
" transform="scale(0.015625)"/>
       <path id="DejaVuSans-29" d="M 513 4856 
L 1013 4856 
Q 1481 4119 1714 3412 
Q 1947 2706 1947 2009 
Q 1947 1309 1714 600 
Q 1481 -109 1013 -844 
L 513 -844 
Q 928 -128 1133 580 
Q 1338 1288 1338 2009 
Q 1338 2731 1133 3434 
Q 928 4138 513 4856 
z
" transform="scale(0.015625)"/>
      </defs>
      <use xlink:href="#DejaVuSans-43"/>
      <use xlink:href="#DejaVuSans-6f" transform="translate(69.824219 0)"/>
      <use xlink:href="#DejaVuSans-75" transform="translate(131.005859 0)"/>
      <use xlink:href="#DejaVuSans-6e" transform="translate(194.384766 0)"/>
      <use xlink:href="#DejaVuSans-74" transform="translate(257.763672 0)"/>
      <use xlink:href="#DejaVuSans-73" transform="translate(296.972656 0)"/>
      <use xlink:href="#DejaVuSans-20" transform="translate(349.072266 0)"/>
      <use xlink:href="#DejaVuSans-28" transform="translate(380.859375 0)"/>
      <use xlink:href="#DejaVuSans-74" transform="translate(419.873047 0)"/>
      <use xlink:href="#DejaVuSans-6f" transform="translate(459.082031 0)"/>
      <use xlink:href="#DejaVuSans-74" transform="translate(520.263672 0)"/>
      <use xlink:href="#DejaVuSans-61" transform="translate(559.472656 0)"/>
      <use xlink:href="#DejaVuSans-6c" transform="translate(620.751953 0)"/>
      <use xlink:href="#DejaVuSans-20" transform="translate(648.535156 0)"/>
      <use xlink:href="#DejaVuSans-3d" transform="translate(680.322266 0)"/>
      <use xlink:href="#DejaVuSans-20" transform="translate(764.111328 0)"/>
      <use xlink:href="#DejaVuSans-33" transform="translate(795.898438 0)"/>
      <use xlink:href="#DejaVuSans-37" transform="translate(859.521484 0)"/>
      <use xlink:href="#DejaVuSans-39" transform="translate(923.144531 0)"/>
      <use xlink:href="#DejaVuSans-34" transform="translate(986.767578 0)"/>
      <use xlink:href="#DejaVuSans-38" transform="translate(1050.390625 0)"/>
      <use xlink:href="#DejaVuSans-34" transform="translate(1114.013672 0)"/>
      <use xlink:href="#DejaVuSans-29" transform="translate(1177.636719 0)"/>
     </g>
    </g>
   </g>
   <g id="line2d_12">
    <path d="M 161.591151 386.130625 
L 161.591151 22.318125 
" clip-path="url(#p4e5c67efdc)" style="fill: none; stroke-dasharray: 3.7,1.6; stroke-dashoffset: 0; stroke: #ff0000; stroke-opacity: 0.7"/>
   </g>
   <g id="line2d_13">
    <defs>
     <path id="mecbc752742" d="M 0 4 
C 1.060812 4 2.078319 3.578535 2.828427 2.828427 
C 3.578535 2.078319 4 1.060812 4 0 
C 4 -1.060812 3.578535 -2.078319 2.828427 -2.828427 
C 2.078319 -3.578535 1.060812 -4 0 -4 
C -1.060812 -4 -2.078319 -3.578535 -2.828427 -2.828427 
C -3.578535 -2.078319 -4 -1.060812 -4 0 
C -4 1.060812 -3.578535 2.078319 -2.828427 2.828427 
C -2.078319 3.578535 -1.060812 4 0 4 
z
" style="stroke: #ff0000"/>
    </defs>
    <g clip-path="url(#p4e5c67efdc)">
     <use xlink:href="#mecbc752742" x="161.591151" y="244.393648" style="fill: #ff0000; stroke: #ff0000"/>
    </g>
   </g>
   <g id="line2d_14">
    <path d="M 232.61273 386.130625 
L 232.61273 22.318125 
" clip-path="url(#p4e5c67efdc)" style="fill: none; stroke-dasharray: 3.7,1.6; stroke-dashoffset: 0; stroke: #ff0000; stroke-opacity: 0.7"/>
   </g>
   <g id="line2d_15">
    <g clip-path="url(#p4e5c67efdc)">
     <use xlink:href="#mecbc752742" x="232.61273" y="320.994092" style="fill: #ff0000; stroke: #ff0000"/>
    </g>
   </g>
   <g id="patch_193">
    <path d="M 59.690625 386.130625 
L 59.690625 22.318125 
" style="fill: none; stroke: #000000; stroke-width: 0.8; stroke-linejoin: miter; stroke-linecap: square"/>
   </g>
   <g id="patch_194">
    <path d="M 705.060625 386.130625 
L 705.060625 22.318125 
" style="fill: none; stroke: #000000; stroke-width: 0.8; stroke-linejoin: miter; stroke-linecap: square"/>
   </g>
   <g id="patch_195">
    <path d="M 59.690625 386.130625 
L 705.060625 386.130625 
" style="fill: none; stroke: #000000; stroke-width: 0.8; stroke-linejoin: miter; stroke-linecap: square"/>
   </g>
   <g id="patch_196">
    <path d="M 59.690625 22.318125 
L 705.060625 22.318125 
" style="fill: none; stroke: #000000; stroke-width: 0.8; stroke-linejoin: miter; stroke-linecap: square"/>
   </g>
   <g id="text_14">
    <!-- n=1: 345.6 Å -->
    <g transform="translate(159.511464 244.393648) rotate(-90) scale(0.1 -0.1)">
     <defs>
      <path id="DejaVuSans-3a" d="M 750 794 
L 1409 794 
L 1409 0 
L 750 0 
L 750 794 
z
M 750 3309 
L 1409 3309 
L 1409 2516 
L 750 2516 
L 750 3309 
z
" transform="scale(0.015625)"/>
      <path id="DejaVuSans-2e" d="M 684 794 
L 1344 794 
L 1344 0 
L 684 0 
L 684 794 
z
" transform="scale(0.015625)"/>
      <path id="DejaVuSans-36" d="M 2113 2584 
Q 1688 2584 1439 2293 
Q 1191 2003 1191 1497 
Q 1191 994 1439 701 
Q 1688 409 2113 409 
Q 2538 409 2786 701 
Q 3034 994 3034 1497 
Q 3034 2003 2786 2293 
Q 2538 2584 2113 2584 
z
M 3366 4563 
L 3366 3988 
Q 3128 4100 2886 4159 
Q 2644 4219 2406 4219 
Q 1781 4219 1451 3797 
Q 1122 3375 1075 2522 
Q 1259 2794 1537 2939 
Q 1816 3084 2150 3084 
Q 2853 3084 3261 2657 
Q 3669 2231 3669 1497 
Q 3669 778 3244 343 
Q 2819 -91 2113 -91 
Q 1303 -91 875 529 
Q 447 1150 447 2328 
Q 447 3434 972 4092 
Q 1497 4750 2381 4750 
Q 2619 4750 2861 4703 
Q 3103 4656 3366 4563 
z
" transform="scale(0.015625)"/>
     </defs>
     <use xlink:href="#DejaVuSans-6e"/>
     <use xlink:href="#DejaVuSans-3d" transform="translate(63.378906 0)"/>
     <use xlink:href="#DejaVuSans-31" transform="translate(147.167969 0)"/>
     <use xlink:href="#DejaVuSans-3a" transform="translate(210.791016 0)"/>
     <use xlink:href="#DejaVuSans-20" transform="translate(244.482422 0)"/>
     <use xlink:href="#DejaVuSans-33" transform="translate(276.269531 0)"/>
     <use xlink:href="#DejaVuSans-34" transform="translate(339.892578 0)"/>
     <use xlink:href="#DejaVuSans-35" transform="translate(403.515625 0)"/>
     <use xlink:href="#DejaVuSans-2e" transform="translate(467.138672 0)"/>
     <use xlink:href="#DejaVuSans-36" transform="translate(498.925781 0)"/>
     <use xlink:href="#DejaVuSans-20" transform="translate(562.548828 0)"/>
     <use xlink:href="#DejaVuSans-c5" transform="translate(594.335938 0)"/>
    </g>
   </g>
   <g id="text_15">
    <!-- n=2: 669.9 Å -->
    <g transform="translate(230.533043 320.994092) rotate(-90) scale(0.1 -0.1)">
     <use xlink:href="#DejaVuSans-6e"/>
     <use xlink:href="#DejaVuSans-3d" transform="translate(63.378906 0)"/>
     <use xlink:href="#DejaVuSans-32" transform="translate(147.167969 0)"/>
     <use xlink:href="#DejaVuSans-3a" transform="translate(210.791016 0)"/>
     <use xlink:href="#DejaVuSans-20" transform="translate(244.482422 0)"/>
     <use xlink:href="#DejaVuSans-36" transform="translate(276.269531 0)"/>
     <use xlink:href="#DejaVuSans-36" transform="translate(339.892578 0)"/>
     <use xlink:href="#DejaVuSans-39" transform="translate(403.515625 0)"/>
     <use xlink:href="#DejaVuSans-2e" transform="translate(467.138672 0)"/>
     <use xlink:href="#DejaVuSans-39" transform="translate(498.925781 0)"/>
     <use xlink:href="#DejaVuSans-20" transform="translate(562.548828 0)"/>
     <use xlink:href="#DejaVuSans-c5" transform="translate(594.335938 0)"/>
    </g>
   </g>
   <g id="text_16">
    <!-- Crossover estimation (min. particles per fibril = 5) -->
    <g transform="translate(231.493438 16.318125) scale(0.12 -0.12)">
     <defs>
      <path id="DejaVuSans-76" d="M 191 3500 
L 800 3500 
L 1894 563 
L 2988 3500 
L 3597 3500 
L 2284 0 
L 1503 0 
L 191 3500 
z
" transform="scale(0.015625)"/>
      <path id="DejaVuSans-6d" d="M 3328 2828 
Q 3544 3216 3844 3400 
Q 4144 3584 4550 3584 
Q 5097 3584 5394 3201 
Q 5691 2819 5691 2113 
L 5691 0 
L 5113 0 
L 5113 2094 
Q 5113 2597 4934 2840 
Q 4756 3084 4391 3084 
Q 3944 3084 3684 2787 
Q 3425 2491 3425 1978 
L 3425 0 
L 2847 0 
L 2847 2094 
Q 2847 2600 2669 2842 
Q 2491 3084 2119 3084 
Q 1678 3084 1418 2786 
Q 1159 2488 1159 1978 
L 1159 0 
L 581 0 
L 581 3500 
L 1159 3500 
L 1159 2956 
Q 1356 3278 1631 3431 
Q 1906 3584 2284 3584 
Q 2666 3584 2933 3390 
Q 3200 3197 3328 2828 
z
" transform="scale(0.015625)"/>
      <path id="DejaVuSans-70" d="M 1159 525 
L 1159 -1331 
L 581 -1331 
L 581 3500 
L 1159 3500 
L 1159 2969 
Q 1341 3281 1617 3432 
Q 1894 3584 2278 3584 
Q 2916 3584 3314 3078 
Q 3713 2572 3713 1747 
Q 3713 922 3314 415 
Q 2916 -91 2278 -91 
Q 1894 -91 1617 61 
Q 1341 213 1159 525 
z
M 3116 1747 
Q 3116 2381 2855 2742 
Q 2594 3103 2138 3103 
Q 1681 3103 1420 2742 
Q 1159 2381 1159 1747 
Q 1159 1113 1420 752 
Q 1681 391 2138 391 
Q 2594 391 2855 752 
Q 3116 1113 3116 1747 
z
" transform="scale(0.015625)"/>
      <path id="DejaVuSans-66" d="M 2375 4863 
L 2375 4384 
L 1825 4384 
Q 1516 4384 1395 4259 
Q 1275 4134 1275 3809 
L 1275 3500 
L 2222 3500 
L 2222 3053 
L 1275 3053 
L 1275 0 
L 697 0 
L 697 3053 
L 147 3053 
L 147 3500 
L 697 3500 
L 697 3744 
Q 697 4328 969 4595 
Q 1241 4863 1831 4863 
L 2375 4863 
z
" transform="scale(0.015625)"/>
      <path id="DejaVuSans-62" d="M 3116 1747 
Q 3116 2381 2855 2742 
Q 2594 3103 2138 3103 
Q 1681 3103 1420 2742 
Q 1159 2381 1159 1747 
Q 1159 1113 1420 752 
Q 1681 391 2138 391 
Q 2594 391 2855 752 
Q 3116 1113 3116 1747 
z
M 1159 2969 
Q 1341 3281 1617 3432 
Q 1894 3584 2278 3584 
Q 2916 3584 3314 3078 
Q 3713 2572 3713 1747 
Q 3713 922 3314 415 
Q 2916 -91 2278 -91 
Q 1894 -91 1617 61 
Q 1341 213 1159 525 
L 1159 0 
L 581 0 
L 581 4863 
L 1159 4863 
L 1159 2969 
z
" transform="scale(0.015625)"/>
     </defs>
     <use xlink:href="#DejaVuSans-43"/>
     <use xlink:href="#DejaVuSans-72" transform="translate(69.824219 0)"/>
     <use xlink:href="#DejaVuSans-6f" transform="translate(108.6875 0)"/>
     <use xlink:href="#DejaVuSans-73" transform="translate(169.869141 0)"/>
     <use xlink:href="#DejaVuSans-73" transform="translate(221.96875 0)"/>
     <use xlink:href="#DejaVuSans-6f" transform="translate(274.068359 0)"/>
     <use xlink:href="#DejaVuSans-76" transform="translate(335.25 0)"/>
     <use xlink:href="#DejaVuSans-65" transform="translate(394.429688 0)"/>
     <use xlink:href="#DejaVuSans-72" transform="translate(455.953125 0)"/>
     <use xlink:href="#DejaVuSans-20" transform="translate(497.066406 0)"/>
     <use xlink:href="#DejaVuSans-65" transform="translate(528.853516 0)"/>
     <use xlink:href="#DejaVuSans-73" transform="translate(590.376953 0)"/>
     <use xlink:href="#DejaVuSans-74" transform="translate(642.476562 0)"/>
     <use xlink:href="#DejaVuSans-69" transform="translate(681.685547 0)"/>
     <use xlink:href="#DejaVuSans-6d" transform="translate(709.46875 0)"/>
     <use xlink:href="#DejaVuSans-61" transform="translate(806.880859 0)"/>
     <use xlink:href="#DejaVuSans-74" transform="translate(868.160156 0)"/>
     <use xlink:href="#DejaVuSans-69" transform="translate(907.369141 0)"/>
     <use xlink:href="#DejaVuSans-6f" transform="translate(935.152344 0)"/>
     <use xlink:href="#DejaVuSans-6e" transform="translate(996.333984 0)"/>
     <use xlink:href="#DejaVuSans-20" transform="translate(1059.712891 0)"/>
     <use xlink:href="#DejaVuSans-28" transform="translate(1091.5 0)"/>
     <use xlink:href="#DejaVuSans-6d" transform="translate(1130.513672 0)"/>
     <use xlink:href="#DejaVuSans-69" transform="translate(1227.925781 0)"/>
     <use xlink:href="#DejaVuSans-6e" transform="translate(1255.708984 0)"/>
     <use xlink:href="#DejaVuSans-2e" transform="translate(1319.087891 0)"/>
     <use xlink:href="#DejaVuSans-20" transform="translate(1350.875 0)"/>
     <use xlink:href="#DejaVuSans-70" transform="translate(1382.662109 0)"/>
     <use xlink:href="#DejaVuSans-61" transform="translate(1446.138672 0)"/>
     <use xlink:href="#DejaVuSans-72" transform="translate(1507.417969 0)"/>
     <use xlink:href="#DejaVuSans-74" transform="translate(1548.53125 0)"/>
     <use xlink:href="#DejaVuSans-69" transform="translate(1587.740234 0)"/>
     <use xlink:href="#DejaVuSans-63" transform="translate(1615.523438 0)"/>
     <use xlink:href="#DejaVuSans-6c" transform="translate(1670.503906 0)"/>
     <use xlink:href="#DejaVuSans-65" transform="translate(1698.287109 0)"/>
     <use xlink:href="#DejaVuSans-73" transform="translate(1759.810547 0)"/>
     <use xlink:href="#DejaVuSans-20" transform="translate(1811.910156 0)"/>
     <use xlink:href="#DejaVuSans-70" transform="translate(1843.697266 0)"/>
     <use xlink:href="#DejaVuSans-65" transform="translate(1907.173828 0)"/>
     <use xlink:href="#DejaVuSans-72" transform="translate(1968.697266 0)"/>
     <use xlink:href="#DejaVuSans-20" transform="translate(2009.810547 0)"/>
     <use xlink:href="#DejaVuSans-66" transform="translate(2041.597656 0)"/>
     <use xlink:href="#DejaVuSans-69" transform="translate(2076.802734 0)"/>
     <use xlink:href="#DejaVuSans-62" transform="translate(2104.585938 0)"/>
     <use xlink:href="#DejaVuSans-72" transform="translate(2168.0625 0)"/>
     <use xlink:href="#DejaVuSans-69" transform="translate(2209.175781 0)"/>
     <use xlink:href="#DejaVuSans-6c" transform="translate(2236.958984 0)"/>
     <use xlink:href="#DejaVuSans-20" transform="translate(2264.742188 0)"/>
     <use xlink:href="#DejaVuSans-3d" transform="translate(2296.529297 0)"/>
     <use xlink:href="#DejaVuSans-20" transform="translate(2380.318359 0)"/>
     <use xlink:href="#DejaVuSans-35" transform="translate(2412.105469 0)"/>
     <use xlink:href="#DejaVuSans-29" transform="translate(2475.728516 0)"/>
    </g>
   </g>
  </g>
 </g>
 <defs>
  <clipPath id="p4e5c67efdc">
   <rect x="59.690625" y="22.318125" width="645.37" height="363.8125"/>
  </clipPath>
 </defs>
</svg>
